<svg width="37" height="30" viewBox="0 0 37 30" fill="none" xmlns="http://www.w3.org/2000/svg">
<g clip-path="url(#clip0_99_219)">
<path d="M36.4999 8.67561V14.0702C36.4999 14.3063 36.3717 14.525 36.1623 14.6465L32.8993 16.5395L30.4992 17.9321L29.3001 18.6275L25.6995 20.7173C25.3306 20.9312 24.9164 21.0377 24.5013 21.0377C24.0862 21.0377 23.6711 20.9312 23.3012 20.7164L22.3308 20.1539C22.1499 20.0375 21.9637 19.9292 21.7717 19.829C20.7975 19.3238 19.683 19.0361 18.4997 19.0361C17.3164 19.0361 16.2075 19.322 15.2343 19.826C15.0404 19.9262 14.852 20.0354 14.6696 20.1536L13.6991 20.7161C12.9601 21.1448 12.0377 21.1439 11.2999 20.7161L7.7003 18.6281L6.50116 17.9318L4.09978 16.5392L0.837737 14.6462C0.628314 14.5247 0.500488 14.306 0.500488 14.0699V8.67531C0.500488 8.15301 1.08967 7.83021 1.55288 8.09901L4.09978 9.57651L6.50116 10.97L7.7003 11.6654L11.2999 13.7543L12.5 14.4506L14.3401 15.5183L14.9001 15.8432L15.5442 16.2167C15.5678 16.2305 15.5923 16.2431 15.6171 16.2542C16.4951 16.6442 17.4712 16.8608 18.4994 16.8608C19.5276 16.8608 20.5065 16.6433 21.3845 16.2533C21.4096 16.2422 21.4338 16.2296 21.4577 16.2158L22.0999 15.8432L22.6562 15.5201L24.5001 14.4506L25.6992 13.7543L29.2997 11.6654L30.4989 10.97L32.899 9.57741L35.4469 8.09931C35.9101 7.83051 36.4996 8.15331 36.4996 8.67561H36.4999Z" fill="#00A2DE"/>
<path d="M18.5001 13.3938C22.3251 13.3938 25.4259 10.3955 25.4259 6.6969C25.4259 2.9983 22.3251 0 18.5001 0C14.675 0 11.5742 2.9983 11.5742 6.6969C11.5742 10.3955 14.675 13.3938 18.5001 13.3938Z" fill="#FED165"/>
<path d="M18.4995 29.9736V30H0.5V24.0291H12.3527C15.7479 24.0291 18.4992 26.6904 18.4992 29.9736H18.4995Z" fill="#38B077"/>
<path d="M36.5 24.0291V30H18.4995V29.9736C18.4995 26.6907 21.2518 24.0291 24.6472 24.0291H36.5Z" fill="#38B077"/>
</g>
<defs>
<clipPath id="clip0_99_219">
<rect width="36" height="30" fill="white" transform="translate(0.5)"/>
</clipPath>
</defs>
</svg>
