<svg width="211" height="61" viewBox="0 0 211 61" fill="none" xmlns="http://www.w3.org/2000/svg">
<path d="M81.7568 22.6819V9.65706C81.7568 9.47928 81.9019 9.33508 82.0808 9.33508H83.9866C84.1655 9.33508 84.3106 9.47928 84.3106 9.65706V14.3239C84.3106 14.5017 84.4557 14.6459 84.6346 14.6459H90.2341C90.413 14.6459 90.5581 14.5017 90.5581 14.3239V9.65706C90.5581 9.47928 90.7031 9.33508 90.882 9.33508H92.7879C92.9667 9.33508 93.1118 9.47928 93.1118 9.65706V22.6819C93.1118 22.8597 92.9667 23.0039 92.7879 23.0039H90.882C90.7031 23.0039 90.5581 22.8597 90.5581 22.6819V17.2925C90.5581 17.1147 90.413 16.9706 90.2341 16.9706H84.6346C84.4557 16.9706 84.3106 17.1147 84.3106 17.2925V22.6819C84.3106 22.8597 84.1655 23.0039 83.9866 23.0039H82.0808C81.9019 23.0039 81.7568 22.8597 81.7568 22.6819Z" fill="#101010"/>
<path d="M95.1786 22.5664L100.205 9.54205C100.253 9.4175 100.374 9.33533 100.508 9.33533H102.913C103.046 9.33533 103.166 9.41647 103.214 9.53999L108.344 22.5648C108.428 22.7762 108.271 23.0041 108.043 23.0041H105.864C105.729 23.0041 105.608 22.9209 105.56 22.7953L104.549 20.1182C104.501 19.9926 104.38 19.9094 104.245 19.9094H99.1661C99.0299 19.9094 98.9082 19.9942 98.8614 20.1218L97.8869 22.7922C97.8406 22.9199 97.7184 23.0046 97.5821 23.0046H95.4808C95.2535 23.0046 95.0965 22.7783 95.1781 22.5674L95.1786 22.5664ZM100.036 17.7512H103.349C103.576 17.7512 103.733 17.5238 103.651 17.3129L101.967 12.9939C101.86 12.7179 101.466 12.72 101.362 12.997L99.7319 17.316C99.6523 17.5264 99.8088 17.7512 100.036 17.7512Z" fill="#101010"/>
<path d="M110.414 22.6821V9.6573C110.414 9.47952 110.559 9.33533 110.738 9.33533H115.335C116.678 9.33533 117.76 9.62681 118.582 10.2093C119.421 10.8036 119.832 11.6879 119.815 12.8616C119.81 13.1903 119.742 13.5185 119.606 13.8177C119.4 14.2689 119.116 14.6575 118.755 14.9836C118.615 15.1097 118.471 15.2224 118.323 15.3221C118.116 15.4617 118.132 15.764 118.355 15.8767C118.837 16.1201 119.252 16.4586 119.599 16.8928C120.083 17.4979 120.326 18.237 120.326 19.1094C120.326 19.8774 120.131 20.5544 119.742 21.14C119.352 21.726 118.797 22.1829 118.076 22.5116C117.356 22.8403 116.504 23.0046 115.522 23.0046H110.738C110.559 23.0046 110.414 22.8605 110.414 22.6827V22.6821ZM112.968 14.7733C112.968 14.9511 113.113 15.0953 113.292 15.0953H114.963C115.441 15.0953 115.857 15.0172 116.21 14.8611C116.564 14.7051 116.839 14.4787 117.035 14.1826C117.232 13.8864 117.33 13.5334 117.33 13.1231C117.33 12.5246 117.122 12.0672 116.706 11.7515C116.29 11.4357 115.696 11.278 114.923 11.278H113.292C113.113 11.278 112.968 11.4222 112.968 11.6V14.7733ZM112.968 20.7389C112.968 20.9167 113.113 21.0609 113.292 21.0609H115.12C115.978 21.0609 116.619 20.8898 117.045 20.5482C117.471 20.2066 117.684 19.6939 117.684 19.0107C117.684 18.3274 117.473 17.8261 117.05 17.468C116.628 17.1103 115.988 16.931 115.13 16.931H113.293C113.114 16.931 112.969 17.0752 112.969 17.253V20.7389H112.968Z" fill="#101010"/>
<path d="M130.72 22.6822V17.9703C130.72 17.7605 130.521 17.6085 130.316 17.6582C129.887 17.7615 129.467 17.8484 129.055 17.9176C128.515 18.0091 127.936 18.0546 127.321 18.0546C126.26 18.0546 125.351 17.8804 124.595 17.5321C123.839 17.1837 123.258 16.639 122.852 15.8968C122.445 15.1547 122.243 14.1882 122.243 12.997V9.6573C122.243 9.47952 122.388 9.33533 122.567 9.33533H124.472C124.651 9.33533 124.796 9.47952 124.796 9.6573V12.6352C124.796 13.781 125.047 14.5877 125.548 15.0565C126.049 15.5253 126.777 15.7594 127.733 15.7594C128.336 15.7594 128.87 15.7268 129.335 15.6617C129.713 15.609 130.09 15.5428 130.464 15.4638C130.613 15.4322 130.719 15.2989 130.719 15.1469V9.6573C130.719 9.47952 130.864 9.33533 131.043 9.33533H132.949C133.128 9.33533 133.273 9.47952 133.273 9.6573V22.6822C133.273 22.8599 133.128 23.0041 132.949 23.0041H131.043C130.864 23.0041 130.719 22.8599 130.719 22.6822H130.72Z" fill="#101010"/>
<path d="M135.339 22.5663L140.366 9.54144C140.414 9.41689 140.534 9.33472 140.668 9.33472H143.073C143.207 9.33472 143.327 9.41586 143.375 9.53938L148.505 22.5642C148.588 22.7756 148.432 23.0035 148.203 23.0035H146.024C145.889 23.0035 145.769 22.9203 145.721 22.7947L144.71 20.1176C144.663 19.992 144.541 19.9088 144.406 19.9088H139.327C139.191 19.9088 139.069 19.9936 139.023 20.1212L138.047 22.7916C138.001 22.9193 137.879 23.004 137.743 23.004H135.642C135.415 23.004 135.258 22.7777 135.339 22.5668L135.339 22.5663ZM140.196 17.7511H143.509C143.736 17.7511 143.893 17.5237 143.811 17.3128L142.128 12.9938C142.02 12.7178 141.626 12.7199 141.522 12.9969L139.892 17.3159C139.812 17.5263 139.969 17.7511 140.196 17.7511Z" fill="#101010"/>
<path d="M150.574 22.6822V9.6573C150.574 9.47952 150.719 9.33533 150.898 9.33533H152.804C152.982 9.33533 153.128 9.47952 153.128 9.6573V14.3242C153.128 14.502 153.273 14.6461 153.451 14.6461H159.051C159.23 14.6461 159.375 14.502 159.375 14.3242V9.6573C159.375 9.47952 159.52 9.33533 159.699 9.33533H161.605C161.784 9.33533 161.929 9.47952 161.929 9.6573V22.6822C161.929 22.8599 161.784 23.0041 161.605 23.0041H159.699C159.52 23.0041 159.375 22.8599 159.375 22.6822V17.2928C159.375 17.115 159.23 16.9708 159.051 16.9708H153.451C153.273 16.9708 153.128 17.115 153.128 17.2928V22.6822C153.128 22.8599 152.982 23.0041 152.804 23.0041H150.898C150.719 23.0041 150.574 22.8599 150.574 22.6822Z" fill="#101010"/>
<path d="M165.398 22.6822V9.6573C165.398 9.47952 165.544 9.33533 165.722 9.33533H167.628C167.807 9.33533 167.952 9.47952 167.952 9.6573V14.3242C167.952 14.502 168.097 14.6461 168.276 14.6461H173.876C174.055 14.6461 174.2 14.502 174.2 14.3242V9.6573C174.2 9.47952 174.345 9.33533 174.524 9.33533H176.429C176.608 9.33533 176.753 9.47952 176.753 9.6573V22.6822C176.753 22.8599 176.608 23.0041 176.429 23.0041H174.524C174.345 23.0041 174.2 22.8599 174.2 22.6822V17.2928C174.2 17.115 174.055 16.9708 173.876 16.9708H168.276C168.097 16.9708 167.952 17.115 167.952 17.2928V22.6822C167.952 22.8599 167.807 23.0041 167.628 23.0041H165.722C165.544 23.0041 165.398 22.8599 165.398 22.6822Z" fill="#101010"/>
<path d="M179.49 22.4966L182.892 17.6799C183.02 17.499 182.929 17.2504 182.716 17.1863C181.878 16.9341 181.209 16.53 180.708 15.9739C180.122 15.3232 179.829 14.4896 179.829 13.4745C179.829 12.6089 180.033 11.8667 180.443 11.2486C180.852 10.6305 181.432 10.1571 182.182 9.82837C182.932 9.49968 183.814 9.33533 184.829 9.33533H189.633C189.812 9.33533 189.957 9.47952 189.957 9.6573V22.6822C189.957 22.8599 189.812 23.0041 189.633 23.0041H187.727C187.548 23.0041 187.403 22.8599 187.403 22.6822V17.976C187.403 17.7982 187.258 17.654 187.079 17.654H185.915C185.807 17.654 185.707 17.7067 185.647 17.7951L182.185 22.863C182.125 22.9514 182.024 23.0041 181.917 23.0041H179.755C179.492 23.0041 179.339 22.7106 179.49 22.4971V22.4966ZM184.888 15.5744H187.079C187.258 15.5744 187.403 15.4302 187.403 15.2524V11.7856C187.403 11.6078 187.258 11.4636 187.079 11.4636H184.996C184.184 11.4636 183.549 11.631 183.09 11.9664C182.632 12.3019 182.403 12.8042 182.403 13.475C182.403 14.1459 182.612 14.671 183.031 15.0322C183.451 15.3935 184.069 15.5744 184.888 15.5744H184.888Z" fill="#101010"/>
<path d="M90.2356 41.5098V37.1194C90.2356 36.8207 89.9553 36.6 89.6625 36.6677C89.2917 36.7535 88.9277 36.8269 88.5705 36.8868C88.0302 36.9783 87.4519 37.0238 86.8367 37.0238C85.7759 37.0238 84.8669 36.8496 84.1108 36.5013C83.3542 36.1534 82.7729 35.6077 82.3672 34.8661C81.9611 34.1239 81.7583 33.1575 81.7583 31.9662V28.7697C81.7583 28.5133 81.9674 28.3051 82.2258 28.3051H83.8451C84.103 28.3051 84.3126 28.5128 84.3126 28.7697V31.6049C84.3126 32.7507 84.5633 33.558 85.064 34.0262C85.5648 34.495 86.2933 34.7291 87.2496 34.7291C87.8523 34.7291 88.3859 34.6965 88.8508 34.6314C89.1908 34.5839 89.5299 34.526 89.8663 34.4573C90.0822 34.4133 90.2361 34.2211 90.2361 34.0019V28.7697C90.2361 28.5133 90.4451 28.3051 90.7036 28.3051H92.3229C92.5808 28.3051 92.7904 28.5128 92.7904 28.7697V41.5092C92.7904 41.7656 92.5813 41.9739 92.3229 41.9739H90.7036C90.4456 41.9739 90.2361 41.7661 90.2361 41.5092L90.2356 41.5098Z" fill="#101010"/>
<path d="M96.2583 41.5096V28.77C96.2583 28.5137 96.4673 28.3054 96.7258 28.3054H104.937C105.195 28.3054 105.404 28.5132 105.404 28.77V30.0667C105.404 30.3231 105.195 30.5314 104.937 30.5314H99.2801C99.0222 30.5314 98.8126 30.7391 98.8126 30.996V33.3764C98.8126 33.6328 99.0216 33.8411 99.2801 33.8411H103.984C104.242 33.8411 104.452 34.0488 104.452 34.3057V35.4561C104.452 35.7125 104.243 35.9207 103.984 35.9207H99.2801C99.0222 35.9207 98.8126 36.1285 98.8126 36.3854V39.264C98.8126 39.5204 99.0216 39.7286 99.2801 39.7286H105.006C105.264 39.7286 105.473 39.9364 105.473 40.1933V41.5096C105.473 41.7659 105.264 41.9742 105.006 41.9742H96.7263C96.4684 41.9742 96.2588 41.7665 96.2588 41.5096H96.2583Z" fill="#101010"/>
<path d="M108.439 41.5096V28.77C108.439 28.5137 108.648 28.3054 108.907 28.3054H113.597C114.586 28.3054 115.463 28.4765 116.23 28.8181C116.996 29.1597 117.597 29.6528 118.033 30.2972C118.468 30.9417 118.686 31.7164 118.686 32.6208C118.686 33.5253 118.485 34.3165 118.082 34.9543C117.679 35.592 117.094 36.0789 116.328 36.4138C115.562 36.7492 114.632 36.9166 113.538 36.9166H111.461C111.203 36.9166 110.994 37.1244 110.994 37.3813V41.5096C110.994 41.7659 110.785 41.9742 110.526 41.9742H108.907C108.649 41.9742 108.439 41.7665 108.439 41.5096ZM110.994 34.2943C110.994 34.5506 111.203 34.7589 111.461 34.7589H113.528C114.347 34.7589 114.985 34.5899 115.444 34.2514C115.902 33.9129 116.132 33.3857 116.132 32.6699C116.132 31.9542 115.898 31.4151 115.429 31.0544C114.961 30.6931 114.334 30.5122 113.548 30.5122H111.461C111.203 30.5122 110.994 30.72 110.994 30.9769V34.2948V34.2943Z" fill="#101010"/>
<path d="M121.043 41.5096V28.77C121.043 28.5137 121.252 28.3054 121.51 28.3054H129.721C129.979 28.3054 130.189 28.5132 130.189 28.77V30.0667C130.189 30.3231 129.98 30.5314 129.721 30.5314H124.065C123.807 30.5314 123.597 30.7391 123.597 30.996V33.3764C123.597 33.6328 123.806 33.8411 124.065 33.8411H128.769C129.027 33.8411 129.236 34.0488 129.236 34.3057V35.4561C129.236 35.7125 129.027 35.9207 128.769 35.9207H124.065C123.807 35.9207 123.597 36.1285 123.597 36.3854V39.264C123.597 39.5204 123.806 39.7286 124.065 39.7286H129.79C130.048 39.7286 130.258 39.9364 130.258 40.1933V41.5096C130.258 41.7659 130.049 41.9742 129.79 41.9742H121.51C121.253 41.9742 121.043 41.7665 121.043 41.5096Z" fill="#101010"/>
<path d="M137.164 42.2669C136.104 42.2669 135.137 42.1336 134.266 41.8664C133.549 41.6467 132.9 41.3475 132.321 40.9687C132.113 40.8333 132.048 40.5594 132.172 40.3459L132.859 39.165C132.998 38.9257 133.311 38.8652 133.539 39.0229C133.92 39.2854 134.35 39.5025 134.832 39.6746C135.496 39.9123 136.192 40.0312 136.92 40.0312C137.548 40.0312 138.092 39.9433 138.55 39.7676C139.008 39.5919 139.364 39.3479 139.616 39.0353C139.869 38.7226 139.994 38.3582 139.994 37.9417C139.994 37.291 139.772 36.798 139.326 36.4625C138.881 36.1276 138.19 35.9597 137.253 35.9597H135C134.742 35.9597 134.532 35.7519 134.532 35.4951V34.4227C134.532 34.1663 134.741 33.958 135 33.958H137.057C137.58 33.958 138.031 33.8831 138.407 33.7332C138.784 33.5839 139.073 33.3704 139.277 33.0939C139.48 32.8174 139.581 32.4836 139.581 32.0934C139.581 31.7032 139.482 31.3874 139.282 31.1269C139.082 30.8664 138.784 30.6695 138.388 30.5362C137.992 30.4029 137.509 30.3362 136.939 30.3362C136.304 30.3362 135.69 30.4406 135.097 30.6489C134.674 30.7977 134.295 30.9879 133.96 31.2199C133.743 31.3703 133.441 31.3001 133.299 31.0778L132.613 30.0013C132.482 29.7966 132.531 29.5263 132.725 29.3801C133.25 28.9837 133.86 28.6694 134.552 28.4374C135.397 28.1542 136.301 28.0126 137.264 28.0126C138.226 28.0126 139.14 28.1573 139.867 28.4472C140.594 28.7366 141.152 29.1516 141.542 29.6922C141.931 30.2328 142.126 30.8804 142.126 31.6349C142.126 32.0515 142.031 32.4567 141.841 32.8505C141.652 33.2443 141.401 33.5958 141.09 33.9048C140.988 34.0066 140.882 34.1007 140.773 34.187C140.52 34.3875 140.558 34.7865 140.84 34.9426C141.265 35.1777 141.63 35.4811 141.935 35.8527C142.409 36.4321 142.643 37.1613 142.637 38.0399C142.637 38.8342 142.409 39.55 141.954 40.1878C141.499 40.826 140.861 41.332 140.039 41.7062C139.216 42.0804 138.259 42.2674 137.165 42.2674L137.164 42.2669Z" fill="#101010"/>
<path d="M96.3947 47.7434V60.2328C96.3947 60.5589 96.129 60.823 95.8008 60.823H94.5055C94.1768 60.823 93.9106 60.5574 93.9116 60.2308L93.9361 53.5731C93.9381 52.9736 93.1436 52.7534 92.8331 53.2677L90.1519 57.7144C90.0448 57.8922 89.8514 58.0012 89.6428 58.0012H88.5134C88.3069 58.0012 88.1156 57.8947 88.0074 57.7201L85.166 53.1224C84.8519 52.6144 84.0641 52.8372 84.0667 53.4336L84.0927 60.2308C84.0938 60.5574 83.828 60.823 83.4989 60.823H82.3507C82.0226 60.823 81.7568 60.5589 81.7568 60.2328V47.7434C81.7568 47.4173 82.0226 47.1532 82.3507 47.1532H83.8899C84.0969 47.1532 84.2888 47.2602 84.3964 47.4359L88.6766 54.4047C88.9107 54.7856 89.4691 54.7804 89.6959 54.3954L93.7858 47.4452C93.8924 47.2643 94.0874 47.1532 94.298 47.1532H95.8003C96.1284 47.1532 96.3942 47.4173 96.3942 47.7434H96.3947Z" fill="#101010"/>
<path d="M99.8628 60.2319V47.743C99.8628 47.4169 100.129 47.1528 100.457 47.1528H101.824C102.152 47.1528 102.418 47.4169 102.418 47.743V60.2319C102.418 60.5581 102.152 60.8221 101.824 60.8221H100.457C100.129 60.8221 99.8628 60.5581 99.8628 60.2319Z" fill="#101010"/>
<path d="M105.885 60.2319V47.743C105.885 47.4169 106.15 47.1528 106.479 47.1528H111.042C112.031 47.1528 112.909 47.3239 113.675 47.6655C114.442 48.0071 115.042 48.5002 115.478 49.1446C115.914 49.7891 116.132 50.5638 116.132 51.4683C116.132 52.3727 115.93 53.1639 115.527 53.8017C115.124 54.4394 114.54 54.9263 113.774 55.2612C113.007 55.5961 112.078 55.7641 110.984 55.7641H109.033C108.705 55.7641 108.44 56.0281 108.44 56.3543V60.2314C108.44 60.5575 108.174 60.8216 107.846 60.8216H106.479C106.15 60.8216 105.885 60.5575 105.885 60.2314V60.2319ZM108.439 53.0166C108.439 53.3428 108.705 53.6069 109.033 53.6069H110.974C111.792 53.6069 112.431 53.4379 112.889 53.0993C113.347 52.7608 113.577 52.2337 113.577 51.5179C113.577 50.8021 113.343 50.263 112.875 49.9018C112.406 49.5405 111.78 49.3602 110.993 49.3602H109.033C108.705 49.3602 108.439 49.6243 108.439 49.9504V53.0172V53.0166Z" fill="#101010"/>
<path d="M129.042 60.8231H127.278C127.094 60.8231 126.922 60.7389 126.809 60.5952L122.45 55.0172C122.338 54.8735 122.165 54.7892 121.981 54.7892H121.637C121.309 54.7892 121.043 55.0533 121.043 55.3795V60.2339C121.043 60.56 120.777 60.8241 120.449 60.8241H119.083C118.755 60.8241 118.489 60.56 118.489 60.2339V47.7445C118.489 47.4184 118.755 47.1543 119.083 47.1543H120.449C120.777 47.1543 121.043 47.4184 121.043 47.7445V51.8759C121.043 52.2021 121.309 52.4662 121.637 52.4662H122.01C122.195 52.4662 122.37 52.3804 122.482 52.2346L126.209 47.3869C126.322 47.2406 126.496 47.1553 126.681 47.1553H128.342C128.835 47.1553 129.113 47.7181 128.812 48.1063L124.788 53.2796C124.62 53.4951 124.623 53.7964 124.794 54.0089L129.506 59.866C129.817 60.2525 129.54 60.8246 129.042 60.8246L129.042 60.8231Z" fill="#101010"/>
<path d="M142.526 47.1533C142.969 47.1533 143.256 47.6169 143.056 48.0097L139.375 55.2478C138.904 56.1775 138.426 56.9827 137.941 57.6577C137.456 58.3352 136.951 58.9037 136.422 59.3632C135.896 59.82 135.333 60.1865 134.734 60.4614C134.28 60.6681 133.798 60.834 133.285 60.9586C133 61.0284 132.705 60.879 132.593 60.6087L132.08 59.3673C131.945 59.0412 132.128 58.6774 132.468 58.5755C133.009 58.4138 133.505 58.2055 133.956 57.9512C134.583 57.6008 135.146 57.1279 135.646 56.5372C135.749 56.4158 135.85 56.2886 135.95 56.1553C136.088 55.9692 136.107 55.7196 135.995 55.5165L131.871 48.0268C131.654 47.6335 131.94 47.1533 132.391 47.1533H134.135C134.356 47.1533 134.558 47.2753 134.66 47.4696L137.088 52.0745C137.314 52.504 137.936 52.4936 138.148 52.0574L140.371 47.4862C140.471 47.2826 140.678 47.1528 140.906 47.1528H142.526V47.1533Z" fill="#101010"/>
<path d="M145.171 60.2319V47.743C145.171 47.4169 145.437 47.1528 145.765 47.1528H150.093C151.435 47.1528 152.518 47.4443 153.339 48.0268C154.126 48.5849 154.536 49.3974 154.57 50.4651C154.585 50.9442 154.484 51.4264 154.257 51.8497C154.064 52.2109 153.815 52.5283 153.511 52.8011C153.467 52.8409 153.422 52.8797 153.377 52.9169C153.07 53.1712 153.09 53.659 153.427 53.8725C153.777 54.0942 154.087 54.3733 154.356 54.7097C154.841 55.3149 155.083 56.054 155.083 56.9264C155.083 57.6944 154.888 58.3714 154.499 58.957C154.109 59.543 153.554 59.9999 152.834 60.3286C152.113 60.6573 151.262 60.8216 150.28 60.8216H145.765C145.437 60.8216 145.171 60.5575 145.171 60.2314V60.2319ZM147.725 52.3236C147.725 52.6497 147.991 52.9138 148.319 52.9138H149.719C150.197 52.9138 150.613 52.8358 150.967 52.6797C151.321 52.5236 151.596 52.2972 151.792 52.0011C151.989 51.705 152.087 51.352 152.087 50.9416C152.087 50.3431 151.879 49.8858 151.463 49.57C151.047 49.2542 150.453 49.0966 149.68 49.0966H148.319C147.99 49.0966 147.725 49.3607 147.725 49.6868V52.3246L147.725 52.3236ZM147.725 58.2892C147.725 58.6153 147.991 58.8794 148.319 58.8794H149.876C150.735 58.8794 151.376 58.7084 151.802 58.3667C152.228 58.0251 152.441 57.5124 152.441 56.8292C152.441 56.146 152.23 55.6447 151.807 55.2865C151.385 54.9289 150.744 54.7495 149.887 54.7495H148.32C147.991 54.7495 147.726 55.0136 147.726 55.3397V58.2897L147.725 58.2892Z" fill="#101010"/>
<path d="M156.521 60.0206L161.341 47.5317C161.429 47.3037 161.65 47.1528 161.896 47.1528H163.932C164.176 47.1528 164.395 47.3017 164.484 47.528L169.403 60.0169C169.556 60.404 169.268 60.8221 168.85 60.8221H167.253C167.005 60.8221 166.784 60.6697 166.697 60.4397L165.817 58.1099C165.73 57.8799 165.509 57.7274 165.261 57.7274H160.558C160.308 57.7274 160.085 57.883 160 58.1161L159.154 60.4335C159.068 60.6671 158.845 60.8221 158.596 60.8221H157.076C156.659 60.8221 156.372 60.4071 156.521 60.0211V60.0206ZM161.627 55.5692H164.157C164.574 55.5692 164.861 55.1527 164.711 54.7661L163.425 51.4672C163.228 50.9618 162.507 50.9654 162.315 51.4734L161.07 54.7723C160.925 55.1578 161.212 55.5692 161.626 55.5692H161.627Z" fill="#101010"/>
<path d="M171.616 60.2319V47.743C171.616 47.4169 171.882 47.1528 172.21 47.1528H173.577C173.905 47.1528 174.171 47.4169 174.171 47.743V51.8745C174.171 52.2006 174.437 52.4647 174.765 52.4647H179.826C180.154 52.4647 180.42 52.2006 180.42 51.8745V47.743C180.42 47.4169 180.685 47.1528 181.013 47.1528H182.38C182.709 47.1528 182.974 47.4169 182.974 47.743V60.2319C182.974 60.5581 182.709 60.8221 182.38 60.8221H181.013C180.685 60.8221 180.42 60.5581 180.42 60.2319V55.378C180.42 55.0519 180.154 54.7878 179.826 54.7878H174.765C174.437 54.7878 174.171 55.0519 174.171 55.378V60.2319C174.171 60.5581 173.905 60.8221 173.577 60.8221H172.21C171.882 60.8221 171.616 60.5581 171.616 60.2319Z" fill="#101010"/>
<path d="M186.44 60.2319V47.743C186.44 47.4169 186.706 47.1528 187.034 47.1528H188.401C188.729 47.1528 188.995 47.4169 188.995 47.743V51.8745C188.995 52.2006 189.26 52.4647 189.589 52.4647H194.649C194.978 52.4647 195.243 52.2006 195.243 51.8745V47.743C195.243 47.4169 195.509 47.1528 195.837 47.1528H197.204C197.532 47.1528 197.798 47.4169 197.798 47.743V60.2319C197.798 60.5581 197.532 60.8221 197.204 60.8221H195.837C195.509 60.8221 195.243 60.5581 195.243 60.2319V55.378C195.243 55.0519 194.978 54.7878 194.649 54.7878H189.589C189.26 54.7878 188.995 55.0519 188.995 55.378V60.2319C188.995 60.5581 188.729 60.8221 188.401 60.8221H187.034C186.706 60.8221 186.44 60.5581 186.44 60.2319Z" fill="#101010"/>
<path d="M200.83 59.8929L203.726 55.7929C203.948 55.4803 203.819 55.0358 203.457 54.9045C202.759 54.6508 202.19 54.2797 201.75 53.7923C201.164 53.1417 200.871 52.308 200.871 51.293C200.871 50.4273 201.075 49.6852 201.485 49.0671C201.894 48.449 202.474 47.9756 203.224 47.6469C203.974 47.3182 204.856 47.1538 205.872 47.1538H210.406C210.734 47.1538 211 47.4179 211 47.744V60.2329C211 60.559 210.734 60.8231 210.406 60.8231H209.039C208.711 60.8231 208.445 60.559 208.445 60.2329V56.0627C208.445 55.7366 208.179 55.4725 207.851 55.4725H207.099C206.903 55.4725 206.719 55.5692 206.608 55.7309L203.307 60.5642C203.197 60.726 203.013 60.8226 202.815 60.8226H201.315C200.835 60.8226 200.553 60.2846 200.83 59.8934L200.83 59.8929ZM205.931 53.3923H207.852C208.18 53.3923 208.446 53.1282 208.446 52.8021V49.8718C208.446 49.5456 208.18 49.2816 207.852 49.2816H206.039C205.227 49.2816 204.592 49.449 204.133 49.7844C203.674 50.1193 203.446 50.6222 203.446 51.293C203.446 51.9638 203.655 52.4889 204.074 52.8502C204.494 53.2114 205.112 53.3923 205.931 53.3923H205.931Z" fill="#101010"/>
<path d="M71.217 17.6405V28.6095C71.217 29.0896 70.9635 29.5343 70.5492 29.7813L64.0942 33.6304L59.346 36.4621L56.9738 37.876L49.851 42.1253C49.1212 42.5602 48.3018 42.7768 47.4806 42.7768C46.6594 42.7768 45.8382 42.5602 45.1065 42.1235L43.1867 40.9797C42.8288 40.7431 42.4606 40.5228 42.0806 40.3191C40.1534 39.2919 37.9487 38.7069 35.6078 38.7069C33.2669 38.7069 31.0733 39.2882 29.1479 40.313C28.7643 40.5167 28.3917 40.7388 28.0308 40.9791L26.1109 42.1229C24.6489 42.9946 22.8242 42.9927 21.3646 42.1229L14.2437 37.8773L11.8714 36.4615L7.12085 33.6298L0.667658 29.7807C0.253362 29.5337 0.000488281 29.089 0.000488281 28.6089V17.6399C0.000488281 16.5779 1.16604 15.9215 2.0824 16.4681L7.12085 19.4723L11.8714 22.3058L14.2437 23.7198L21.3646 27.9672L23.7387 29.383L27.379 31.554L28.4868 32.2146L29.761 32.9741C29.8077 33.0021 29.8562 33.0278 29.9053 33.0503C31.6422 33.8433 33.5732 34.2838 35.6072 34.2838C37.6412 34.2838 39.5777 33.8415 41.3147 33.0485C41.3644 33.0259 41.4122 33.0003 41.4595 32.9723L42.73 32.2146L43.8305 31.5577L47.4781 29.383L49.8504 27.9672L56.9732 23.7198L59.3454 22.3058L64.0936 19.4742L69.1338 16.4687C70.0502 15.9221 71.2164 16.5785 71.2164 17.6405H71.217Z" fill="#00A2DE"/>
<path d="M35.6089 27.2341C43.1759 27.2341 49.3101 21.1375 49.3101 13.617C49.3101 6.09655 43.1759 0 35.6089 0C28.042 0 21.9077 6.09655 21.9077 13.617C21.9077 21.1375 28.042 27.2341 35.6089 27.2341Z" fill="#FED165"/>
<path d="M35.6079 60.9464V61.0001H0V48.8593H23.4479C30.1644 48.8593 35.6073 54.2706 35.6073 60.9464H35.6079Z" fill="#38B077"/>
<path d="M71.2182 48.8593V61.0001H35.6084V60.9464C35.6084 54.2712 41.0532 48.8593 47.7703 48.8593H71.2182Z" fill="#38B077"/>
</svg>
