<svg width="548" height="289" viewBox="0 0 548 289" fill="none" xmlns="http://www.w3.org/2000/svg">
<path d="M421 0.499969C420.448 0.499969 420 0.947685 420 1.49997C420 2.05225 420.448 2.49997 421 2.49997V0.499969ZM370 167.5L370.321 166.553L370 167.5ZM6 158L5.09736 157.57L5.06486 157.638L5.04296 157.71L6 158ZM78 284.5L69.3075 276.899L67.0712 288.228L78 284.5ZM67.9244 281.433C67.3879 281.302 66.8467 281.63 66.7157 282.167C66.5848 282.704 66.9135 283.245 67.45 283.376L67.9244 281.433ZM47.4092 276.489C47.9107 276.721 48.5048 276.502 48.7362 276C48.9676 275.499 48.7487 274.905 48.2472 274.673L47.4092 276.489ZM30.665 263.803C30.2371 263.454 29.6072 263.518 29.258 263.946C28.9088 264.374 28.9726 265.004 29.4005 265.353L30.665 263.803ZM15.0509 249.752C15.3626 250.208 15.9848 250.325 16.4408 250.013C16.8967 249.702 17.0137 249.079 16.7021 248.623L15.0509 249.752ZM7.48172 230.133C7.30108 229.611 6.73156 229.334 6.20965 229.515C5.68774 229.695 5.41108 230.265 5.59172 230.787L7.48172 230.133ZM0.930051 210.134C0.996154 210.683 1.49424 211.074 2.04255 211.007C2.59087 210.941 2.98178 210.443 2.91567 209.895L0.930051 210.134ZM2.20518 189.096C2.23012 188.544 1.80307 188.077 1.25135 188.052C0.69963 188.027 0.232156 188.454 0.207219 189.006L2.20518 189.096ZM2.65141 168.037C2.54925 168.579 2.90642 169.102 3.44918 169.204C3.99193 169.306 4.51474 168.949 4.61689 168.406L2.65141 168.037ZM11.5014 149.831C11.785 149.357 11.6307 148.743 11.1568 148.46C10.6829 148.176 10.0688 148.33 9.7852 148.804L11.5014 149.831ZM21.7381 132.948C21.3583 133.349 21.3754 133.982 21.7763 134.362C22.1772 134.742 22.8101 134.725 23.19 134.324L21.7381 132.948ZM38.0792 121.928C38.5422 121.627 38.6733 121.008 38.3722 120.545C38.071 120.082 37.4516 119.951 36.9886 120.252L38.0792 121.928ZM54.6993 111.318C54.1832 111.515 53.9242 112.093 54.1209 112.609C54.3175 113.125 54.8953 113.384 55.4114 113.187L54.6993 111.318ZM74.1303 107.883C74.672 107.775 75.0238 107.249 74.9162 106.707C74.8086 106.165 74.2822 105.813 73.7405 105.921L74.1303 107.883ZM93.3446 103.349C92.7937 103.388 92.379 103.866 92.4182 104.417C92.4575 104.968 92.9359 105.383 93.4868 105.344L93.3446 103.349ZM113.053 104.897C113.605 104.909 114.062 104.47 114.074 103.918C114.085 103.366 113.647 102.909 113.095 102.898L113.053 104.897ZM132.83 104.021C132.28 103.972 131.794 104.378 131.744 104.928C131.695 105.478 132.101 105.964 132.651 106.013L132.83 104.021ZM152.096 108.294C152.642 108.372 153.149 107.992 153.227 107.445C153.305 106.899 152.925 106.392 152.378 106.314L152.096 108.294ZM171.831 109.506C171.288 109.406 170.766 109.765 170.666 110.309C170.566 110.852 170.926 111.373 171.469 111.473L171.831 109.506ZM190.71 115.342C191.25 115.459 191.783 115.117 191.9 114.577C192.017 114.037 191.674 113.505 191.135 113.388L190.71 115.342ZM210.357 117.823C209.82 117.692 209.279 118.022 209.148 118.558C209.018 119.095 209.347 119.636 209.883 119.766L210.357 117.823ZM228.883 124.606C229.417 124.747 229.964 124.429 230.106 123.896C230.248 123.362 229.93 122.814 229.396 122.673L228.883 124.606ZM248.382 127.879C247.851 127.729 247.298 128.038 247.148 128.569C246.998 129.101 247.307 129.654 247.838 129.804L248.382 127.879ZM266.742 135.289C267.271 135.446 267.828 135.145 267.985 134.615C268.142 134.086 267.841 133.529 267.311 133.372L266.742 135.289ZM286.149 139.084C285.622 138.921 285.062 139.216 284.899 139.744C284.736 140.272 285.031 140.832 285.559 140.995L286.149 139.084ZM304.294 146.873C304.82 147.041 305.383 146.75 305.55 146.224C305.718 145.698 305.427 145.135 304.901 144.968L304.294 146.873ZM323.616 151C323.091 150.829 322.527 151.116 322.356 151.641C322.184 152.166 322.471 152.731 322.996 152.902L323.616 151ZM341.669 159.048C342.193 159.222 342.759 158.938 342.933 158.414C343.107 157.89 342.823 157.324 342.299 157.15L341.669 159.048ZM360.954 163.39C360.431 163.214 359.863 163.495 359.687 164.018C359.511 164.542 359.792 165.109 360.316 165.285L360.954 163.39ZM379.376 171.539C379.905 171.697 380.462 171.396 380.62 170.867C380.778 170.338 380.478 169.781 379.948 169.623L379.376 171.539ZM399.154 174.56C398.614 174.445 398.083 174.789 397.967 175.329C397.851 175.869 398.195 176.401 398.736 176.516L399.154 174.56ZM418.439 179.81C418.987 179.875 419.485 179.483 419.55 178.934C419.615 178.386 419.223 177.889 418.674 177.824L418.439 179.81ZM438.342 179.1C437.79 179.095 437.338 179.539 437.333 180.091C437.328 180.644 437.772 181.095 438.324 181.1L438.342 179.1ZM458.441 180C458.989 179.933 459.38 179.435 459.313 178.887C459.246 178.338 458.747 177.948 458.199 178.015L458.441 180ZM477.533 174.184C477.001 174.333 476.691 174.885 476.84 175.417C476.99 175.948 477.542 176.258 478.073 176.109L477.533 174.184ZM496.896 169.013C497.393 168.772 497.601 168.173 497.36 167.676C497.119 167.18 496.521 166.972 496.024 167.213L496.896 169.013ZM512.795 156.925C512.356 157.261 512.273 157.888 512.608 158.327C512.944 158.766 513.571 158.849 514.01 158.514L512.795 156.925ZM528.544 144.629C528.898 144.205 528.841 143.575 528.417 143.221C527.993 142.867 527.363 142.924 527.009 143.348L528.544 144.629ZM537.736 126.885C537.492 127.381 537.696 127.98 538.191 128.224C538.687 128.468 539.286 128.264 539.53 127.768L537.736 126.885ZM546.116 108.741C546.23 108.201 545.884 107.671 545.344 107.557C544.803 107.443 544.273 107.788 544.159 108.329L546.116 108.741ZM545.725 88.7683C545.752 89.3199 546.221 89.7452 546.772 89.7183C547.324 89.6913 547.749 89.2222 547.722 88.6706L545.725 88.7683ZM544.153 68.8584C543.986 68.332 543.424 68.0407 542.898 68.2078C542.371 68.3749 542.08 68.9371 542.247 69.4635L544.153 68.8584ZM533.994 51.66C534.287 52.1284 534.904 52.2707 535.372 51.978C535.84 51.6853 535.983 51.0683 535.69 50.6L533.994 51.66ZM523.084 34.9127C522.692 34.5244 522.059 34.528 521.67 34.9207C521.282 35.3135 521.286 35.9466 521.678 36.3349L523.084 34.9127ZM506.281 24.0144C506.745 24.3149 507.364 24.1828 507.664 23.7194C507.965 23.256 507.833 22.6368 507.369 22.3363L506.281 24.0144ZM489.691 12.9818C489.183 12.7651 488.595 13.0012 488.379 13.5092C488.162 14.0172 488.398 14.6047 488.906 14.8214L489.691 12.9818ZM470.112 8.40553C470.646 8.54717 471.193 8.22924 471.335 7.69542C471.476 7.16161 471.158 6.61405 470.625 6.47242L470.112 8.40553ZM451.062 2.53532C450.515 2.4574 450.009 2.83747 449.931 3.38423C449.853 3.931 450.233 4.4374 450.78 4.51531L451.062 2.53532ZM431.084 2.7165C431.636 2.74056 432.103 2.31278 432.127 1.76102C432.151 1.20926 431.723 0.742464 431.171 0.7184L431.084 2.7165ZM69.3961 281.783C68.9021 281.668 68.4115 281.552 67.9244 281.433L67.45 283.376C67.9448 283.496 68.443 283.615 68.9447 283.731L69.3961 281.783ZM48.2472 274.673C41.4751 271.548 35.6563 267.876 30.665 263.803L29.4005 265.353C34.5271 269.536 40.4901 273.296 47.4092 276.489L48.2472 274.673ZM16.7021 248.623C12.6854 242.747 9.68478 236.498 7.48172 230.133L5.59172 230.787C7.8461 237.3 10.9227 243.712 15.0509 249.752L16.7021 248.623ZM2.91567 209.895C2.03786 202.614 1.91356 195.548 2.20518 189.096L0.207219 189.006C-0.0884349 195.547 0.03677 202.725 0.930051 210.134L2.91567 209.895ZM4.61689 168.406C5.21231 165.243 5.79934 162.707 6.23662 160.965C6.45524 160.094 6.63639 159.422 6.76237 158.969C6.82536 158.743 6.87455 158.571 6.90773 158.457C6.92432 158.4 6.93691 158.357 6.94522 158.329C6.94938 158.316 6.95246 158.305 6.95444 158.299C6.95543 158.295 6.95615 158.293 6.95658 158.291C6.9568 158.291 6.95694 158.29 6.95702 158.29C6.95706 158.29 6.95708 158.29 6.95708 158.29C6.95708 158.29 6.95707 158.29 6.95707 158.29C6.95706 158.29 6.95704 158.29 6 158C5.04296 157.71 5.04293 157.71 5.0429 157.71C5.04288 157.71 5.04285 157.71 5.04281 157.711C5.04274 157.711 5.04266 157.711 5.04255 157.711C5.04235 157.712 5.04207 157.713 5.04172 157.714C5.04102 157.716 5.04004 157.72 5.03879 157.724C5.03628 157.732 5.03267 157.744 5.02799 157.76C5.01862 157.792 5.00497 157.838 4.98731 157.899C4.952 158.02 4.90067 158.199 4.83553 158.433C4.70526 158.902 4.51976 159.59 4.29681 160.478C3.85092 162.255 3.25502 164.83 2.65141 168.037L4.61689 168.406ZM6.90264 158.43C8.33685 155.422 9.87017 152.557 11.5014 149.831L9.7852 148.804C8.12044 151.586 6.55758 154.507 5.09736 157.57L6.90264 158.43ZM23.19 134.324C27.6874 129.577 32.6534 125.458 38.0792 121.928L36.9886 120.252C31.4327 123.866 26.3452 128.086 21.7381 132.948L23.19 134.324ZM55.4114 113.187C61.2621 110.958 67.5037 109.199 74.1303 107.883L73.7405 105.921C67.0157 107.257 60.6652 109.045 54.6993 111.318L55.4114 113.187ZM93.4868 105.344C99.7369 104.898 106.26 104.755 113.053 104.897L113.095 102.898C106.248 102.755 99.6625 102.898 93.3446 103.349L93.4868 105.344ZM132.651 106.013C138.938 106.578 145.42 107.342 152.096 108.294L152.378 106.314C145.672 105.358 139.155 104.589 132.83 104.021L132.651 106.013ZM171.469 111.473C177.734 112.626 184.148 113.918 190.71 115.342L191.135 113.388C184.554 111.96 178.118 110.663 171.831 109.506L171.469 111.473ZM209.883 119.766C216.097 121.28 222.431 122.895 228.883 124.606L229.396 122.673C222.932 120.959 216.585 119.34 210.357 117.823L209.883 119.766ZM247.838 129.804C254.04 131.557 260.341 133.387 266.742 135.289L267.311 133.372C260.903 131.468 254.593 129.635 248.382 127.879L247.838 129.804ZM285.559 140.995C291.719 142.897 297.965 144.858 304.294 146.873L304.901 144.968C298.567 142.951 292.316 140.988 286.149 139.084L285.559 140.995ZM322.996 152.902C329.146 154.907 335.371 156.957 341.669 159.048L342.299 157.15C335.998 155.058 329.77 153.007 323.616 151L322.996 152.902ZM360.316 165.285C363.42 166.331 366.541 167.385 369.679 168.447L370.321 166.553C367.182 165.49 364.059 164.436 360.954 163.39L360.316 165.285ZM369.679 168.447C372.953 169.555 376.185 170.585 379.376 171.539L379.948 169.623C376.781 168.676 373.572 167.654 370.321 166.553L369.679 168.447ZM398.736 176.516C405.517 177.968 412.086 179.057 418.439 179.81L418.674 177.824C412.385 177.079 405.877 176 399.154 174.56L398.736 176.516ZM438.324 181.1C445.346 181.161 452.054 180.781 458.441 180L458.199 178.015C451.901 178.784 445.28 179.161 438.342 179.1L438.324 181.1ZM478.073 176.109C484.813 174.216 491.091 171.827 496.896 169.013L496.024 167.213C490.329 169.974 484.162 172.322 477.533 174.184L478.073 176.109ZM514.01 158.514C519.507 154.31 524.358 149.645 528.544 144.629L527.009 143.348C522.919 148.248 518.176 152.81 512.795 156.925L514.01 158.514ZM539.53 127.768C542.539 121.652 544.741 115.263 546.116 108.741L544.159 108.329C542.819 114.686 540.671 120.918 537.736 126.885L539.53 127.768ZM547.722 88.6706C547.396 82.0027 546.214 75.3502 544.153 68.8584L542.247 69.4635C544.255 75.7896 545.407 82.2716 545.725 88.7683L547.722 88.6706ZM535.69 50.6C532.24 45.0802 528.043 39.8145 523.084 34.9127L521.678 36.3349C526.528 41.1297 530.628 46.2742 533.994 51.66L535.69 50.6ZM507.369 22.3363C502.022 18.869 496.132 15.7296 489.691 12.9818L488.906 14.8214C495.246 17.5261 501.034 20.6122 506.281 24.0144L507.369 22.3363ZM470.625 6.47242C464.484 4.84318 457.965 3.51901 451.062 2.53532L450.78 4.51531C457.609 5.48846 464.051 6.79739 470.112 8.40553L470.625 6.47242ZM431.171 0.7184C427.855 0.573759 424.465 0.49997 421 0.499969V2.49997C424.436 2.49997 427.797 2.57315 431.084 2.7165L431.171 0.7184Z" fill="#38B077"/>
</svg>
