<svg width="112" height="324" viewBox="0 0 112 324" fill="none" xmlns="http://www.w3.org/2000/svg">
<path d="M12 1C12 0.447717 11.5523 1.01328e-06 11 0C10.4477 -9.53674e-07 10 0.447713 10 0.999998L12 1ZM106 323.5L111.449 313.32L99.9082 313.691L106 323.5ZM10.0913 4.71221C10.1194 5.26378 10.5892 5.68816 11.1408 5.6601C11.6924 5.63204 12.1168 5.16215 12.0887 4.61058L10.0913 4.71221ZM12.8707 11.4945C12.7691 10.9516 12.2467 10.5939 11.7038 10.6955C11.161 10.7971 10.8033 11.3195 10.9049 11.8624L12.8707 11.4945ZM12.9423 18.8877C13.1546 19.3976 13.74 19.6388 14.2498 19.4266C14.7597 19.2144 15.001 18.629 14.7888 18.1191L12.9423 18.8877ZM18.2538 23.9128C17.8985 23.4901 17.2677 23.4354 16.8449 23.7908C16.4221 24.1461 16.3675 24.7769 16.7228 25.1997L18.2538 23.9128ZM22.3983 29.9747C22.8741 30.2552 23.4871 30.0968 23.7676 29.621C24.048 29.1453 23.8897 28.5322 23.4139 28.2518L22.3983 29.9747ZM29.7324 30.8895C29.2014 30.7378 28.6479 31.0453 28.4962 31.5763C28.3445 32.1074 28.652 32.6608 29.183 32.8125L29.7324 30.8895ZM36.2962 34.2303C36.8438 34.3019 37.3458 33.916 37.4174 33.3683C37.4889 32.8207 37.103 32.3187 36.5554 32.2471L36.2962 34.2303ZM43.5631 32.8643C43.0117 32.8336 42.5398 33.2557 42.5091 33.8071C42.4783 34.3586 42.9005 34.8305 43.4519 34.8612L43.5631 32.8643ZM50.5949 35.1466C51.1469 35.1639 51.6084 34.7304 51.6257 34.1784C51.643 33.6264 51.2095 33.1649 50.6575 33.1476L50.5949 35.1466ZM57.7869 33.4021C57.2352 33.3766 56.7672 33.8031 56.7417 34.3548C56.7162 34.9065 57.1428 35.3744 57.6945 35.3999L57.7869 33.4021ZM64.7455 35.8875C65.2951 35.9417 65.7846 35.5401 65.8388 34.9905C65.893 34.4409 65.4914 33.9514 64.9418 33.8972L64.7455 35.8875ZM72.0741 34.9112C71.5319 34.8062 71.0072 35.1605 70.9021 35.7027C70.797 36.2449 71.1514 36.7696 71.6936 36.8747L72.0741 34.9112ZM78.4369 38.6504C78.9591 38.8304 79.5283 38.5531 79.7083 38.031C79.8883 37.5089 79.611 36.9397 79.0889 36.7596L78.4369 38.6504ZM85.7339 39.7482C85.2547 39.4737 84.6437 39.6396 84.3692 40.1188C84.0946 40.5981 84.2606 41.2091 84.7398 41.4836L85.7339 39.7482ZM90.3176 45.5333C90.7263 45.9049 91.3587 45.8748 91.7302 45.4661C92.1018 45.0575 92.0717 44.425 91.663 44.0535L90.3176 45.5333ZM96.4943 49.4909C96.1716 49.0427 95.5467 48.9409 95.0985 49.2636C94.6502 49.5863 94.5485 50.2112 94.8712 50.6594L96.4943 49.4909ZM98.3962 56.6396C98.6355 57.1373 99.2331 57.3467 99.7308 57.1074C100.228 56.868 100.438 56.2705 100.199 55.7728L98.3962 56.6396ZM102.882 62.5494C102.713 62.0238 102.149 61.7351 101.624 61.9047C101.098 62.0742 100.809 62.6378 100.979 63.1634L102.882 62.5494ZM102.766 69.9218C102.881 70.4619 103.412 70.8066 103.952 70.6916C104.493 70.5766 104.837 70.0455 104.722 69.5053L102.766 69.9218ZM105.934 76.6176C105.861 76.07 105.359 75.6847 104.812 75.7568C104.264 75.829 103.879 76.3314 103.951 76.8789L105.934 76.6176ZM104.645 83.8422C104.684 84.3932 105.162 84.8084 105.713 84.7696C106.264 84.7309 106.679 84.2528 106.641 83.7019L104.645 83.8422ZM106.961 90.7945C106.949 90.2423 106.491 89.8044 105.939 89.8164C105.387 89.8283 104.949 90.2856 104.961 90.8378L106.961 90.7945ZM104.977 98.2031C104.97 98.7553 105.412 99.2087 105.964 99.2158C106.516 99.2228 106.97 98.7809 106.977 98.2286L104.977 98.2031ZM106.791 105.298C106.814 104.746 106.385 104.281 105.833 104.258C105.281 104.236 104.815 104.665 104.793 105.217L106.791 105.298ZM104.387 112.337C104.346 112.888 104.759 113.368 105.31 113.409C105.861 113.45 106.341 113.037 106.382 112.486L104.387 112.337ZM105.723 119.453C105.787 118.904 105.394 118.408 104.845 118.344C104.296 118.281 103.8 118.674 103.737 119.222L105.723 119.453ZM102.739 126.252C102.646 126.796 103.012 127.313 103.557 127.406C104.101 127.498 104.618 127.132 104.71 126.588L102.739 126.252ZM103.267 133.642C103.397 133.106 103.067 132.565 102.531 132.434C101.994 132.304 101.453 132.634 101.323 133.17L103.267 133.642ZM99.3773 139.882C99.1977 140.404 99.4756 140.973 99.9979 141.153C100.52 141.332 101.089 141.054 101.269 140.532L99.3773 139.882ZM98.5219 147.184C98.7666 146.689 98.5636 146.089 98.0685 145.845C97.5734 145.6 96.9737 145.803 96.729 146.298L98.5219 147.184ZM93.1802 152.181C92.8522 152.626 92.9465 153.252 93.3909 153.58C93.8352 153.908 94.4613 153.813 94.7893 153.369L93.1802 152.181ZM89.8505 158.703C90.271 158.345 90.3217 157.713 89.9637 157.293C89.6056 156.872 88.9745 156.822 88.554 157.18L89.8505 158.703ZM82.8349 160.912C82.3383 161.154 82.1314 161.752 82.373 162.249C82.6145 162.746 83.2129 162.953 83.7096 162.711L82.8349 160.912ZM76.841 165.142C77.3778 165.012 77.7076 164.471 77.5777 163.935C77.4478 163.398 76.9073 163.068 76.3705 163.198L76.841 165.142ZM69.5192 164.287C68.9691 164.337 68.5634 164.823 68.6128 165.373C68.6623 165.923 69.1484 166.329 69.6984 166.279L69.5192 164.287ZM62.5214 166.588C63.0737 166.585 63.5189 166.134 63.5158 165.582C63.5126 165.03 63.0624 164.585 62.5101 164.588L62.5214 166.588ZM55.446 164.488C54.8939 164.474 54.4348 164.91 54.4205 165.462C54.4063 166.014 54.8423 166.473 55.3944 166.488L55.446 164.488ZM48.3136 166.332C48.8658 166.338 49.3182 165.895 49.3239 165.342C49.3296 164.79 48.8866 164.338 48.3344 164.332L48.3136 166.332ZM41.1685 164.457C40.617 164.487 40.1941 164.958 40.2239 165.51C40.2537 166.061 40.7249 166.484 41.2764 166.454L41.1685 164.457ZM34.3576 167.215C34.9014 167.119 35.2639 166.6 35.1674 166.056C35.0708 165.512 34.5517 165.15 34.0079 165.246L34.3576 167.215ZM26.9874 167.144C26.4711 167.34 26.2114 167.918 26.4074 168.434C26.6034 168.95 27.1809 169.21 27.6972 169.014L26.9874 167.144ZM21.6227 172.168C22.0784 171.856 22.1951 171.234 21.8831 170.778C21.5712 170.322 20.9489 170.206 20.4931 170.517L21.6227 172.168ZM15.0322 175.313C14.6622 175.723 14.6947 176.355 15.1048 176.725C15.5148 177.095 16.1471 177.063 16.5171 176.653L15.0322 175.313ZM12.4519 182.206C12.7353 181.732 12.5807 181.118 12.1067 180.834C11.6326 180.551 11.0186 180.706 10.7352 181.18L12.4519 182.206ZM7.50561 187.657C7.29368 188.167 7.53531 188.752 8.04532 188.964C8.55532 189.176 9.14056 188.935 9.3525 188.425L7.50561 187.657ZM7.0407 194.989C7.19806 194.46 6.89646 193.903 6.36706 193.745C5.83767 193.588 5.28095 193.89 5.1236 194.419L7.0407 194.989ZM3.37266 201.324C3.25678 201.864 3.60059 202.396 4.14059 202.512C4.68058 202.628 5.21226 202.284 5.32814 201.744L3.37266 201.324ZM4.06608 208.665C4.14967 208.119 3.77487 207.609 3.22895 207.525C2.68302 207.442 2.17271 207.817 2.08912 208.363L4.06608 208.665ZM1.16425 215.587C1.1066 216.136 1.50514 216.628 2.05441 216.686C2.60367 216.744 3.09568 216.345 3.15332 215.796L1.16425 215.587ZM2.56336 222.658C2.60099 222.107 2.18481 221.63 1.63381 221.593C1.08281 221.555 0.605634 221.971 0.56801 222.522L2.56336 222.658ZM0.193281 229.686C0.172678 230.238 0.603379 230.702 1.15528 230.723C1.70718 230.743 2.17129 230.312 2.19189 229.761L0.193281 229.686ZM2.02157 236.797C2.02809 236.245 1.5857 235.792 1.03345 235.785C0.481206 235.778 0.0282333 236.221 0.0217088 236.773L2.02157 236.797ZM0.0332764 244.061C0.0437592 244.613 0.499892 245.053 1.05208 245.042C1.60426 245.032 2.0434 244.575 2.03292 244.023L0.0332764 244.061ZM2.29194 250.666C2.25867 250.115 1.7848 249.695 1.23351 249.728C0.682232 249.761 0.2623 250.235 0.295569 250.786L2.29194 250.666ZM0.890623 257.73C0.952656 258.279 1.44783 258.674 1.99662 258.612C2.54541 258.55 2.94 258.054 2.87797 257.506L0.890623 257.73ZM3.84616 264.201C3.74881 263.658 3.22919 263.296 2.68555 263.393C2.14192 263.491 1.78012 264.01 1.87747 264.554L3.84616 264.201ZM3.35538 271.273C3.49696 271.807 4.04449 272.125 4.57831 271.983C5.11214 271.842 5.43012 271.294 5.28854 270.76L3.35538 271.273ZM7.33063 277.133C7.13308 276.617 6.55484 276.359 6.0391 276.556C5.52335 276.754 5.26541 277.332 5.46296 277.848L7.33063 277.133ZM8.371 284.148C8.63824 284.631 9.24669 284.807 9.73001 284.539C10.2133 284.272 10.3885 283.664 10.1213 283.18L8.371 284.148ZM13.797 288.666C13.4488 288.237 12.819 288.172 12.3903 288.52C11.9617 288.868 11.8965 289.498 12.2447 289.927L13.797 288.666ZM17.1836 294.869C17.6133 295.216 18.2429 295.149 18.5898 294.719C18.9368 294.29 18.8698 293.66 18.4401 293.313L17.1836 294.869ZM23.9876 296.871C23.4936 296.624 22.893 296.825 22.6462 297.319C22.3995 297.813 22.6 298.413 23.0941 298.66L23.9876 296.871ZM29.6242 301.158C30.1559 301.307 30.708 300.997 30.8573 300.465C31.0066 299.934 30.6965 299.381 30.1648 299.232L29.6242 301.158ZM36.693 300.532C36.1452 300.462 35.6444 300.85 35.5745 301.397C35.5046 301.945 35.892 302.446 36.4399 302.516L36.693 300.532ZM43.3495 303.007C43.9017 303.019 44.3589 302.581 44.3707 302.029C44.3825 301.477 43.9444 301.02 43.3923 301.008L43.3495 303.007ZM50.1341 300.895C49.5825 300.923 49.1575 301.392 49.1849 301.943C49.2123 302.495 49.6816 302.92 50.2332 302.893L50.1341 300.895ZM57.0774 302.391C57.6274 302.34 58.0319 301.853 57.981 301.303C57.93 300.753 57.443 300.349 56.893 300.4L57.0774 302.391ZM63.6575 299.699C63.1086 299.76 62.7126 300.254 62.7732 300.803C62.8337 301.352 63.3278 301.748 63.8768 301.687L63.6575 299.699ZM70.6576 300.953C71.207 300.898 71.6073 300.407 71.5515 299.858C71.4958 299.308 71.0052 298.908 70.4557 298.964L70.6576 300.953ZM77.2711 298.393C76.7198 298.426 76.2995 298.899 76.3325 299.451C76.3654 300.002 76.839 300.422 77.3903 300.389L77.2711 298.393ZM84.1392 300.261C84.6912 300.279 85.1533 299.846 85.1713 299.294C85.1893 298.742 84.7564 298.28 84.2045 298.262L84.1392 300.261ZM91.1462 299.054C90.6065 298.937 90.074 299.279 89.9567 299.819C89.8395 300.359 90.182 300.891 90.7217 301.009L91.1462 299.054ZM96.7396 303.304C97.2118 303.59 97.8268 303.439 98.1131 302.967C98.3994 302.495 98.2486 301.88 97.7763 301.593L96.7396 303.304ZM102.958 306.543C102.65 306.084 102.029 305.962 101.57 306.27C101.112 306.578 100.99 307.199 101.297 307.658L102.958 306.543ZM103.888 313.608C104.029 314.142 104.577 314.46 105.111 314.319C105.645 314.177 105.963 313.63 105.822 313.096L103.888 313.608ZM106.885 319.921C106.848 319.37 106.371 318.953 105.82 318.99C105.269 319.027 104.852 319.504 104.889 320.055L106.885 319.921ZM10 0.999998C10 2.28526 10.0307 3.52204 10.0913 4.71221L12.0887 4.61058C12.03 3.45627 12 2.25344 12 1L10 0.999998ZM10.9049 11.8624C11.3956 14.4844 12.0799 16.8157 12.9423 18.8877L14.7888 18.1191C13.9866 16.192 13.3392 13.9972 12.8707 11.4945L10.9049 11.8624ZM16.7228 25.1997C18.3751 27.1655 20.2851 28.7291 22.3983 29.9747L23.4139 28.2518C21.4815 27.1127 19.7498 25.6926 18.2538 23.9128L16.7228 25.1997ZM29.183 32.8125C31.4422 33.458 33.8274 33.9075 36.2962 34.2303L36.5554 32.2471C34.1563 31.9335 31.8725 31.5009 29.7324 30.8895L29.183 32.8125ZM43.4519 34.8612C45.7934 34.9917 48.186 35.0712 50.5949 35.1466L50.6575 33.1476C48.2479 33.0721 45.8775 32.9933 43.5631 32.8643L43.4519 34.8612ZM57.6945 35.3999C60.0571 35.5091 62.4141 35.6576 64.7455 35.8875L64.9418 33.8972C62.5644 33.6627 60.1703 33.5122 57.7869 33.4021L57.6945 35.3999ZM71.6936 36.8747C74.0049 37.3226 76.2602 37.8998 78.4369 38.6504L79.0889 36.7596C76.809 35.9735 74.4611 35.3738 72.0741 34.9112L71.6936 36.8747ZM84.7398 41.4836C86.7019 42.6076 88.5684 43.943 90.3176 45.5333L91.663 44.0535C89.8009 42.3605 87.8155 40.9406 85.7339 39.7482L84.7398 41.4836ZM94.8712 50.6594C96.1453 52.4293 97.3255 54.4133 98.3962 56.6396L100.199 55.7728C99.08 53.447 97.8408 51.3612 96.4943 49.4909L94.8712 50.6594ZM100.979 63.1634C101.652 65.2498 102.25 67.4982 102.766 69.9218L104.722 69.5053C104.193 67.0204 103.578 64.7057 102.882 62.5494L100.979 63.1634ZM103.951 76.8789C104.241 79.0788 104.474 81.3977 104.645 83.8422L106.641 83.7019C106.466 81.2198 106.229 78.8604 105.934 76.6176L103.951 76.8789ZM104.961 90.8378C104.987 92.0323 105 93.2528 105 94.5H107C107 93.2388 106.987 92.0038 106.961 90.7945L104.961 90.8378ZM105 94.5C105 95.7565 104.992 96.9908 104.977 98.2031L106.977 98.2286C106.992 97.0076 107 95.7648 107 94.5H105ZM104.793 105.217C104.693 107.691 104.557 110.063 104.387 112.337L106.382 112.486C106.554 110.188 106.691 107.794 106.791 105.298L104.793 105.217ZM103.737 119.222C103.449 121.697 103.116 124.038 102.739 126.252L104.71 126.588C105.094 124.336 105.432 121.96 105.723 119.453L103.737 119.222ZM101.323 133.17C100.736 135.589 100.085 137.821 99.3773 139.882L101.269 140.532C101.999 138.408 102.666 136.115 103.267 133.642L101.323 133.17ZM96.729 146.298C95.631 148.519 94.4439 150.469 93.1802 152.181L94.7893 153.369C96.1288 151.554 97.3761 149.502 98.5219 147.184L96.729 146.298ZM88.554 157.18C86.7519 158.714 84.8395 159.938 82.8349 160.912L83.7096 162.711C85.8586 161.666 87.9141 160.351 89.8505 158.703L88.554 157.18ZM76.3705 163.198C74.1605 163.733 71.8707 164.076 69.5192 164.287L69.6984 166.279C72.1252 166.061 74.5152 165.705 76.841 165.142L76.3705 163.198ZM62.5101 164.588C60.1801 164.601 57.8219 164.55 55.446 164.488L55.3944 166.488C57.7724 166.549 60.1576 166.601 62.5214 166.588L62.5101 164.588ZM48.3344 164.332C45.934 164.307 43.537 164.329 41.1685 164.457L41.2764 166.454C43.5867 166.33 45.9374 166.307 48.3136 166.332L48.3344 164.332ZM34.0079 165.246C31.6096 165.672 29.2602 166.281 26.9874 167.144L27.6972 169.014C29.8346 168.203 32.0607 167.623 34.3576 167.215L34.0079 165.246ZM20.4931 170.517C18.5715 171.833 16.745 173.415 15.0322 175.313L16.5171 176.653C18.1249 174.871 19.8324 173.393 21.6227 172.168L20.4931 170.517ZM10.7352 181.18C9.57662 183.118 8.49771 185.27 7.50561 187.657L9.3525 188.425C10.3109 186.118 11.3472 184.054 12.4519 182.206L10.7352 181.18ZM5.1236 194.419C4.4849 196.568 3.90016 198.866 3.37266 201.324L5.32814 201.744C5.84572 199.332 6.41794 197.084 7.0407 194.989L5.1236 194.419ZM2.08912 208.363C1.73867 210.651 1.42972 213.058 1.16425 215.587L3.15332 215.796C3.41574 213.296 3.72074 210.921 4.06608 208.665L2.08912 208.363ZM0.56801 222.522C0.411175 224.819 0.28587 227.206 0.193281 229.686L2.19189 229.761C2.28375 227.3 2.40801 224.934 2.56336 222.658L0.56801 222.522ZM0.0217088 236.773C0.00727534 237.995 0 239.237 0 240.5H2C2 239.245 2.00723 238.01 2.02157 236.797L0.0217088 236.773ZM0 240.5C0 241.71 0.011165 242.896 0.0332764 244.061L2.03292 244.023C2.01105 242.872 2 241.697 2 240.5H0ZM0.295569 250.786C0.44166 253.207 0.640821 255.52 0.890623 257.73L2.87797 257.506C2.63232 255.333 2.43606 253.054 2.29194 250.666L0.295569 250.786ZM1.87747 264.554C2.30296 266.93 2.79692 269.167 3.35538 271.273L5.28854 270.76C4.74513 268.711 4.26272 266.528 3.84616 264.201L1.87747 264.554ZM5.46296 277.848C6.33974 280.137 7.31166 282.232 8.371 284.148L10.1213 283.18C9.11008 281.352 8.17664 279.341 7.33063 277.133L5.46296 277.848ZM12.2447 289.927C13.7798 291.816 15.4317 293.454 17.1836 294.869L18.4401 293.313C16.7982 291.987 15.2452 290.448 13.797 288.666L12.2447 289.927ZM23.0941 298.66C25.1907 299.707 27.3754 300.526 29.6242 301.158L30.1648 299.232C28.0251 298.631 25.9601 297.856 23.9876 296.871L23.0941 298.66ZM36.4399 302.516C38.7092 302.805 41.0192 302.958 43.3495 303.007L43.3923 301.008C41.1199 300.959 38.8812 300.811 36.693 300.532L36.4399 302.516ZM50.2332 302.893C52.516 302.779 54.8037 302.602 57.0774 302.391L56.893 300.4C54.6384 300.609 52.3804 300.784 50.1341 300.895L50.2332 302.893ZM63.8768 301.687C66.177 301.434 68.4397 301.178 70.6576 300.953L70.4557 298.964C68.2265 299.19 65.9505 299.447 63.6575 299.699L63.8768 301.687ZM77.3903 300.389C79.7413 300.249 81.9982 300.191 84.1392 300.261L84.2045 298.262C81.9845 298.19 79.6631 298.25 77.2711 298.393L77.3903 300.389ZM90.7217 301.009C92.9673 301.496 94.9824 302.238 96.7396 303.304L97.7763 301.593C95.7907 300.39 93.558 299.578 91.1462 299.054L90.7217 301.009ZM101.297 307.658C102.381 309.271 103.259 311.23 103.888 313.608L105.822 313.096C105.144 310.535 104.182 308.366 102.958 306.543L101.297 307.658Z" fill="#38B077"/>
</svg>
