<svg width="547" height="625" viewBox="0 0 547 625" fill="none" xmlns="http://www.w3.org/2000/svg">
<path d="M2 1.5C2 0.947715 1.55228 0.5 1 0.5C0.447715 0.5 0 0.947715 0 1.5H2ZM540.5 624.5L546.081 614.391L534.536 614.612L540.5 624.5ZM0.52756 12.229C0.583986 12.7784 1.0751 13.1781 1.6245 13.1216C2.17389 13.0652 2.57352 12.5741 2.51709 12.0247L0.52756 12.229ZM7.12408 31.5772C6.9191 31.0643 6.3372 30.8147 5.82436 31.0197C5.31152 31.2247 5.06194 31.8066 5.26692 32.3194L7.12408 31.5772ZM16.4454 49.9753C16.8245 50.3769 17.4574 50.3951 17.859 50.016C18.2606 49.6369 18.2789 49.004 17.8998 48.6024L16.4454 49.9753ZM34.2043 60.5842C33.7122 60.3336 33.11 60.5294 32.8594 61.0215C32.6088 61.5136 32.8045 62.1158 33.2967 62.3664L34.2043 60.5842ZM52.7446 69.4442C53.2804 69.5781 53.8233 69.2523 53.9572 68.7165C54.0911 68.1807 53.7653 67.6378 53.2295 67.5039L52.7446 69.4442ZM73.4472 70.9588C72.8979 70.901 72.4058 71.2994 72.3481 71.8487C72.2903 72.3979 72.6887 72.89 73.238 72.9478L73.4472 70.9588ZM93.9967 74.1377C94.5489 74.1466 95.0038 73.7062 95.0127 73.154C95.0216 72.6017 94.5812 72.1469 94.029 72.138L93.9967 74.1377ZM114.653 71.8307C114.101 71.8539 113.673 72.32 113.696 72.8718C113.719 73.4236 114.185 73.8521 114.737 73.8289L114.653 71.8307ZM135.389 72.5322C135.94 72.4876 136.35 72.0052 136.305 71.4547C136.261 70.9042 135.778 70.4941 135.228 70.5387L135.389 72.5322ZM155.748 68.5904C155.199 68.6492 154.801 69.142 154.86 69.6911C154.919 70.2403 155.412 70.6378 155.961 70.579L155.748 68.5904ZM176.478 68.1994C177.026 68.1317 177.416 67.6325 177.348 67.0844C177.28 66.5362 176.781 66.1468 176.233 66.2145L176.478 68.1994ZM196.705 63.5838C196.157 63.6563 195.772 64.1589 195.844 64.7064C195.917 65.2539 196.419 65.639 196.967 65.5665L196.705 63.5838ZM217.447 62.8222C217.994 62.7485 218.378 62.2451 218.305 61.6977C218.231 61.1504 217.727 60.7664 217.18 60.8401L217.447 62.8222ZM237.671 58.1089C237.124 58.1807 236.738 58.6827 236.809 59.2303C236.881 59.7779 237.383 60.1637 237.931 60.092L237.671 58.1089ZM258.426 57.4954C258.974 57.4288 259.365 56.9304 259.298 56.3821C259.232 55.8339 258.733 55.4434 258.185 55.51L258.426 57.4954ZM278.727 53.1647C278.178 53.2229 277.78 53.7152 277.838 54.2644C277.896 54.8136 278.388 55.2117 278.938 55.1536L278.727 53.1647ZM299.468 53.1972C300.019 53.1512 300.427 52.6678 300.381 52.1174C300.336 51.5671 299.852 51.1582 299.302 51.2042L299.468 53.1972ZM319.913 49.7779C319.361 49.8074 318.938 50.2783 318.968 50.8298C318.997 51.3813 319.468 51.8045 320.02 51.775L319.913 49.7779ZM340.606 51.066C341.158 51.0584 341.6 50.6046 341.592 50.0524C341.585 49.5002 341.131 49.0586 340.579 49.0662L340.606 51.066ZM361.291 49.3004C360.739 49.279 360.275 49.7091 360.253 50.261C360.232 50.8129 360.662 51.2775 361.214 51.2989L361.291 49.3004ZM381.741 52.7689C382.29 52.8282 382.783 52.4312 382.842 51.8821C382.902 51.333 382.505 50.8398 381.955 50.7805L381.741 52.7689ZM402.437 53.8975C401.896 53.7885 401.368 54.1389 401.259 54.6803C401.15 55.2217 401.501 55.7491 402.042 55.8581L402.437 53.8975ZM421.911 61.0737C422.435 61.2477 423.001 60.9637 423.175 60.4395C423.349 59.9153 423.065 59.3494 422.541 59.1755L421.911 61.0737ZM441.737 67.2137C441.247 66.959 440.643 67.1497 440.389 67.6398C440.134 68.1298 440.325 68.7336 440.815 68.9883L441.737 67.2137ZM457.933 80.077C458.364 80.4225 458.993 80.3533 459.338 79.9224C459.684 79.4915 459.615 78.8622 459.184 78.5167L457.933 80.077ZM473.894 93.1893C473.548 92.7589 472.918 92.6905 472.488 93.0366C472.057 93.3826 471.989 94.0121 472.335 94.4425L473.894 93.1893ZM483.344 111.594C483.593 112.087 484.195 112.284 484.687 112.035C485.18 111.786 485.378 111.184 485.129 110.691L483.344 111.594ZM492.771 130.019C492.612 129.49 492.055 129.189 491.526 129.348C490.997 129.507 490.696 130.064 490.855 130.593L492.771 130.019ZM495.289 150.522C495.373 151.068 495.883 151.442 496.429 151.358C496.975 151.274 497.349 150.764 497.265 150.218L495.289 150.522ZM499.259 170.74C499.234 170.188 498.766 169.761 498.214 169.786C497.663 169.812 497.236 170.279 497.261 170.831L499.259 170.74ZM497.253 191.704C497.225 192.255 497.65 192.725 498.202 192.752C498.754 192.779 499.223 192.354 499.25 191.803L497.253 191.704ZM497.177 211.451C497.268 210.906 496.9 210.39 496.356 210.299C495.811 210.208 495.295 210.576 495.204 211.121L497.177 211.451ZM490.598 230.097C490.426 230.622 490.711 231.187 491.236 231.359C491.761 231.531 492.326 231.245 492.498 230.72L490.598 230.097ZM484.594 248.98C484.861 248.497 484.687 247.888 484.204 247.62C483.721 247.352 483.112 247.527 482.844 248.01L484.594 248.98ZM471.647 263.938C471.282 264.352 471.323 264.984 471.737 265.349C472.152 265.714 472.784 265.673 473.149 265.259L471.647 263.938ZM458.473 278.685C458.917 278.357 459.011 277.731 458.683 277.287C458.355 276.842 457.729 276.748 457.285 277.076L458.473 278.685ZM440.536 287.14C440.039 287.382 439.832 287.98 440.074 288.477C440.315 288.974 440.914 289.181 441.41 288.939L440.536 287.14ZM422.9 296.279C423.426 296.111 423.716 295.549 423.548 295.022C423.38 294.496 422.818 294.206 422.292 294.374L422.9 296.279ZM403.244 299.282C402.703 299.392 402.353 299.92 402.463 300.461C402.573 301.002 403.101 301.352 403.643 301.242L403.244 299.282ZM384.049 304.375C384.597 304.308 384.988 303.81 384.921 303.262C384.855 302.714 384.357 302.323 383.809 302.389L384.049 304.375ZM364.2 304.133C363.649 304.167 363.229 304.64 363.262 305.192C363.295 305.743 363.769 306.163 364.32 306.13L364.2 304.133ZM344.546 306.851C345.099 306.843 345.54 306.388 345.531 305.836C345.523 305.284 345.069 304.843 344.516 304.851L344.546 306.851ZM324.799 304.799C324.247 304.789 323.791 305.229 323.781 305.781C323.771 306.333 324.21 306.789 324.762 306.799L324.799 304.799ZM304.982 306.175C305.534 306.199 306 305.771 306.024 305.219C306.048 304.668 305.62 304.201 305.068 304.177L304.982 306.175ZM285.333 303.146C284.782 303.113 284.308 303.533 284.275 304.084C284.241 304.635 284.661 305.109 285.213 305.142L285.333 303.146ZM265.46 303.839C266.011 303.878 266.49 303.463 266.529 302.912C266.567 302.361 266.152 301.883 265.602 301.844L265.46 303.839ZM245.882 300.394C245.331 300.352 244.851 300.765 244.809 301.316C244.768 301.867 245.181 302.347 245.731 302.388L245.882 300.394ZM226.031 300.907C226.582 300.948 227.061 300.534 227.102 299.984C227.143 299.433 226.73 298.953 226.179 298.913L226.031 300.907ZM206.445 297.512C205.894 297.475 205.417 297.892 205.381 298.443C205.344 298.994 205.761 299.471 206.312 299.507L206.445 297.512ZM186.571 298.312C187.122 298.341 187.593 297.918 187.623 297.366C187.652 296.815 187.228 296.344 186.677 296.315L186.571 298.312ZM166.883 295.461C166.331 295.444 165.87 295.877 165.852 296.429C165.834 296.981 166.268 297.443 166.82 297.46L166.883 295.461ZM147.069 297.117C147.621 297.118 148.07 296.671 148.07 296.118C148.071 295.566 147.624 295.118 147.071 295.117L147.069 297.117ZM127.256 295.491C126.704 295.514 126.275 295.98 126.298 296.532C126.321 297.084 126.787 297.513 127.339 297.49L127.256 295.491ZM107.673 298.849C108.222 298.794 108.623 298.304 108.568 297.754C108.513 297.205 108.023 296.804 107.474 296.859L107.673 298.849ZM87.8164 299.595C87.2731 299.694 86.9134 300.216 87.0129 300.759C87.1124 301.302 87.6335 301.662 88.1767 301.562L87.8164 299.595ZM69.0815 306.13C69.61 305.969 69.9083 305.411 69.7478 304.882C69.5873 304.354 69.0289 304.055 68.5004 304.216L69.0815 306.13ZM49.979 311.394C49.4824 311.636 49.2759 312.234 49.5176 312.731C49.7594 313.227 50.3579 313.434 50.8545 313.192L49.979 311.394ZM34.3072 323.437C34.742 323.096 34.8184 322.468 34.4779 322.033C34.1373 321.598 33.5088 321.522 33.074 321.862L34.3072 323.437ZM19.0196 335.988C18.6827 336.426 18.7644 337.054 19.202 337.391C19.6397 337.727 20.2675 337.646 20.6044 337.208L19.0196 335.988ZM10.781 353.917C11.0022 353.411 10.7713 352.821 10.2652 352.6C9.75919 352.379 9.16964 352.61 8.94845 353.116L10.781 353.917ZM2.93498 372.047C2.81893 372.587 3.16257 373.119 3.70253 373.235C4.24248 373.351 4.77428 373.007 4.89033 372.467L2.93498 372.047ZM2.30515 391.823C2.33915 391.272 1.91984 390.797 1.3686 390.763C0.817367 390.729 0.342942 391.148 0.308946 391.7L2.30515 391.823ZM0.163751 412.319C0.181612 412.871 0.643572 413.304 1.19557 413.286C1.74756 413.268 2.18057 412.806 2.1627 412.254L0.163751 412.319ZM3.44376 431.384C3.38638 430.835 2.89457 430.436 2.34527 430.493C1.79598 430.551 1.3972 431.043 1.45459 431.592L3.44376 431.384ZM4.43593 451.41C4.5448 451.952 5.07198 452.302 5.61343 452.194C6.15488 452.085 6.50556 451.558 6.39669 451.016L4.43593 451.41ZM11.3273 469.893C11.1549 469.368 10.5898 469.083 10.0651 469.255C9.5404 469.427 9.25484 469.992 9.42727 470.517L11.3273 469.893ZM16.908 488.72C17.1571 489.213 17.7587 489.411 18.2516 489.162C18.7445 488.913 18.9422 488.311 18.6931 487.818L16.908 488.72ZM28.921 504.246C28.5864 503.807 27.959 503.722 27.5196 504.056C27.0801 504.391 26.9951 505.018 27.3297 505.458L28.921 504.246ZM40.8126 519.888C41.2288 520.251 41.8605 520.208 42.2235 519.792C42.5864 519.376 42.5433 518.744 42.127 518.381L40.8126 519.888ZM57.9222 529.574C57.4426 529.3 56.8318 529.467 56.5579 529.946C56.284 530.426 56.4507 531.037 56.9303 531.311L57.9222 529.574ZM74.8805 539.552C75.3998 539.74 75.9732 539.471 76.1612 538.952C76.3493 538.432 76.0808 537.859 75.5615 537.671L74.8805 539.552ZM94.2948 542.98C93.7547 542.865 93.2232 543.209 93.1077 543.749C92.9922 544.289 93.3364 544.821 93.8765 544.936L94.2948 542.98ZM113.374 547.998C113.923 548.056 114.416 547.658 114.474 547.109C114.532 546.56 114.134 546.067 113.585 546.009L113.374 547.998ZM133.121 547.256C132.568 547.242 132.109 547.678 132.095 548.23C132.081 548.782 132.517 549.241 133.069 549.255L133.121 547.256ZM152.81 549.132C153.362 549.113 153.794 548.649 153.774 548.098C153.755 547.546 153.292 547.114 152.74 547.133L152.81 549.132ZM172.36 545.962C171.81 546.008 171.4 546.49 171.445 547.041C171.49 547.591 171.973 548.001 172.523 547.956L172.36 545.962ZM192.06 545.992C192.608 545.927 193.001 545.43 192.936 544.882C192.872 544.333 192.375 543.941 191.826 544.005L192.06 545.992ZM211.254 541.449C210.707 541.528 210.328 542.035 210.407 542.581C210.486 543.128 210.993 543.507 211.54 543.428L211.254 541.449ZM230.988 540.418C231.533 540.328 231.902 539.814 231.812 539.269C231.723 538.724 231.209 538.355 230.664 538.444L230.988 540.418ZM250.041 535.126C249.498 535.222 249.135 535.741 249.231 536.285C249.328 536.829 249.847 537.191 250.391 537.095L250.041 535.126ZM269.731 533.58C270.274 533.48 270.632 532.958 270.532 532.415C270.431 531.872 269.91 531.513 269.367 531.614L269.731 533.58ZM288.684 528.01C288.141 528.111 287.783 528.634 287.885 529.177C287.986 529.719 288.509 530.077 289.051 529.975L288.684 528.01ZM308.386 526.38C308.929 526.28 309.288 525.759 309.189 525.216C309.089 524.672 308.567 524.313 308.024 524.413L308.386 526.38ZM327.373 520.935C326.829 521.03 326.465 521.548 326.56 522.092C326.655 522.636 327.173 523 327.717 522.905L327.373 520.935ZM347.035 519.672C347.581 519.585 347.953 519.072 347.866 518.527C347.779 517.981 347.267 517.61 346.721 517.696L347.035 519.672ZM366.204 514.81C365.657 514.885 365.273 515.388 365.348 515.936C365.422 516.483 365.926 516.866 366.473 516.792L366.204 514.81ZM385.996 514.439C386.546 514.383 386.945 513.891 386.888 513.342C386.832 512.792 386.34 512.393 385.791 512.45L385.996 514.439ZM405.443 510.832C404.892 510.864 404.471 511.337 404.504 511.889C404.536 512.44 405.01 512.861 405.561 512.828L405.443 510.832ZM425.144 512.234C425.696 512.235 426.144 511.788 426.145 511.236C426.146 510.683 425.699 510.235 425.147 510.234L425.144 512.234ZM444.852 511.045C444.302 510.998 443.817 511.406 443.77 511.956C443.723 512.506 444.131 512.99 444.682 513.037L444.852 511.045ZM464 515.768C464.541 515.879 465.069 515.531 465.18 514.99C465.291 514.449 464.942 513.92 464.401 513.809L464 515.768ZM483.398 519.258C482.882 519.061 482.304 519.32 482.107 519.835C481.91 520.351 482.168 520.929 482.684 521.127L483.398 519.258ZM499.937 529.862C500.399 530.165 501.019 530.037 501.322 529.575C501.625 529.114 501.496 528.494 501.035 528.19L499.937 529.862ZM516.107 541.036C515.736 540.627 515.103 540.597 514.695 540.968C514.286 541.34 514.256 541.972 514.627 542.381L516.107 541.036ZM525.778 558.234C526.04 558.72 526.646 558.902 527.133 558.64C527.619 558.378 527.8 557.771 527.538 557.285L525.778 558.234ZM535.1 575.604C534.939 575.076 534.379 574.779 533.851 574.941C533.323 575.103 533.026 575.662 533.188 576.19L535.1 575.604ZM537.426 595.054C537.51 595.6 538.02 595.974 538.566 595.891C539.112 595.807 539.487 595.297 539.403 594.751L537.426 595.054ZM541.272 614.171C541.247 613.62 540.78 613.193 540.228 613.218C539.676 613.243 539.249 613.71 539.274 614.262L541.272 614.171ZM0 1.5C0 5.24967 0.177814 8.82372 0.52756 12.229L2.51709 12.0247C2.17483 8.69222 2 5.18658 2 1.5H0ZM5.26692 32.3194C8.00644 39.1737 11.7692 45.0215 16.4454 49.9753L17.8998 48.6024C13.4003 43.8358 9.77238 38.2032 7.12408 31.5772L5.26692 32.3194ZM33.2967 62.3664C39.1549 65.3498 45.6685 67.6756 52.7446 69.4442L53.2295 67.5039C46.2714 65.7648 39.9041 63.487 34.2043 60.5842L33.2967 62.3664ZM73.238 72.9478C79.84 73.6423 86.7758 74.0212 93.9967 74.1377L94.029 72.138C86.8564 72.0223 79.9806 71.646 73.4472 70.9588L73.238 72.9478ZM114.737 73.8289C121.446 73.5471 128.341 73.1033 135.389 72.5322L135.228 70.5387C128.201 71.1081 121.332 71.5501 114.653 71.8307L114.737 73.8289ZM155.961 70.579C162.702 69.8574 169.549 69.0552 176.478 68.1994L176.233 66.2145C169.312 67.0693 162.476 67.8701 155.748 68.5904L155.961 70.579ZM196.967 65.5665C203.746 64.6694 210.581 63.7466 217.447 62.8222L217.18 60.8401C210.313 61.7647 203.481 62.687 196.705 63.5838L196.967 65.5665ZM237.931 60.092C244.758 59.1978 251.597 58.3247 258.426 57.4954L258.185 55.51C251.348 56.3403 244.503 57.2142 237.671 58.1089L237.931 60.092ZM278.938 55.1536C285.82 54.4252 292.67 53.7652 299.468 53.1972L299.302 51.2042C292.487 51.7735 285.621 52.435 278.727 53.1647L278.938 55.1536ZM320.02 51.775C326.972 51.4036 333.842 51.1584 340.606 51.066L340.579 49.0662C333.785 49.1589 326.888 49.4052 319.913 49.7779L320.02 51.775ZM361.214 51.2989C368.219 51.5697 375.071 52.0488 381.741 52.7689L381.955 50.7805C375.235 50.0549 368.336 49.5728 361.291 49.3004L361.214 51.2989ZM402.042 55.8581C408.94 57.2479 415.576 58.972 421.911 61.0737L422.541 59.1755C416.12 57.0453 409.405 55.3014 402.437 53.8975L402.042 55.8581ZM440.815 68.9883C446.938 72.1711 452.66 75.849 457.933 80.077L459.184 78.5167C453.801 74.2006 447.968 70.4524 441.737 67.2137L440.815 68.9883ZM472.335 94.4425C476.47 99.5849 480.154 105.285 483.344 111.594L485.129 110.691C481.878 104.261 478.118 98.4429 473.894 93.1893L472.335 94.4425ZM490.855 130.593C492.709 136.776 494.195 143.409 495.289 150.522L497.265 150.218C496.159 143.021 494.653 136.296 492.771 130.019L490.855 130.593ZM497.261 170.831C497.42 174.292 497.5 177.848 497.5 181.5H499.5C499.5 177.818 499.419 174.232 499.259 170.74L497.261 170.831ZM497.5 181.5C497.5 184.996 497.417 188.397 497.253 191.704L499.25 191.803C499.416 188.461 499.5 185.028 499.5 181.5H497.5ZM495.204 211.121C494.068 217.909 492.523 224.225 490.598 230.097L492.498 230.72C494.457 224.745 496.025 218.332 497.177 211.451L495.204 211.121ZM482.844 248.01C479.594 253.875 475.846 259.167 471.647 263.938L473.149 265.259C477.443 260.379 481.273 254.969 484.594 248.98L482.844 248.01ZM457.285 277.076C452.112 280.895 446.514 284.233 440.536 287.14L441.41 288.939C447.489 285.983 453.193 282.583 458.473 278.685L457.285 277.076ZM422.292 294.374C416.21 296.314 409.849 297.938 403.244 299.282L403.643 301.242C410.31 299.885 416.741 298.244 422.9 296.279L422.292 294.374ZM383.809 302.389C377.435 303.159 370.89 303.731 364.2 304.133L364.32 306.13C371.045 305.725 377.63 305.15 384.049 304.375L383.809 302.389ZM344.516 304.851C338.039 304.949 331.46 304.923 324.799 304.799L324.762 306.799C331.442 306.923 338.044 306.949 344.546 306.851L344.516 304.851ZM305.068 304.177C298.538 303.895 291.953 303.545 285.333 303.146L285.213 305.142C291.842 305.542 298.438 305.893 304.982 306.175L305.068 304.177ZM265.602 301.844C259.038 301.379 252.458 300.889 245.882 300.394L245.731 302.388C252.309 302.884 258.892 303.374 265.46 303.839L265.602 301.844ZM226.179 298.913C219.573 298.423 212.989 297.949 206.445 297.512L206.312 299.507C212.849 299.944 219.428 300.418 226.031 300.907L226.179 298.913ZM186.677 296.315C180.009 295.961 173.404 295.668 166.883 295.461L166.82 297.46C173.324 297.667 179.914 297.959 186.571 298.312L186.677 296.315ZM147.071 295.117C140.339 295.109 133.725 295.224 127.256 295.491L127.339 297.49C133.775 297.224 140.36 297.109 147.069 297.117L147.071 295.117ZM107.474 296.859C100.703 297.537 94.1395 298.437 87.8164 299.595L88.1767 301.562C94.4395 300.415 100.949 299.523 107.673 298.849L107.474 296.859ZM68.5004 304.216C61.9563 306.203 55.7651 308.577 49.979 311.394L50.8545 313.192C56.5338 310.427 62.6249 308.09 69.0815 306.13L68.5004 304.216ZM33.074 321.862C27.8325 325.968 23.1261 330.654 19.0196 335.988L20.6044 337.208C24.6044 332.012 29.1912 327.444 34.3072 323.437L33.074 321.862ZM8.94845 353.116C6.42866 358.881 4.41153 365.177 2.93498 372.047L4.89033 372.467C6.34091 365.718 8.31869 359.55 10.781 353.917L8.94845 353.116ZM0.308946 391.7C0.103915 395.024 0 398.457 0 402H2C2 398.496 2.10277 395.104 2.30515 391.823L0.308946 391.7ZM0 402C0 405.517 0.0549396 408.956 0.163751 412.319L2.1627 412.254C2.05461 408.914 2 405.496 2 402H0ZM1.45459 431.592C2.18383 438.572 3.18176 445.173 4.43593 451.41L6.39669 451.016C5.15582 444.844 4.16696 438.307 3.44376 431.384L1.45459 431.592ZM9.42727 470.517C11.5798 477.067 14.0805 483.125 16.908 488.72L18.6931 487.818C15.9136 482.318 13.4505 476.354 11.3273 469.893L9.42727 470.517ZM27.3297 505.458C31.4271 510.84 35.9335 515.634 40.8126 519.888L42.127 518.381C37.35 514.215 32.9364 509.52 28.921 504.246L27.3297 505.458ZM56.9303 531.311C62.5889 534.542 68.5853 537.272 74.8805 539.552L75.5615 537.671C69.3646 535.427 63.4733 532.744 57.9222 529.574L56.9303 531.311ZM93.8765 544.936C100.163 546.28 106.672 547.288 113.374 547.998L113.585 546.009C106.944 545.305 100.505 544.308 94.2948 542.98L93.8765 544.936ZM133.069 549.255C139.517 549.42 146.105 549.369 152.81 549.132L152.74 547.133C146.07 547.369 139.523 547.42 133.121 547.256L133.069 549.255ZM172.523 547.956C178.957 547.428 185.475 546.765 192.06 545.992L191.826 544.005C185.262 544.777 178.767 545.437 172.36 545.962L172.523 547.956ZM211.54 543.428C217.981 542.498 224.469 541.487 230.988 540.418L230.664 538.444C224.156 539.512 217.681 540.521 211.254 541.449L211.54 543.428ZM250.391 537.095C256.827 535.953 263.279 534.774 269.731 533.58L269.367 531.614C262.918 532.807 256.472 533.985 250.041 535.126L250.391 537.095ZM289.051 529.975C295.516 528.765 301.966 527.56 308.386 526.38L308.024 524.413C301.601 525.594 295.148 526.799 288.684 528.01L289.051 529.975ZM327.717 522.905C334.209 521.772 340.654 520.686 347.035 519.672L346.721 517.696C340.328 518.713 333.873 519.8 327.373 520.935L327.717 522.905ZM366.473 516.792C373.077 515.895 379.591 515.102 385.996 514.439L385.791 512.45C379.361 513.115 372.826 513.91 366.204 514.81L366.473 516.792ZM405.561 512.828C412.249 512.433 418.784 512.224 425.144 512.234L425.147 510.234C418.742 510.224 412.166 510.435 405.443 510.832L405.561 512.828ZM444.682 513.037C451.391 513.611 457.841 514.506 464 515.768L464.401 513.809C458.156 512.529 451.628 511.624 444.852 511.045L444.682 513.037ZM482.684 521.127C488.867 523.49 494.633 526.38 499.937 529.862L501.035 528.19C495.598 524.621 489.702 521.668 483.398 519.258L482.684 521.127ZM514.627 542.381C518.833 547.011 522.566 552.273 525.778 558.234L527.538 557.285C524.252 551.186 520.426 545.79 516.107 541.036L514.627 542.381ZM533.188 576.19C534.965 581.985 536.386 588.262 537.426 595.054L539.403 594.751C538.35 587.872 536.908 581.5 535.1 575.604L533.188 576.19ZM539.274 614.262C539.294 614.687 539.312 615.113 539.328 615.541L541.327 615.463C541.31 615.031 541.292 614.6 541.272 614.171L539.274 614.262Z" fill="#38B077"/>
</svg>
