<svg xmlns="http://www.w3.org/2000/svg" aria-hidden="true" style="position:absolute;width:0;height:0;overflow:hidden">
  <defs>
    <symbol id="logo" viewBox="0 0 39 32">
      <path fill="#00a2de" d="M38.933 9.254v5.754a.714.714 0 0 1-.36.615l-11.16 6.476c-.393.228-.835.342-1.278.342s-.886-.114-1.28-.343l-1.035-.6a7.842 7.842 0 0 0-.596-.347c-1.039-.539-2.228-.846-3.49-.846a7.542 7.542 0 0 0-4.085 1.192l-1.035.6a2.562 2.562 0 0 1-2.559 0L.895 15.622a.714.714 0 0 1-.36-.615V9.253c0-.557.628-.901 1.123-.615l14.924 8.659a.716.716 0 0 0 .078.04c.937.416 1.978.647 3.074.647s2.141-.232 3.077-.648a.716.716 0 0 0 .078-.04l14.922-8.658c.494-.287 1.123.058 1.123.615z" style="fill:var(--color1, #00a2de)"/>
      <path fill="#fed165" d="M19.733 14.287c4.08 0 7.388-3.198 7.388-7.143S23.813.001 19.733.001s-7.388 3.198-7.388 7.143 3.308 7.143 7.388 7.143z" style="fill:var(--color2, #fed165)"/>
      <path fill="#38b077" d="M19.733 31.972V32H.534v-6.369h12.643c3.622 0 6.556 2.839 6.556 6.341z" style="fill:var(--color3, #38b077)"/>
      <path fill="#38b077" d="M38.933 25.631V32H19.732v-.028c0-3.502 2.936-6.341 6.558-6.341h12.643z" style="fill:var(--color3, #38b077)"/>
    </symbol>
    <symbol id="logo-with-text" viewBox="0 0 111 32">
      <path fill="#101010" d="M42.889 11.899V5.066a.17.17 0 0 1 .17-.169h1a.17.17 0 0 1 .17.169v2.448a.17.17 0 0 0 .17.169h2.937a.17.17 0 0 0 .17-.169V5.066a.17.17 0 0 1 .17-.169h1a.17.17 0 0 1 .17.169v6.833a.17.17 0 0 1-.17.169h-1a.17.17 0 0 1-.17-.169V9.072a.17.17 0 0 0-.17-.169h-2.937a.17.17 0 0 0-.17.169v2.827a.17.17 0 0 1-.17.169h-1a.17.17 0 0 1-.17-.169zM49.93 11.838l2.637-6.832a.17.17 0 0 1 .159-.108h1.262a.17.17 0 0 1 .158.107l2.691 6.833a.168.168 0 0 1-.158.23h-1.143a.17.17 0 0 1-.159-.11l-.53-1.404a.171.171 0 0 0-.159-.11h-2.664a.17.17 0 0 0-.16.111l-.511 1.401a.169.169 0 0 1-.16.111h-1.102a.169.169 0 0 1-.159-.229v-.001zm2.548-2.526h1.738a.169.169 0 0 0 .158-.23l-.883-2.266a.17.17 0 0 0-.317.002l-.855 2.266c-.042.11.04.228.16.228zM57.922 11.899V5.066a.17.17 0 0 1 .17-.169h2.412c.705 0 1.272.153 1.703.458.44.312.656.776.647 1.391a1.26 1.26 0 0 1-.11.502 1.852 1.852 0 0 1-.673.79.168.168 0 0 0 .017.291c.253.128.471.305.653.533.254.317.381.705.381 1.163 0 .403-.102.758-.306 1.065s-.496.547-.874.72c-.378.172-.825.259-1.34.259h-2.51a.17.17 0 0 1-.17-.169zm1.34-4.149a.17.17 0 0 0 .17.169h.877c.251 0 .469-.041.654-.123s.33-.201.433-.356a.983.983 0 0 0 .155-.556c0-.314-.109-.554-.327-.72s-.53-.248-.935-.248h-.856a.17.17 0 0 0-.17.169V7.75zm0 3.129a.17.17 0 0 0 .17.169h.959c.45 0 .786-.09 1.01-.269s.335-.448.335-.807c0-.358-.111-.621-.333-.809s-.557-.282-1.007-.282h-.964a.17.17 0 0 0-.17.169v1.829h-.001zM68.574 11.899V9.427a.17.17 0 0 0-.212-.164c-.225.054-.445.1-.662.136a5.45 5.45 0 0 1-.91.072c-.557 0-1.033-.091-1.43-.274s-.701-.469-.914-.858c-.213-.389-.319-.896-.319-1.521V5.066a.17.17 0 0 1 .17-.169h.999a.17.17 0 0 1 .17.169v1.562c0 .601.132 1.024.394 1.27s.645.369 1.146.369a6.147 6.147 0 0 0 1.432-.155.17.17 0 0 0 .134-.166v-2.88a.17.17 0 0 1 .17-.169h1a.17.17 0 0 1 .17.169v6.833a.17.17 0 0 1-.17.169h-1a.17.17 0 0 1-.17-.169h.001zM70.998 11.838l2.637-6.833a.17.17 0 0 1 .158-.108h1.262a.17.17 0 0 1 .158.107l2.691 6.833a.168.168 0 0 1-.158.23h-1.143a.17.17 0 0 1-.159-.11l-.53-1.404a.171.171 0 0 0-.159-.11h-2.664a.168.168 0 0 0-.159.111l-.512 1.401a.168.168 0 0 1-.159.111h-1.102a.17.17 0 0 1-.159-.229zm2.547-2.526h1.738a.169.169 0 0 0 .158-.23l-.883-2.266a.17.17 0 0 0-.318.002l-.855 2.266c-.042.11.04.228.159.228zM78.99 11.899V5.066a.17.17 0 0 1 .17-.169h1a.17.17 0 0 1 .17.169v2.448a.17.17 0 0 0 .169.169h2.938a.17.17 0 0 0 .17-.169V5.066a.17.17 0 0 1 .17-.169h1a.17.17 0 0 1 .17.169v6.833a.17.17 0 0 1-.17.169h-1a.17.17 0 0 1-.17-.169V9.072a.17.17 0 0 0-.17-.169h-2.938a.17.17 0 0 0-.169.169v2.827a.17.17 0 0 1-.17.169h-1a.17.17 0 0 1-.17-.169zM86.766 11.899V5.066a.17.17 0 0 1 .17-.169h1a.17.17 0 0 1 .17.169v2.448a.17.17 0 0 0 .17.169h2.938a.17.17 0 0 0 .17-.169V5.066a.17.17 0 0 1 .17-.169h.999a.17.17 0 0 1 .17.169v6.833a.17.17 0 0 1-.17.169h-.999a.17.17 0 0 1-.17-.169V9.072a.17.17 0 0 0-.17-.169h-2.938a.17.17 0 0 0-.17.169v2.827a.17.17 0 0 1-.17.169h-1a.17.17 0 0 1-.17-.169zM94.159 11.802l1.785-2.527a.17.17 0 0 0-.092-.259c-.44-.132-.791-.344-1.053-.636-.307-.341-.461-.779-.461-1.311 0-.454.107-.843.322-1.168s.519-.573.912-.745.856-.259 1.389-.259h2.52a.17.17 0 0 1 .17.169v6.833a.17.17 0 0 1-.17.169h-1a.17.17 0 0 1-.17-.169V9.43a.17.17 0 0 0-.17-.169h-.611a.171.171 0 0 0-.141.074l-1.816 2.659a.17.17 0 0 1-.141.074h-1.134a.169.169 0 0 1-.139-.266zM96.99 8.17h1.149a.17.17 0 0 0 .17-.169V6.182a.17.17 0 0 0-.17-.169h-1.093c-.426 0-.759.088-1 .264s-.36.439-.36.791c0 .352.11.627.329.817s.545.284.974.284zM47.337 21.776v-2.303a.245.245 0 0 0-.301-.237 9.22 9.22 0 0 1-.573.115 5.45 5.45 0 0 1-.91.072c-.556 0-1.033-.091-1.43-.274s-.702-.469-.915-.858c-.213-.389-.319-.896-.319-1.521v-1.677c0-.134.11-.244.245-.244h.849c.135 0 .245.109.245.244v1.487c0 .601.132 1.025.394 1.27s.645.369 1.147.369a6.147 6.147 0 0 0 1.373-.142.244.244 0 0 0 .194-.239v-2.745c0-.134.11-.244.245-.244h.849c.135 0 .245.109.245.244v6.683c0 .134-.11.244-.245.244h-.849a.245.245 0 0 1-.245-.244zM50.496 21.776v-6.683c0-.134.11-.244.245-.244h4.307c.135 0 .245.109.245.244v.68c0 .134-.11.244-.245.244H52.08a.245.245 0 0 0-.245.244v1.249c0 .134.11.244.245.244h2.468c.135 0 .245.109.245.244v.604c0 .134-.11.244-.245.244H52.08a.245.245 0 0 0-.245.244v1.51c0 .134.11.244.245.244h3.004c.135 0 .245.109.245.244v.691c0 .134-.11.244-.245.244h-4.343a.245.245 0 0 1-.245-.244zM56.886 21.776v-6.683c0-.134.11-.244.245-.244h2.46c.519 0 .979.09 1.381.269s.717.438.946.776c.228.338.343.745.343 1.219s-.105.89-.317 1.224c-.211.335-.518.59-.92.766s-.89.264-1.464.264h-1.09a.245.245 0 0 0-.245.244v2.166c0 .134-.11.244-.245.244h-.849a.245.245 0 0 1-.245-.244zm1.34-3.786c0 .134.11.244.245.244h1.084c.43 0 .764-.089 1.005-.266s.361-.454.361-.83c0-.375-.123-.658-.369-.847s-.574-.284-.987-.284H58.47a.245.245 0 0 0-.245.244v1.74zM63.498 21.776v-6.683c0-.134.11-.244.245-.244h4.307c.135 0 .246.109.246.244v.68c0 .134-.11.244-.246.244h-2.967a.245.245 0 0 0-.246.244v1.249c0 .134.11.244.246.244h2.468c.135 0 .245.109.245.244v.604c0 .134-.11.244-.245.244h-2.468a.245.245 0 0 0-.246.244v1.51c0 .134.11.244.246.244h3.003c.135 0 .246.109.246.244v.691c0 .134-.11.244-.246.244h-4.344a.245.245 0 0 1-.245-.244zM71.955 22.173c-.556 0-1.063-.07-1.52-.21a3.956 3.956 0 0 1-1.02-.471.244.244 0 0 1-.078-.327l.36-.619a.248.248 0 0 1 .357-.075c.2.138.425.252.678.342.348.125.713.187 1.095.187.329 0 .615-.046.855-.138s.427-.22.559-.384a.882.882 0 0 0 .198-.574c0-.341-.116-.6-.35-.776s-.596-.264-1.087-.264H70.82a.245.245 0 0 1-.246-.244v-.563c0-.134.11-.244.246-.244h1.079c.274 0 .511-.039.708-.118s.349-.19.456-.335c.106-.145.159-.32.159-.525s-.052-.37-.157-.507c-.105-.137-.261-.24-.469-.31s-.461-.105-.76-.105a2.9 2.9 0 0 0-.966.164 2.465 2.465 0 0 0-.596.3.248.248 0 0 1-.347-.075l-.36-.565a.243.243 0 0 1 .059-.326c.275-.208.595-.373.958-.495.443-.149.918-.223 1.423-.223s.984.076 1.365.228c.381.152.674.37.879.653s.306.623.306 1.019c0 .219-.05.431-.15.638a2 2 0 0 1-.56.701.24.24 0 0 0 .035.396c.223.123.414.282.574.477.249.304.371.686.368 1.147 0 .417-.12.792-.358 1.127s-.573.6-1.005.797c-.432.196-.934.294-1.508.294h-.001zM50.568 25.046v6.552a.31.31 0 0 1-.312.31h-.679a.312.312 0 0 1-.312-.311l.013-3.493c.001-.314-.416-.43-.579-.16l-1.407 2.333a.312.312 0 0 1-.267.15h-.592a.312.312 0 0 1-.265-.147l-1.491-2.412c-.165-.267-.578-.15-.577.163l.014 3.566a.31.31 0 0 1-.312.311H43.2a.311.311 0 0 1-.312-.31v-6.552a.31.31 0 0 1 .312-.31h.807c.109 0 .209.056.266.148l2.245 3.656c.123.2.416.197.535-.005l2.146-3.646a.311.311 0 0 1 .269-.153h.788c.172 0 .312.139.312.31zM52.387 31.597v-6.552c0-.171.14-.31.312-.31h.717c.172 0 .312.139.312.31v6.552c0 .171-.14.31-.312.31h-.717a.311.311 0 0 1-.312-.31zM55.546 31.597v-6.552a.31.31 0 0 1 .312-.31h2.394c.519 0 .979.09 1.381.269s.717.438.946.776c.229.338.343.744.343 1.219s-.106.889-.317 1.224c-.211.335-.518.59-.92.766s-.89.264-1.464.264h-1.023a.31.31 0 0 0-.311.31v2.034c0 .171-.14.31-.312.31h-.717a.31.31 0 0 1-.312-.31zm1.34-3.785c0 .171.14.31.312.31h1.018c.429 0 .764-.089 1.005-.266s.361-.454.361-.83-.123-.658-.368-.848c-.246-.19-.574-.284-.987-.284h-1.028a.311.311 0 0 0-.312.31v1.608zM67.694 31.907h-.925a.31.31 0 0 1-.246-.12l-2.287-2.926a.314.314 0 0 0-.246-.12h-.18a.311.311 0 0 0-.312.31v2.547c0 .171-.14.31-.312.31h-.717a.311.311 0 0 1-.312-.31v-6.552c0-.171.14-.31.312-.31h.717c.172 0 .312.139.312.31v2.167c0 .171.14.31.312.31h.196a.313.313 0 0 0 .248-.122l1.955-2.543a.313.313 0 0 1 .248-.122h.871a.31.31 0 0 1 .247.499l-2.111 2.714a.308.308 0 0 0 .003.383l2.472 3.073a.31.31 0 0 1-.243.503v-.001zM74.768 24.736a.31.31 0 0 1 .278.449l-1.931 3.797c-.247.488-.498.91-.752 1.264a5.115 5.115 0 0 1-.797.895c-.276.24-.571.432-.885.576a4.331 4.331 0 0 1-.76.261.313.313 0 0 1-.363-.184l-.269-.651a.31.31 0 0 1 .204-.415c.284-.085.544-.194.781-.328.329-.184.624-.432.887-.742.054-.064.107-.13.159-.2a.313.313 0 0 0 .024-.335l-2.163-3.929a.31.31 0 0 1 .273-.458h.915a.31.31 0 0 1 .275.166l1.274 2.416c.119.225.445.22.556-.009l1.166-2.398a.312.312 0 0 1 .281-.175h.85zM76.155 31.597v-6.552c0-.171.14-.31.312-.31h2.27c.704 0 1.272.153 1.703.459.413.293.628.719.646 1.279.008.251-.045.504-.164.726a1.824 1.824 0 0 1-.391.499l-.07.061a.311.311 0 0 0 .026.501c.184.116.346.263.487.439.254.317.381.705.381 1.163 0 .403-.102.758-.306 1.065s-.496.547-.873.72c-.378.172-.825.259-1.34.259h-2.369a.311.311 0 0 1-.312-.31zm1.34-4.149c0 .171.14.31.312.31h.734c.251 0 .469-.041.655-.123s.33-.201.433-.356a.98.98 0 0 0 .155-.556c0-.314-.109-.554-.327-.72s-.53-.248-.935-.248h-.714a.31.31 0 0 0-.312.31v1.383zm0 3.13c0 .171.14.31.312.31h.817c.451 0 .787-.09 1.01-.269s.335-.448.335-.807-.111-.621-.333-.809c-.221-.188-.558-.282-1.007-.282h-.822a.31.31 0 0 0-.312.31v1.548h-.001zM82.109 31.486l2.529-6.552a.311.311 0 0 1 .291-.199h1.068c.128 0 .243.078.29.197l2.58 6.552a.31.31 0 0 1-.29.422h-.838a.312.312 0 0 1-.292-.201l-.462-1.222a.312.312 0 0 0-.292-.201h-2.467a.313.313 0 0 0-.293.204l-.444 1.216a.311.311 0 0 1-.293.204h-.797a.31.31 0 0 1-.291-.42zm2.679-2.335h1.327a.31.31 0 0 0 .291-.421l-.675-1.731a.312.312 0 0 0-.582.003l-.653 1.731a.31.31 0 0 0 .292.418h.001zM90.028 31.597v-6.552c0-.171.14-.31.312-.31h.717c.172 0 .312.139.312.31v2.167c0 .171.14.31.312.31h2.655a.311.311 0 0 0 .312-.31v-2.167a.31.31 0 0 1 .311-.31h.717a.31.31 0 0 1 .312.31v6.552a.31.31 0 0 1-.312.31h-.717a.31.31 0 0 1-.311-.31v-2.546c0-.171-.14-.31-.312-.31h-2.655a.311.311 0 0 0-.312.31v2.546c0 .171-.14.31-.312.31h-.717a.311.311 0 0 1-.312-.31zM97.805 31.597v-6.552c0-.171.14-.31.312-.31h.717c.172 0 .312.139.312.31v2.167c0 .171.139.31.312.31h2.654a.31.31 0 0 0 .312-.31v-2.167c0-.171.14-.31.312-.31h.717c.172 0 .312.139.312.31v6.552c0 .171-.14.31-.312.31h-.717a.311.311 0 0 1-.312-.31v-2.546a.31.31 0 0 0-.312-.31h-2.654a.31.31 0 0 0-.312.31v2.546c0 .171-.14.31-.312.31h-.717a.311.311 0 0 1-.312-.31zM105.353 31.419l1.519-2.151a.307.307 0 0 0-.141-.466 2.186 2.186 0 0 1-.895-.583c-.307-.341-.461-.779-.461-1.311 0-.454.107-.843.322-1.168s.519-.573.912-.745.856-.259 1.389-.259h2.379c.172 0 .312.139.312.31v6.552c0 .171-.14.31-.312.31h-.717a.311.311 0 0 1-.312-.31V29.41c0-.171-.14-.31-.312-.31h-.394a.314.314 0 0 0-.258.136l-1.732 2.535a.312.312 0 0 1-.258.136h-.787a.309.309 0 0 1-.254-.487zm2.676-3.41h1.008a.311.311 0 0 0 .312-.31v-1.537c0-.171-.14-.31-.312-.31h-.951c-.426 0-.759.088-1 .264s-.36.439-.36.791.11.627.329.817c.22.189.545.284.974.284z" style="fill:var(--color4, #101010)"/>
      <path fill="#00a2de" d="M37.36 9.254v5.754a.717.717 0 0 1-.35.615l-10.858 6.476a2.43 2.43 0 0 1-2.489-.001l-1.007-.6a7.2 7.2 0 0 0-3.976-1.193 7.18 7.18 0 0 0-3.975 1.192l-1.007.6a2.435 2.435 0 0 1-2.49 0L.351 15.622a.717.717 0 0 1-.35-.615V9.253a.721.721 0 0 1 1.092-.615l14.52 8.659c.024.015.05.028.076.04.911.416 1.924.647 2.991.647s2.083-.232 2.994-.648a.788.788 0 0 0 .076-.04l14.518-8.658a.722.722 0 0 1 1.093.615z" style="fill:var(--color1, #00a2de)"/>
      <path fill="#fed165" d="M18.68 14.287c3.97 0 7.188-3.198 7.188-7.143S22.65.001 18.68.001c-3.97 0-7.188 3.198-7.188 7.143s3.218 7.143 7.188 7.143z" style="fill:var(--color2, #fed165)"/>
      <path fill="#38b077" d="M18.68 31.972V32H0v-6.369h12.301c3.523 0 6.379 2.839 6.379 6.341z" style="fill:var(--color3, #38b077)"/>
      <path fill="#38b077" d="M37.36 25.631V32H18.679v-.028c0-3.502 2.856-6.341 6.38-6.341H37.36z" style="fill:var(--color3, #38b077)"/>
    </symbol>
     <symbol id="logo-with-text-white" viewBox="0 0 111 32">
      <path fill="#fff" d="M42.889 11.899V5.066a.17.17 0 0 1 .17-.169h1a.17.17 0 0 1 .17.169v2.448a.17.17 0 0 0 .17.169h2.937a.17.17 0 0 0 .17-.169V5.066a.17.17 0 0 1 .17-.169h1a.17.17 0 0 1 .17.169v6.833a.17.17 0 0 1-.17.169h-1a.17.17 0 0 1-.17-.169V9.072a.17.17 0 0 0-.17-.169h-2.937a.17.17 0 0 0-.17.169v2.827a.17.17 0 0 1-.17.169h-1a.17.17 0 0 1-.17-.169zM49.93 11.838l2.637-6.832a.17.17 0 0 1 .159-.108h1.262a.17.17 0 0 1 .158.107l2.691 6.833a.168.168 0 0 1-.158.23h-1.143a.17.17 0 0 1-.159-.11l-.53-1.404a.171.171 0 0 0-.159-.11h-2.664a.17.17 0 0 0-.16.111l-.511 1.401a.169.169 0 0 1-.16.111h-1.102a.169.169 0 0 1-.159-.229v-.001zm2.548-2.526h1.738a.169.169 0 0 0 .158-.23l-.883-2.266a.17.17 0 0 0-.317.002l-.855 2.266c-.042.11.04.228.16.228zM57.922 11.899V5.066a.17.17 0 0 1 .17-.169h2.412c.705 0 1.272.153 1.703.458.44.312.656.776.647 1.391a1.26 1.26 0 0 1-.11.502 1.852 1.852 0 0 1-.673.79.168.168 0 0 0 .017.291c.253.128.471.305.653.533.254.317.381.705.381 1.163 0 .403-.102.758-.306 1.065s-.496.547-.874.72c-.378.172-.825.259-1.34.259h-2.51a.17.17 0 0 1-.17-.169zm1.34-4.149a.17.17 0 0 0 .17.169h.877c.251 0 .469-.041.654-.123s.33-.201.433-.356a.983.983 0 0 0 .155-.556c0-.314-.109-.554-.327-.72s-.53-.248-.935-.248h-.856a.17.17 0 0 0-.17.169V7.75zm0 3.129a.17.17 0 0 0 .17.169h.959c.45 0 .786-.09 1.01-.269s.335-.448.335-.807c0-.358-.111-.621-.333-.809s-.557-.282-1.007-.282h-.964a.17.17 0 0 0-.17.169v1.829h-.001zM68.574 11.899V9.427a.17.17 0 0 0-.212-.164c-.225.054-.445.1-.662.136a5.45 5.45 0 0 1-.91.072c-.557 0-1.033-.091-1.43-.274s-.701-.469-.914-.858c-.213-.389-.319-.896-.319-1.521V5.066a.17.17 0 0 1 .17-.169h.999a.17.17 0 0 1 .17.169v1.562c0 .601.132 1.024.394 1.27s.645.369 1.146.369a6.147 6.147 0 0 0 1.432-.155.17.17 0 0 0 .134-.166v-2.88a.17.17 0 0 1 .17-.169h1a.17.17 0 0 1 .17.169v6.833a.17.17 0 0 1-.17.169h-1a.17.17 0 0 1-.17-.169h.001zM70.998 11.838l2.637-6.833a.17.17 0 0 1 .158-.108h1.262a.17.17 0 0 1 .158.107l2.691 6.833a.168.168 0 0 1-.158.23h-1.143a.17.17 0 0 1-.159-.11l-.53-1.404a.171.171 0 0 0-.159-.11h-2.664a.168.168 0 0 0-.159.111l-.512 1.401a.168.168 0 0 1-.159.111h-1.102a.17.17 0 0 1-.159-.229zm2.547-2.526h1.738a.169.169 0 0 0 .158-.23l-.883-2.266a.17.17 0 0 0-.318.002l-.855 2.266c-.042.11.04.228.159.228zM78.99 11.899V5.066a.17.17 0 0 1 .17-.169h1a.17.17 0 0 1 .17.169v2.448a.17.17 0 0 0 .169.169h2.938a.17.17 0 0 0 .17-.169V5.066a.17.17 0 0 1 .17-.169h1a.17.17 0 0 1 .17.169v6.833a.17.17 0 0 1-.17.169h-1a.17.17 0 0 1-.17-.169V9.072a.17.17 0 0 0-.17-.169h-2.938a.17.17 0 0 0-.169.169v2.827a.17.17 0 0 1-.17.169h-1a.17.17 0 0 1-.17-.169zM86.766 11.899V5.066a.17.17 0 0 1 .17-.169h1a.17.17 0 0 1 .17.169v2.448a.17.17 0 0 0 .17.169h2.938a.17.17 0 0 0 .17-.169V5.066a.17.17 0 0 1 .17-.169h.999a.17.17 0 0 1 .17.169v6.833a.17.17 0 0 1-.17.169h-.999a.17.17 0 0 1-.17-.169V9.072a.17.17 0 0 0-.17-.169h-2.938a.17.17 0 0 0-.17.169v2.827a.17.17 0 0 1-.17.169h-1a.17.17 0 0 1-.17-.169zM94.159 11.802l1.785-2.527a.17.17 0 0 0-.092-.259c-.44-.132-.791-.344-1.053-.636-.307-.341-.461-.779-.461-1.311 0-.454.107-.843.322-1.168s.519-.573.912-.745.856-.259 1.389-.259h2.52a.17.17 0 0 1 .17.169v6.833a.17.17 0 0 1-.17.169h-1a.17.17 0 0 1-.17-.169V9.43a.17.17 0 0 0-.17-.169h-.611a.171.171 0 0 0-.141.074l-1.816 2.659a.17.17 0 0 1-.141.074h-1.134a.169.169 0 0 1-.139-.266zM96.99 8.17h1.149a.17.17 0 0 0 .17-.169V6.182a.17.17 0 0 0-.17-.169h-1.093c-.426 0-.759.088-1 .264s-.36.439-.36.791c0 .352.11.627.329.817s.545.284.974.284zM47.337 21.776v-2.303a.245.245 0 0 0-.301-.237 9.22 9.22 0 0 1-.573.115 5.45 5.45 0 0 1-.91.072c-.556 0-1.033-.091-1.43-.274s-.702-.469-.915-.858c-.213-.389-.319-.896-.319-1.521v-1.677c0-.134.11-.244.245-.244h.849c.135 0 .245.109.245.244v1.487c0 .601.132 1.025.394 1.27s.645.369 1.147.369a6.147 6.147 0 0 0 1.373-.142.244.244 0 0 0 .194-.239v-2.745c0-.134.11-.244.245-.244h.849c.135 0 .245.109.245.244v6.683c0 .134-.11.244-.245.244h-.849a.245.245 0 0 1-.245-.244zM50.496 21.776v-6.683c0-.134.11-.244.245-.244h4.307c.135 0 .245.109.245.244v.68c0 .134-.11.244-.245.244H52.08a.245.245 0 0 0-.245.244v1.249c0 .134.11.244.245.244h2.468c.135 0 .245.109.245.244v.604c0 .134-.11.244-.245.244H52.08a.245.245 0 0 0-.245.244v1.51c0 .134.11.244.245.244h3.004c.135 0 .245.109.245.244v.691c0 .134-.11.244-.245.244h-4.343a.245.245 0 0 1-.245-.244zM56.886 21.776v-6.683c0-.134.11-.244.245-.244h2.46c.519 0 .979.09 1.381.269s.717.438.946.776c.228.338.343.745.343 1.219s-.105.89-.317 1.224c-.211.335-.518.59-.92.766s-.89.264-1.464.264h-1.09a.245.245 0 0 0-.245.244v2.166c0 .134-.11.244-.245.244h-.849a.245.245 0 0 1-.245-.244zm1.34-3.786c0 .134.11.244.245.244h1.084c.43 0 .764-.089 1.005-.266s.361-.454.361-.83c0-.375-.123-.658-.369-.847s-.574-.284-.987-.284H58.47a.245.245 0 0 0-.245.244v1.74zM63.498 21.776v-6.683c0-.134.11-.244.245-.244h4.307c.135 0 .246.109.246.244v.68c0 .134-.11.244-.246.244h-2.967a.245.245 0 0 0-.246.244v1.249c0 .134.11.244.246.244h2.468c.135 0 .245.109.245.244v.604c0 .134-.11.244-.245.244h-2.468a.245.245 0 0 0-.246.244v1.51c0 .134.11.244.246.244h3.003c.135 0 .246.109.246.244v.691c0 .134-.11.244-.246.244h-4.344a.245.245 0 0 1-.245-.244zM71.955 22.173c-.556 0-1.063-.07-1.52-.21a3.956 3.956 0 0 1-1.02-.471.244.244 0 0 1-.078-.327l.36-.619a.248.248 0 0 1 .357-.075c.2.138.425.252.678.342.348.125.713.187 1.095.187.329 0 .615-.046.855-.138s.427-.22.559-.384a.882.882 0 0 0 .198-.574c0-.341-.116-.6-.35-.776s-.596-.264-1.087-.264H70.82a.245.245 0 0 1-.246-.244v-.563c0-.134.11-.244.246-.244h1.079c.274 0 .511-.039.708-.118s.349-.19.456-.335c.106-.145.159-.32.159-.525s-.052-.37-.157-.507c-.105-.137-.261-.24-.469-.31s-.461-.105-.76-.105a2.9 2.9 0 0 0-.966.164 2.465 2.465 0 0 0-.596.3.248.248 0 0 1-.347-.075l-.36-.565a.243.243 0 0 1 .059-.326c.275-.208.595-.373.958-.495.443-.149.918-.223 1.423-.223s.984.076 1.365.228c.381.152.674.37.879.653s.306.623.306 1.019c0 .219-.05.431-.15.638a2 2 0 0 1-.56.701.24.24 0 0 0 .035.396c.223.123.414.282.574.477.249.304.371.686.368 1.147 0 .417-.12.792-.358 1.127s-.573.6-1.005.797c-.432.196-.934.294-1.508.294h-.001zM50.568 25.046v6.552a.31.31 0 0 1-.312.31h-.679a.312.312 0 0 1-.312-.311l.013-3.493c.001-.314-.416-.43-.579-.16l-1.407 2.333a.312.312 0 0 1-.267.15h-.592a.312.312 0 0 1-.265-.147l-1.491-2.412c-.165-.267-.578-.15-.577.163l.014 3.566a.31.31 0 0 1-.312.311H43.2a.311.311 0 0 1-.312-.31v-6.552a.31.31 0 0 1 .312-.31h.807c.109 0 .209.056.266.148l2.245 3.656c.123.2.416.197.535-.005l2.146-3.646a.311.311 0 0 1 .269-.153h.788c.172 0 .312.139.312.31zM52.387 31.597v-6.552c0-.171.14-.31.312-.31h.717c.172 0 .312.139.312.31v6.552c0 .171-.14.31-.312.31h-.717a.311.311 0 0 1-.312-.31zM55.546 31.597v-6.552a.31.31 0 0 1 .312-.31h2.394c.519 0 .979.09 1.381.269s.717.438.946.776c.229.338.343.744.343 1.219s-.106.889-.317 1.224c-.211.335-.518.59-.92.766s-.89.264-1.464.264h-1.023a.31.31 0 0 0-.311.31v2.034c0 .171-.14.31-.312.31h-.717a.31.31 0 0 1-.312-.31zm1.34-3.785c0 .171.14.31.312.31h1.018c.429 0 .764-.089 1.005-.266s.361-.454.361-.83-.123-.658-.368-.848c-.246-.19-.574-.284-.987-.284h-1.028a.311.311 0 0 0-.312.31v1.608zM67.694 31.907h-.925a.31.31 0 0 1-.246-.12l-2.287-2.926a.314.314 0 0 0-.246-.12h-.18a.311.311 0 0 0-.312.31v2.547c0 .171-.14.31-.312.31h-.717a.311.311 0 0 1-.312-.31v-6.552c0-.171.14-.31.312-.31h.717c.172 0 .312.139.312.31v2.167c0 .171.14.31.312.31h.196a.313.313 0 0 0 .248-.122l1.955-2.543a.313.313 0 0 1 .248-.122h.871a.31.31 0 0 1 .247.499l-2.111 2.714a.308.308 0 0 0 .003.383l2.472 3.073a.31.31 0 0 1-.243.503v-.001zM74.768 24.736a.31.31 0 0 1 .278.449l-1.931 3.797c-.247.488-.498.91-.752 1.264a5.115 5.115 0 0 1-.797.895c-.276.24-.571.432-.885.576a4.331 4.331 0 0 1-.76.261.313.313 0 0 1-.363-.184l-.269-.651a.31.31 0 0 1 .204-.415c.284-.085.544-.194.781-.328.329-.184.624-.432.887-.742.054-.064.107-.13.159-.2a.313.313 0 0 0 .024-.335l-2.163-3.929a.31.31 0 0 1 .273-.458h.915a.31.31 0 0 1 .275.166l1.274 2.416c.119.225.445.22.556-.009l1.166-2.398a.312.312 0 0 1 .281-.175h.85zM76.155 31.597v-6.552c0-.171.14-.31.312-.31h2.27c.704 0 1.272.153 1.703.459.413.293.628.719.646 1.279.008.251-.045.504-.164.726a1.824 1.824 0 0 1-.391.499l-.07.061a.311.311 0 0 0 .026.501c.184.116.346.263.487.439.254.317.381.705.381 1.163 0 .403-.102.758-.306 1.065s-.496.547-.873.72c-.378.172-.825.259-1.34.259h-2.369a.311.311 0 0 1-.312-.31zm1.34-4.149c0 .171.14.31.312.31h.734c.251 0 .469-.041.655-.123s.33-.201.433-.356a.98.98 0 0 0 .155-.556c0-.314-.109-.554-.327-.72s-.53-.248-.935-.248h-.714a.31.31 0 0 0-.312.31v1.383zm0 3.13c0 .171.14.31.312.31h.817c.451 0 .787-.09 1.01-.269s.335-.448.335-.807-.111-.621-.333-.809c-.221-.188-.558-.282-1.007-.282h-.822a.31.31 0 0 0-.312.31v1.548h-.001zM82.109 31.486l2.529-6.552a.311.311 0 0 1 .291-.199h1.068c.128 0 .243.078.29.197l2.58 6.552a.31.31 0 0 1-.29.422h-.838a.312.312 0 0 1-.292-.201l-.462-1.222a.312.312 0 0 0-.292-.201h-2.467a.313.313 0 0 0-.293.204l-.444 1.216a.311.311 0 0 1-.293.204h-.797a.31.31 0 0 1-.291-.42zm2.679-2.335h1.327a.31.31 0 0 0 .291-.421l-.675-1.731a.312.312 0 0 0-.582.003l-.653 1.731a.31.31 0 0 0 .292.418h.001zM90.028 31.597v-6.552c0-.171.14-.31.312-.31h.717c.172 0 .312.139.312.31v2.167c0 .171.14.31.312.31h2.655a.311.311 0 0 0 .312-.31v-2.167a.31.31 0 0 1 .311-.31h.717a.31.31 0 0 1 .312.31v6.552a.31.31 0 0 1-.312.31h-.717a.31.31 0 0 1-.311-.31v-2.546c0-.171-.14-.31-.312-.31h-2.655a.311.311 0 0 0-.312.31v2.546c0 .171-.14.31-.312.31h-.717a.311.311 0 0 1-.312-.31zM97.805 31.597v-6.552c0-.171.14-.31.312-.31h.717c.172 0 .312.139.312.31v2.167c0 .171.139.31.312.31h2.654a.31.31 0 0 0 .312-.31v-2.167c0-.171.14-.31.312-.31h.717c.172 0 .312.139.312.31v6.552c0 .171-.14.31-.312.31h-.717a.311.311 0 0 1-.312-.31v-2.546a.31.31 0 0 0-.312-.31h-2.654a.31.31 0 0 0-.312.31v2.546c0 .171-.14.31-.312.31h-.717a.311.311 0 0 1-.312-.31zM105.353 31.419l1.519-2.151a.307.307 0 0 0-.141-.466 2.186 2.186 0 0 1-.895-.583c-.307-.341-.461-.779-.461-1.311 0-.454.107-.843.322-1.168s.519-.573.912-.745.856-.259 1.389-.259h2.379c.172 0 .312.139.312.31v6.552c0 .171-.14.31-.312.31h-.717a.311.311 0 0 1-.312-.31V29.41c0-.171-.14-.31-.312-.31h-.394a.314.314 0 0 0-.258.136l-1.732 2.535a.312.312 0 0 1-.258.136h-.787a.309.309 0 0 1-.254-.487zm2.676-3.41h1.008a.311.311 0 0 0 .312-.31v-1.537c0-.171-.14-.31-.312-.31h-.951c-.426 0-.759.088-1 .264s-.36.439-.36.791.11.627.329.817c.22.189.545.284.974.284z" style="fill: #fff)"/>
      <path fill="#00a2de" d="M37.36 9.254v5.754a.717.717 0 0 1-.35.615l-10.858 6.476a2.43 2.43 0 0 1-2.489-.001l-1.007-.6a7.2 7.2 0 0 0-3.976-1.193 7.18 7.18 0 0 0-3.975 1.192l-1.007.6a2.435 2.435 0 0 1-2.49 0L.351 15.622a.717.717 0 0 1-.35-.615V9.253a.721.721 0 0 1 1.092-.615l14.52 8.659c.024.015.05.028.076.04.911.416 1.924.647 2.991.647s2.083-.232 2.994-.648a.788.788 0 0 0 .076-.04l14.518-8.658a.722.722 0 0 1 1.093.615z" style="fill:var(--color1, #00a2de)"/>
      <path fill="#fed165" d="M18.68 14.287c3.97 0 7.188-3.198 7.188-7.143S22.65.001 18.68.001c-3.97 0-7.188 3.198-7.188 7.143s3.218 7.143 7.188 7.143z" style="fill:var(--color2, #fed165)"/>
      <path fill="#38b077" d="M18.68 31.972V32H0v-6.369h12.301c3.523 0 6.379 2.839 6.379 6.341z" style="fill:var(--color3, #38b077)"/>
      <path fill="#38b077" d="M37.36 25.631V32H18.679v-.028c0-3.502 2.856-6.341 6.38-6.341H37.36z" style="fill:var(--color3, #38b077)"/>
    </symbol>
    <symbol id="footer-facebook" viewBox="0 0 32 32">
      <path fill="#1877f2" d="M32 16c0-8.836-7.163-16-16-16S0 7.163 0 16c0 7.986 5.851 14.605 13.5 15.806V20.625H9.437V16H13.5v-3.525c0-4.01 2.389-6.225 6.043-6.225 1.751 0 3.582.313 3.582.313v3.938h-2.018c-1.988 0-2.607 1.233-2.607 2.499v3.001h4.437l-.709 4.625H18.5v11.181c7.649-1.2 13.5-7.819 13.5-15.806z" style="fill:var(--color5, #1877f2)"/>
      <path fill="#fff" d="M22.228 20.625 22.937 16H18.5v-3.001c0-1.265.62-2.499 2.607-2.499h2.018V6.562s-1.831-.313-3.582-.313c-3.655 0-6.043 2.215-6.043 6.225v3.525H9.437v4.625H13.5v11.181c.827.13 1.663.195 2.5.194s1.673-.065 2.5-.194V20.624h3.728z" style="fill:var(--color6, #fff)"/>
    </symbol>
    <symbol id="question-minus" viewBox="0 0 128 32">
      <path stroke-linecap="round" stroke-linejoin="round" stroke-width="21.333" d="M10.667 16h106.667"/>
    </symbol>
    <symbol id="question-plus" viewBox="0 0 30 32">
      <path stroke-linecap="round" stroke-linejoin="round" stroke-width="4.923" d="M2.462 16h24.615M14.769 28.308V3.693"/>
    </symbol>
    <symbol id="review-left" viewBox="0 0 19 32">
      <path fill="#fff" d="M18.466.704c.47.451.734 1.063.734 1.701s-.264 1.25-.734 1.701L6.053 16.014l12.413 11.908c.457.454.71 1.061.704 1.692s-.269 1.234-.734 1.68-1.094.699-1.751.704a2.565 2.565 0 0 1-1.764-.675L.735 17.714c-.47-.451-.734-1.063-.734-1.701s.264-1.25.734-1.701L14.921.703c.47-.451 1.108-.704 1.773-.704s1.303.253 1.773.704z" style="fill:var(--color6, #fff)"/>
    </symbol>
    <symbol id="review-right" viewBox="0 0 19 32">
      <path fill="#fff" d="M.734.704C.264 1.155 0 1.767 0 2.405s.264 1.25.734 1.701l12.413 11.908L.734 27.922c-.457.454-.71 1.061-.704 1.692s.269 1.234.734 1.68 1.094.699 1.751.704a2.563 2.563 0 0 0 1.764-.675l14.186-13.609c.47-.451.734-1.063.734-1.701s-.264-1.25-.734-1.701L4.279.703c-.47-.451-1.108-.704-1.773-.704S1.203.252.733.703z" style="fill:var(--color6, #fff)"/>
    </symbol>
    <symbol id="two-yellow-stars" viewBox="0 0 35 32">
      <path fill="#fed165" d="M6.473.04c1.237-.562 5.676 5.036 5.676 5.036s6.221-3.268 7.13-2.237c.908 1.031-2.906 7.027-2.906 7.027s4.95 5.095 4.269 6.301c-.681 1.206-7.425-.656-7.425-.656s-3.168 6.418-4.484 6.126c-1.317-.293-1.692-7.484-1.692-7.484S.138 12.982.002 11.647c-.136-1.335 6.38-3.971 6.38-3.971S5.235.66 6.473.04zM27.343 17.635c.738.037 1.485 3.849 1.485 3.849s3.821-.026 4.002.699c.181.725-3.158 2.669-3.158 2.669s1.119 3.696.489 4.109c-.63.413-3.423-2.17-3.423-2.17s-3.132 2.31-3.695 1.84c-.563-.47 1.051-4.037 1.051-4.037s-3.042-2.288-2.774-2.967c.267-.679 4.073-.325 4.073-.325s1.197-3.675 1.95-3.666z" style="fill:var(--color2, #fed165)"/>
    </symbol>
    <symbol id="yellow-star" viewBox="0 0 31 32">
      <path fill="#fed165" d="M12.712.374c1.964-.432 6.92 8.673 6.92 8.673s9.995-2.787 11.04-1.085c1.046 1.702-6.178 8.997-6.178 8.997s5.841 8.546 4.514 10.038C27.681 28.489 18.33 23.95 18.33 23.95s-6.393 8.07-8.238 7.283c-1.846-.787-.421-10.954-.421-10.954S-.102 16.661.065 14.755c.167-1.907 10.42-3.725 10.42-3.725S10.732.887 12.712.374z" style="fill:var(--color2, #fed165)"/>
    </symbol>
     <symbol id="about-school" viewBox="0 0 49 32">
      <path fill="#38b077" d="M34.977 2.698a.186.186 0 1 0 0 .372v-.372zm-2.419 15.721zm-29.116-.652zm8.186 11.256-1.833-1.12-.054 2.148 1.887-1.027zm-.835-.207a.186.186 0 1 0-.019.371l.019-.372zm-1.711.182a.186.186 0 0 0 .066-.366l-.066.366zm-1.52-.789c-.096-.035-.203.014-.239.111s.014.203.111.239l.128-.349zm-1.66-.41a.186.186 0 1 0 .204-.312l-.203.312zm-1.028-1.373a.187.187 0 0 0-.28.246l.279-.246zm-1.232-1.187a.186.186 0 0 0 .334-.164l-.334.164zm-.21-1.703a.186.186 0 1 0-.362.086l.362-.086zm-.606-1.604a.186.186 0 1 0 .371-.023l-.371.023zm.386-1.676c.008-.102-.069-.192-.172-.199s-.192.069-.199.172l.371.028zm-.143-1.712a.186.186 0 1 0 .365.071l-.365-.072zm.844-1.572a.186.186 0 1 0-.346-.136l.346.137zm.515-1.794c-.057.085-.035.201.051.258s.201.035.258-.051l-.309-.208zm1.479-1.125c.077-.068.085-.185.018-.262s-.185-.085-.263-.018l.245.28zm1.318-1.311a.187.187 0 0 0 .163.335l-.163-.334zm1.842-.261a.186.186 0 0 0-.087-.361l.087.362zm1.748-.64c-.102.008-.179.097-.172.199s.097.179.199.172l-.027-.371zm1.832.351a.186.186 0 1 0 .016-.372l-.017.372zm1.852-.207a.186.186 0 1 0-.049.369l.049-.369zm1.744.669a.186.186 0 1 0 .073-.365l-.073.365zm1.866.043a.186.186 0 1 0-.091.361l.091-.361zm1.661.845c.098.029.202-.027.231-.125s-.027-.202-.125-.231l-.106.357zm1.858.197c-.098-.032-.203.02-.235.118s.02.203.118.235l.118-.353zm1.601.952a.186.186 0 0 0 .127-.349l-.127.35zm1.844.297a.186.186 0 1 0-.135.347l.135-.347zm1.557 1.024a.186.186 0 0 0 .142-.344l-.141.344zm1.83.366c-.094-.041-.204.003-.244.098s.003.204.098.244l.147-.342zm1.527 1.074a.186.186 0 1 0 .152-.34l-.151.34zm1.818.414a.186.186 0 1 0-.155.339l.155-.338zm1.513 1.087c.095.039.204-.007.243-.102s-.007-.204-.102-.242l-.141.345zm1.799.233a.186.186 0 0 0-.103.358l.103-.358zm1.654.743c.102.015.196-.055.212-.156s-.055-.196-.156-.212l-.055.368zm1.808-.242a.186.186 0 1 0 .004.372l-.004-.372zm1.802.189a.186.186 0 1 0-.073-.365l.073.365zm1.589-.881a.187.187 0 0 0 .148.342l-.148-.341zm1.727-.566a.185.185 0 1 0-.221-.299l.221.299zm1.047-1.483a.186.186 0 1 0 .283.241l-.284-.241zm1.298-1.269a.187.187 0 0 0-.33-.172l.33.172zm.297-1.793a.187.187 0 0 0 .36.096l-.36-.095zm.632-1.703a.186.186 0 0 0-.372-.016l.372.016zm-.49-1.749a.186.186 0 0 0 .366-.066l-.366.066zm-.153-1.81a.186.186 0 1 0-.343.145l.343-.145zm-1.195-1.37a.186.186 0 1 0 .303-.217l-.302.217zm-.905-1.571a.186.186 0 0 0-.251.275l.251-.275zm-1.645-.769c.087.054.202.026.256-.061s.026-.202-.061-.256l-.195.317zM41.16 3.78a.187.187 0 0 0-.141.345l.141-.345zm-1.81-.202a.186.186 0 0 0 .092-.36l-.092.361zm-1.669-.703a.186.186 0 1 0-.051.369l.051-.369zm-1.805.213a.186.186 0 0 0 .016-.372l-.016.372zM9.148 28.632a9.437 9.437 0 0 1-1.586-.423l-.128.349a9.87 9.87 0 0 0 1.648.44l.066-.366zm-3.043-1.145a6.052 6.052 0 0 1-1.231-1.06l-.279.246c.364.413.796.793 1.306 1.126l.203-.312zm-2.129-2.412a7.374 7.374 0 0 1-.545-1.539l-.362.086c.13.546.315 1.092.573 1.617l.334-.164zm-.779-3.166a12.201 12.201 0 0 1 .015-1.653l-.371-.028a12.608 12.608 0 0 0-.015 1.703l.371-.023zm.237-3.293a10.58 10.58 0 0 1 .172-.743l.011-.04.003-.01.001-.002-.178-.053-.178-.053v.001l-.001.003-.003.011-.012.043-.043.164c-.036.142-.084.349-.135.606l.365.072zm.186-.795c.088-.296.186-.579.293-.849l-.346-.137c-.111.28-.212.573-.303.879l.357.106zm1.117-2.435a6.772 6.772 0 0 1 1.17-1.333l-.245-.28c-.46.401-.873.869-1.235 1.406l.309.208zm2.651-2.31a8.252 8.252 0 0 1 1.679-.595l-.087-.362a8.53 8.53 0 0 0-1.756.622l.163.334zm3.454-.864a15.182 15.182 0 0 1 1.805-.021l.017-.372a15.945 15.945 0 0 0-1.849.021l.027.371zm3.609.142c.582.077 1.18.177 1.792.3l.073-.365a27.963 27.963 0 0 0-1.816-.304l-.049.369zm3.566.704c.574.146 1.158.307 1.753.484l.106-.357a45.124 45.124 0 0 0-1.767-.488l-.091.361zm3.494 1.034c.566.189 1.139.389 1.718.599l.127-.35a66.389 66.389 0 0 0-1.728-.603l-.118.353zm3.427 1.243c.56.218 1.124.444 1.693.678l.141-.344c-.57-.234-1.137-.461-1.699-.68l-.135.347zm3.375 1.385c.555.238 1.113.483 1.674.733l.151-.34c-.562-.25-1.122-.495-1.679-.735l-.147.342zm3.337 1.484.83.383.157-.337-.832-.384-.155.338zm.83.383c.283.132.563.253.839.366l.141-.345c-.271-.11-.545-.23-.822-.359l-.157.337zm2.535.957c.604.173 1.19.301 1.756.385l.055-.368a13.348 13.348 0 0 1-1.708-.375l-.103.358zm3.568.515a9.76 9.76 0 0 0 1.798-.183l-.073-.365a9.448 9.448 0 0 1-1.73.176l.004.372zm3.535-.722a8.005 8.005 0 0 0 1.578-.907l-.221-.299a7.659 7.659 0 0 1-1.505.865l.148.341zm2.909-2.15a8.056 8.056 0 0 0 1.015-1.511l-.33-.172c-.266.512-.59.996-.968 1.441l.284.241zm1.671-3.207c.156-.586.248-1.19.273-1.798l-.372-.016a7.956 7.956 0 0 1-.261 1.718l.36.095zm.15-3.614a8.203 8.203 0 0 0-.52-1.744l-.343.145c.23.542.394 1.1.496 1.665l.366-.066zm-1.412-3.331a8.668 8.668 0 0 0-1.207-1.353l-.251.275a8.31 8.31 0 0 1 1.156 1.295l.302-.217zm-2.659-2.44a11.154 11.154 0 0 0-1.617-.815l-.141.345c.567.231 1.088.496 1.564.787l.195-.317zm-3.335-1.378a15.719 15.719 0 0 0-1.762-.342l-.051.369c.607.084 1.18.196 1.72.334l.092-.361zm-3.55-.5a21.078 21.078 0 0 0-.915-.019v.372c.306 0 .606.006.899.019l.016-.372z" style="fill:var(--color1, #38b077)"/>
      <path fill="#fed165" d="M19.163 28.93a3.07 3.07 0 1 1-6.14 0 3.07 3.07 0 0 1 6.14 0z" style="fill:var(--color2, #fed165)"/>
    </symbol>
     <symbol id="water-wave" viewBox="0 0 134 32">
      <path fill="none" stroke="#e5f6fc" stroke-linecap="round" stroke-linejoin="round" stroke-width="18.605" d="M-13.023 11.75c9.12 8.261 32.606 19.827 53.586 0 9.454 6.961 33.393 16.707 53.52 0 8.742 7.358 31.658 17.659 53.386 0 11.033 8.261 37.317 18.174 54.721-1.652" style="stroke:var(--color1, #e5f6fc)"/>
    </symbol>
     <symbol id="yellow-cirlce" viewBox="0 0 32 32">
      <path fill="#fed165" d="M32 16c0 8.837-7.163 16-16 16S0 24.837 0 16 7.163 0 16 0s16 7.163 16 16z" style="fill:var(--color1, #fed165)"/>
    </symbol>
    <symbol id="about-school-desktop-ball" viewBox="0 0 50 32">
      <path fill="#38b077" d="M38.491.046c-.05 0-.091.041-.091.091s.041.091.091.091V.045zm-4.662 15.268zm-33.28-.868-.083-.039-.003.006-.002.007.088.027zm6.582 11.565-.795-.695-.204 1.036.999-.341zm-.921-.28c-.049-.012-.099.018-.111.067s.018.099.067.111l.043-.178zm-1.875-.452a.091.091 0 1 0 .076-.166l-.077.166zm-1.531-1.16c-.039-.032-.097-.026-.129.013s-.026.097.013.129l.116-.142zm-1.428-1.285a.091.091 0 1 0 .151-.103l-.151.103zm-.692-1.793c-.017-.048-.069-.073-.116-.056s-.073.069-.056.116l.173-.06zm-.599-1.829c.006.05.052.086.102.08s.086-.052.08-.102l-.182.022zm.117-1.923c.002-.05-.037-.093-.087-.095s-.093.037-.095.087l.183.008zm.04-1.926c-.009.05.023.097.073.107s.097-.023.107-.073l-.18-.034zm.81-1.664c.026-.043.012-.099-.032-.125s-.099-.012-.125.031l.157.094zm.935-1.544c-.035.037-.033.095.004.129s.095.033.129-.003l-.133-.126zm1.495-1.007c.042-.028.054-.084.027-.126s-.084-.054-.127-.027l.1.153zm1.519-.97c-.047.018-.071.071-.053.118s.071.071.118.053l-.065-.171zm1.777-.314c.05-.01.082-.058.072-.108s-.058-.082-.107-.072l.036.179zm1.756-.415c-.05.004-.088.047-.085.098s.047.088.098.085l-.013-.182zm1.802.142c.05.001.092-.039.093-.089s-.039-.092-.089-.093l-.004.183zm1.808-.08c-.05-.004-.095.033-.099.083s.033.095.083.099l.016-.182zm1.762.39a.091.091 0 1 0 .025-.181l-.026.181zm1.804.111c-.05-.009-.097.024-.107.073s.024.097.073.106l.033-.18zm1.726.534c.049.011.098-.021.109-.07s-.021-.098-.07-.109l-.039.179zm1.797.226c-.049-.012-.099.018-.111.067s.018.099.067.11l.043-.178zm1.693.621a.091.091 0 1 0 .047-.177l-.047.177zm1.783.299c-.049-.014-.099.015-.113.063s.015.099.063.113l.05-.176zm1.679.677c.048.014.099-.013.114-.062s-.013-.099-.062-.114l-.052.175zm1.774.347a.091.091 0 0 0-.054.174l.054-.175zm1.659.712c.048.015.1-.011.115-.059s-.011-.1-.059-.115l-.055.174zm1.767.378c-.048-.016-.1.011-.115.059s.011.1.058.115l.057-.174zm1.65.736a.092.092 0 0 0 .058-.174l-.058.174zm1.764.396c-.048-.016-.1.01-.116.057s.01.1.057.116l.058-.173zm1.684.746c.048.014.099-.013.114-.061s-.013-.099-.061-.114l-.052.175zm1.808.276c-.049-.011-.098.021-.109.07s.021.098.07.109l.038-.179zm1.763.48c.05.006.096-.03.102-.08s-.03-.096-.08-.102l-.022.182zm1.82-.065a.092.092 0 0 0-.001.183l.002-.183zm1.838.082c.05-.006.086-.052.08-.102s-.052-.086-.102-.08l.022.181zm1.745-.532c-.049.014-.077.064-.063.113s.064.077.113.063l-.049-.176zm1.771-.472c.045-.022.064-.077.042-.122s-.077-.064-.122-.042l.08.165zm1.453-1.106c-.04.031-.048.088-.017.128s.088.048.128.017l-.111-.145zm1.44-1.124c.032-.039.027-.096-.012-.129s-.096-.027-.129.012l.14.117zm.84-1.622c-.022.045-.004.1.042.122s.1.004.122-.042l-.164-.081zm.767-1.659c.01-.049-.021-.098-.071-.108s-.098.021-.108.071l.179.038zm-.036-1.826a.092.092 0 0 0 .183-.009l-.183.009zm-.144-1.82c-.015-.048-.067-.075-.115-.059s-.075.067-.06.115l.174-.055zm-.929-1.573c.027.043.083.056.126.029s.056-.083.029-.126l-.155.097zm-.997-1.531a.091.091 0 0 0-.128.13l.129-.13zm-1.536-.996c.042.027.099.015.126-.027s.015-.099-.027-.126l-.099.153zm-1.517-1.009c-.046-.02-.1.002-.12.048s.002.1.048.12l.072-.168zm-1.79-.419a.091.091 0 1 0 .047-.177l-.047.177zM41.24.232a.091.091 0 1 0-.025.181l.026-.181zm-1.827.016c.05.002.093-.037.095-.087s-.037-.093-.087-.095l-.008.183zM6.345 25.763l-.135-.032-.043.178.137.032.041-.178zm-1.934-.65a7.47 7.47 0 0 1-1.607-.994l-.116.142a7.698 7.698 0 0 0 1.647 1.018l.077-.166zm-2.884-2.382a7.087 7.087 0 0 1-.843-1.691l-.173.06c.206.595.487 1.182.865 1.734l.151-.103zM.267 19.19a11.579 11.579 0 0 1-.065-1.902l-.183-.008c-.027.598-.016 1.254.066 1.932l.182-.022zm.155-3.793c.054-.289.108-.521.148-.68.02-.08.037-.141.048-.182l.013-.047a.035.035 0 0 0 .003-.012l.001-.003v-.001l-.088-.027-.088-.027v.001l-.001.003-.004.013-.014.049a11.588 11.588 0 0 0-.199.878l.18.034zm.209-.912c.131-.275.271-.537.42-.786l-.157-.094a9.783 9.783 0 0 0-.429.801l.165.079zm1.489-2.204a7.469 7.469 0 0 1 1.361-1.133l-.1-.153c-.508.33-.973.716-1.394 1.161l.133.126zm2.946-1.932a10.567 10.567 0 0 1 1.711-.485l-.036-.179c-.615.122-1.195.286-1.741.493l.065.171zm3.481-.718a19.363 19.363 0 0 1 1.789-.041l.004-.183c-.626-.013-1.228 0-1.806.041l.013.182zm3.581.062c.575.052 1.167.121 1.778.209l.026-.181a35.176 35.176 0 0 0-1.787-.21l-.016.182zm3.549.499a55.94 55.94 0 0 1 1.759.354l.039-.179a56.31 56.31 0 0 0-1.765-.355l-.033.18zm3.512.758c.568.138 1.147.286 1.737.443l.047-.177a81.278 81.278 0 0 0-1.741-.443l-.043.178zm3.47.918c.567.16 1.143.328 1.728.502l.052-.175c-.586-.174-1.163-.342-1.731-.502l-.05.176zm3.449 1.023c.563.174 1.134.353 1.713.537l.055-.174c-.579-.184-1.151-.364-1.714-.538l-.054.175zm3.423 1.089c.562.183 1.131.371 1.707.562l.058-.174a304.77 304.77 0 0 0-1.708-.562l-.057.174zm3.412 1.132.856.289.059-.173-.856-.289-.058.173zm.856.289c.299.101.595.195.887.283l.052-.175c-.29-.087-.583-.18-.88-.281l-.059.173zm2.657.738c.62.133 1.221.232 1.801.301l.022-.182a19.653 19.653 0 0 1-1.785-.298l-.038.179zm3.619.419c.642.006 1.255-.029 1.839-.101l-.022-.181c-.576.07-1.181.105-1.816.099l-.002.183zm3.635-.457a10.4 10.4 0 0 0 1.721-.649l-.08-.165c-.521.252-1.085.467-1.691.637l.049.176zm3.285-1.608a8.238 8.238 0 0 0 1.329-1.27l-.14-.117a8.085 8.085 0 0 1-1.3 1.241l.111.145zm2.333-2.811a7.403 7.403 0 0 0 .602-1.74l-.179-.038a7.266 7.266 0 0 1-.587 1.697l.164.081zm.749-3.575a7.15 7.15 0 0 0-.326-1.811l-.174.055c.184.578.289 1.171.318 1.765l.183-.009zm-1.1-3.481a7.86 7.86 0 0 0-1.153-1.434l-.129.13c.443.438.818.909 1.126 1.401l.155-.097zm-2.589-2.584a10.614 10.614 0 0 0-1.616-.855l-.072.168c.58.247 1.109.529 1.589.84l.099-.153zM43.029.592a15.455 15.455 0 0 0-1.789-.36l-.026.181c.624.089 1.213.209 1.767.356l.047-.177zM39.421.066a21.69 21.69 0 0 0-.93-.02v.183c.314 0 .621.007.922.02l.008-.183z" style="fill:var(--color1, #38b077)"/>
      <path fill="#fed165" d="M19.566 26.56a5.44 5.44 0 1 1-10.881-.001 5.44 5.44 0 0 1 10.881.001z" style="fill:var(--color2, #fed165)"/>
    </symbol>
    <symbol id="about-school-desktop" viewBox="0 0 61 32">
<path fill="#38b077" style="fill: var(--color1, #38b077)" d="M46.616 0.055c-0.061 0-0.111 0.050-0.111 0.111s0.050 0.111 0.111 0.111v-0.221zM40.969 18.547v0zM0.664 17.495l-0.1-0.048-0.004 0.008-0.002 0.008 0.106 0.032zM8.637 31.502l-0.963-0.842-0.248 1.254 1.21-0.413zM7.521 31.162c-0.059-0.015-0.119 0.022-0.134 0.081s0.022 0.119 0.081 0.134l0.053-0.215zM5.249 30.615c0.056 0.026 0.121 0.001 0.147-0.054s0.001-0.121-0.054-0.147l-0.093 0.201zM3.395 29.21c-0.047-0.039-0.117-0.032-0.156 0.016s-0.032 0.117 0.016 0.156l0.14-0.172zM1.667 27.654c0.034 0.050 0.103 0.063 0.154 0.029s0.063-0.103 0.029-0.154l-0.183 0.125zM0.828 25.482c-0.020-0.058-0.083-0.088-0.141-0.068s-0.088 0.083-0.068 0.141l0.209-0.072zM0.103 23.267c0.007 0.061 0.062 0.104 0.123 0.097s0.104-0.062 0.097-0.123l-0.22 0.026zM0.244 20.938c0.003-0.061-0.045-0.113-0.106-0.116s-0.113 0.044-0.116 0.106l0.221 0.010zM0.294 18.606c-0.011 0.060 0.028 0.118 0.088 0.129s0.118-0.028 0.129-0.088l-0.218-0.041zM1.274 16.59c0.031-0.052 0.014-0.12-0.038-0.152s-0.12-0.014-0.152 0.038l0.19 0.114zM2.407 14.721c-0.042 0.044-0.040 0.114 0.004 0.157s0.114 0.040 0.157-0.004l-0.161-0.152zM4.216 13.501c0.051-0.033 0.066-0.102 0.032-0.153s-0.102-0.066-0.153-0.032l0.121 0.186zM6.057 12.326c-0.057 0.022-0.086 0.086-0.064 0.143s0.086 0.086 0.143 0.064l-0.079-0.207zM8.208 11.946c0.060-0.012 0.099-0.070 0.087-0.13s-0.070-0.099-0.13-0.087l0.043 0.217zM10.336 11.444c-0.061 0.004-0.107 0.057-0.103 0.118s0.057 0.107 0.118 0.103l-0.016-0.221zM12.518 11.615c0.061 0.001 0.112-0.047 0.113-0.108s-0.047-0.112-0.108-0.113l-0.005 0.221zM14.708 11.518c-0.061-0.005-0.115 0.040-0.12 0.1s0.040 0.115 0.1 0.12l0.020-0.221zM16.841 11.991c0.060 0.009 0.117-0.033 0.125-0.094s-0.033-0.117-0.094-0.125l-0.031 0.219zM19.026 12.125c-0.060-0.011-0.118 0.029-0.129 0.089s0.029 0.118 0.089 0.129l0.040-0.218zM21.117 12.771c0.060 0.013 0.119-0.025 0.132-0.085s-0.025-0.119-0.085-0.132l-0.047 0.216zM23.292 13.046c-0.059-0.014-0.119 0.022-0.134 0.081s0.022 0.119 0.081 0.134l0.052-0.215zM25.343 13.797c0.059 0.016 0.12-0.020 0.135-0.079s-0.020-0.12-0.079-0.135l-0.057 0.214zM27.503 14.16c-0.059-0.017-0.12 0.018-0.137 0.076s0.018 0.12 0.076 0.137l0.060-0.213zM29.535 14.98c0.059 0.017 0.12-0.016 0.138-0.075s-0.016-0.12-0.075-0.138l-0.063 0.212zM31.684 15.4c-0.058-0.018-0.12 0.015-0.138 0.073s0.015 0.12 0.073 0.139l0.065-0.212zM33.693 16.263c0.058 0.019 0.121-0.014 0.139-0.072s-0.014-0.121-0.072-0.139l-0.067 0.211zM35.833 16.72c-0.058-0.019-0.121 0.013-0.139 0.071s0.013 0.121 0.071 0.14l0.069-0.211zM37.832 17.611c0.058 0.019 0.121-0.012 0.14-0.070s-0.012-0.121-0.070-0.14l-0.070 0.21zM39.967 18.092c-0.058-0.020-0.121 0.012-0.14 0.070s0.012 0.121 0.070 0.14l0.071-0.21zM42.007 18.994c0.059 0.017 0.12-0.016 0.138-0.074s-0.016-0.12-0.074-0.138l-0.063 0.212zM44.197 19.328c-0.060-0.013-0.119 0.025-0.131 0.085s0.025 0.119 0.085 0.131l0.046-0.217zM46.332 19.91c0.061 0.007 0.116-0.036 0.123-0.097s-0.036-0.116-0.097-0.123l-0.026 0.22zM48.536 19.831c-0.061-0.001-0.111 0.049-0.112 0.11s0.049 0.111 0.11 0.112l0.002-0.221zM50.762 19.931c0.061-0.007 0.104-0.063 0.097-0.123s-0.063-0.104-0.123-0.097l0.027 0.22zM52.876 19.287c-0.059 0.017-0.093 0.078-0.077 0.137s0.078 0.093 0.137 0.077l-0.060-0.213zM55.020 18.714c0.055-0.027 0.078-0.093 0.051-0.148s-0.093-0.078-0.148-0.051l0.097 0.199zM56.78 17.376c-0.049 0.037-0.058 0.107-0.021 0.155s0.107 0.058 0.155 0.021l-0.135-0.176zM58.524 16.014c0.039-0.047 0.033-0.117-0.014-0.156s-0.117-0.033-0.156 0.014l0.17 0.142zM59.542 14.050c-0.027 0.055-0.004 0.121 0.050 0.148s0.121 0.004 0.148-0.050l-0.199-0.098zM60.47 12.041c0.013-0.060-0.026-0.118-0.085-0.131s-0.119 0.026-0.131 0.085l0.217 0.046zM60.426 9.829c0.003 0.061 0.055 0.108 0.116 0.105s0.108-0.055 0.105-0.116l-0.221 0.011zM60.252 7.624c-0.019-0.058-0.081-0.091-0.139-0.072s-0.091 0.081-0.072 0.139l0.211-0.067zM59.127 5.72c0.032 0.052 0.101 0.068 0.153 0.035s0.068-0.101 0.035-0.153l-0.188 0.117zM57.919 3.866c-0.043-0.043-0.114-0.043-0.157 0.001s-0.043 0.114 0.001 0.157l0.156-0.157zM56.059 2.659c0.051 0.033 0.12 0.019 0.153-0.033s0.019-0.12-0.033-0.153l-0.12 0.186zM54.222 1.437c-0.056-0.024-0.121 0.002-0.145 0.058s0.002 0.121 0.058 0.145l0.087-0.204zM52.054 0.931c0.059 0.016 0.12-0.020 0.135-0.079s-0.020-0.12-0.079-0.135l-0.057 0.214zM49.945 0.281c-0.061-0.009-0.117 0.033-0.125 0.094s0.033 0.117 0.094 0.125l0.031-0.219zM47.733 0.301c0.061 0.003 0.113-0.045 0.115-0.106s-0.045-0.113-0.106-0.115l-0.010 0.221zM7.684 31.201c-0.055-0.013-0.109-0.026-0.163-0.039l-0.053 0.215c0.055 0.013 0.11 0.026 0.165 0.039l0.050-0.216zM5.342 30.414c-0.75-0.346-1.394-0.753-1.947-1.204l-0.14 0.172c0.568 0.463 1.228 0.88 1.994 1.233l0.093-0.201zM1.849 27.529c-0.445-0.651-0.777-1.343-1.021-2.047l-0.209 0.072c0.25 0.721 0.59 1.431 1.047 2.1l0.183-0.125zM0.323 23.241c-0.097-0.806-0.111-1.589-0.079-2.303l-0.221-0.010c-0.033 0.724-0.019 1.519 0.080 2.339l0.22-0.026zM0.511 18.647c0.066-0.35 0.131-0.631 0.179-0.824 0.024-0.096 0.044-0.171 0.058-0.221 0.007-0.025 0.012-0.044 0.016-0.057 0.002-0.006 0.003-0.011 0.004-0.014 0-0.001 0.001-0.003 0.001-0.003s0-0.001 0-0.001 0-0 0-0 0 0 0 0 0 0 0 0 0 0-0.106-0.032-0.106-0.032-0.106-0.032 0 0 0 0-0 0-0 0-0 0-0 0-0 0.001-0 0.001-0.001 0.002-0.001 0.004-0.003 0.009-0.004 0.015c-0.004 0.013-0.010 0.033-0.017 0.059-0.014 0.052-0.035 0.128-0.060 0.226-0.049 0.197-0.115 0.482-0.182 0.837l0.218 0.041zM0.764 17.542c0.159-0.333 0.329-0.65 0.509-0.952l-0.19-0.114c-0.184 0.308-0.357 0.631-0.519 0.971l0.2 0.095zM2.568 14.873c0.498-0.526 1.048-0.982 1.649-1.373l-0.121-0.186c-0.615 0.4-1.179 0.867-1.689 1.406l0.161 0.152zM6.136 12.533c0.648-0.247 1.339-0.442 2.073-0.587l-0.043-0.217c-0.745 0.148-1.448 0.346-2.108 0.598l0.079 0.207zM10.351 11.664c0.692-0.049 1.414-0.065 2.167-0.050l0.005-0.221c-0.758-0.016-1.487 0-2.187 0.050l0.016 0.221zM14.688 11.738c0.696 0.063 1.414 0.147 2.153 0.253l0.031-0.219c-0.743-0.106-1.464-0.191-2.165-0.254l-0.020 0.221zM18.986 12.343c0.694 0.128 1.404 0.271 2.131 0.428l0.047-0.216c-0.729-0.158-1.441-0.302-2.137-0.43l-0.040 0.218zM23.24 13.261c0.688 0.168 1.389 0.346 2.104 0.536l0.057-0.214c-0.716-0.19-1.419-0.369-2.108-0.537l-0.052 0.215zM27.442 14.373c0.687 0.194 1.384 0.397 2.093 0.607l0.063-0.212c-0.71-0.211-1.408-0.414-2.096-0.608l-0.060 0.213zM31.619 15.612c0.682 0.211 1.374 0.428 2.074 0.651l0.067-0.211c-0.701-0.223-1.394-0.441-2.076-0.652l-0.065 0.212zM35.764 16.93c0.681 0.222 1.37 0.449 2.068 0.681l0.070-0.21c-0.698-0.232-1.387-0.459-2.069-0.681l-0.069 0.211zM39.897 18.301c0.344 0.116 0.689 0.233 1.037 0.35l0.071-0.21c-0.348-0.118-0.693-0.234-1.037-0.35l-0.071 0.21zM40.933 18.652c0.363 0.123 0.72 0.237 1.074 0.342l0.063-0.212c-0.351-0.105-0.706-0.218-1.066-0.34l-0.071 0.21zM44.151 19.545c0.751 0.161 1.478 0.281 2.182 0.365l0.026-0.22c-0.696-0.082-1.417-0.202-2.161-0.361l-0.046 0.217zM48.534 20.053c0.778 0.007 1.52-0.035 2.227-0.122l-0.027-0.22c-0.697 0.085-1.43 0.127-2.199 0.12l-0.002 0.221zM52.935 19.5c0.746-0.21 1.441-0.474 2.084-0.786l-0.097-0.199c-0.631 0.306-1.313 0.566-2.047 0.772l0.060 0.213zM56.915 17.552c0.609-0.465 1.146-0.982 1.609-1.537l-0.17-0.142c-0.453 0.543-0.978 1.048-1.574 1.503l0.135 0.176zM59.74 14.147c0.333-0.677 0.577-1.385 0.729-2.107l-0.217-0.046c-0.148 0.704-0.386 1.394-0.711 2.055l0.199 0.098zM60.647 9.818c-0.036-0.738-0.167-1.475-0.395-2.194l-0.211 0.067c0.222 0.7 0.35 1.418 0.385 2.138l0.221-0.011zM59.315 5.603c-0.382-0.611-0.847-1.194-1.396-1.737l-0.156 0.157c0.537 0.531 0.991 1.101 1.364 1.697l0.188-0.117zM56.179 2.473c-0.592-0.384-1.244-0.732-1.957-1.036l-0.087 0.204c0.702 0.299 1.343 0.641 1.924 1.018l0.12-0.186zM52.111 0.717c-0.68-0.18-1.402-0.327-2.166-0.436l-0.031 0.219c0.756 0.108 1.469 0.253 2.141 0.431l0.057-0.214zM47.742 0.080c-0.367-0.016-0.743-0.024-1.126-0.024v0.221c0.38 0 0.753 0.008 1.117 0.024l0.010-0.221z"></path>
</symbol>
  </defs>
</svg>
