<svg xmlns="http://www.w3.org/2000/svg" aria-hidden="true" style="position:absolute;width:0;height:0;overflow:hidden">
  <defs>
    <symbol id="logo" viewBox="0 0 39 32">
      <path fill="#00a2de" d="M38.933 9.254v5.754a.714.714 0 0 1-.36.615l-11.16 6.476c-.393.228-.835.342-1.278.342s-.886-.114-1.28-.343l-1.035-.6a7.842 7.842 0 0 0-.596-.347c-1.039-.539-2.228-.846-3.49-.846a7.542 7.542 0 0 0-4.085 1.192l-1.035.6a2.562 2.562 0 0 1-2.559 0L.895 15.622a.714.714 0 0 1-.36-.615V9.253c0-.557.628-.901 1.123-.615l14.924 8.659a.716.716 0 0 0 .078.04c.937.416 1.978.647 3.074.647s2.141-.232 3.077-.648a.716.716 0 0 0 .078-.04l14.922-8.658c.494-.287 1.123.058 1.123.615z" style="fill:var(--color1, #00a2de)"/>
      <path fill="#fed165" d="M19.733 14.287c4.08 0 7.388-3.198 7.388-7.143S23.813.001 19.733.001s-7.388 3.198-7.388 7.143 3.308 7.143 7.388 7.143z" style="fill:var(--color2, #fed165)"/>
      <path fill="#38b077" d="M19.733 31.972V32H.534v-6.369h12.643c3.622 0 6.556 2.839 6.556 6.341z" style="fill:var(--color3, #38b077)"/>
      <path fill="#38b077" d="M38.933 25.631V32H19.732v-.028c0-3.502 2.936-6.341 6.558-6.341h12.643z" style="fill:var(--color3, #38b077)"/>
    </symbol>
    <symbol id="logo-with-text" viewBox="0 0 111 32">
      <path fill="#101010" d="M42.889 11.899V5.066a.17.17 0 0 1 .17-.169h1a.17.17 0 0 1 .17.169v2.448a.17.17 0 0 0 .17.169h2.937a.17.17 0 0 0 .17-.169V5.066a.17.17 0 0 1 .17-.169h1a.17.17 0 0 1 .17.169v6.833a.17.17 0 0 1-.17.169h-1a.17.17 0 0 1-.17-.169V9.072a.17.17 0 0 0-.17-.169h-2.937a.17.17 0 0 0-.17.169v2.827a.17.17 0 0 1-.17.169h-1a.17.17 0 0 1-.17-.169zM49.93 11.838l2.637-6.832a.17.17 0 0 1 .159-.108h1.262a.17.17 0 0 1 .158.107l2.691 6.833a.168.168 0 0 1-.158.23h-1.143a.17.17 0 0 1-.159-.11l-.53-1.404a.171.171 0 0 0-.159-.11h-2.664a.17.17 0 0 0-.16.111l-.511 1.401a.169.169 0 0 1-.16.111h-1.102a.169.169 0 0 1-.159-.229v-.001zm2.548-2.526h1.738a.169.169 0 0 0 .158-.23l-.883-2.266a.17.17 0 0 0-.317.002l-.855 2.266c-.042.11.04.228.16.228zM57.922 11.899V5.066a.17.17 0 0 1 .17-.169h2.412c.705 0 1.272.153 1.703.458.44.312.656.776.647 1.391a1.26 1.26 0 0 1-.11.502 1.852 1.852 0 0 1-.673.79.168.168 0 0 0 .017.291c.253.128.471.305.653.533.254.317.381.705.381 1.163 0 .403-.102.758-.306 1.065s-.496.547-.874.72c-.378.172-.825.259-1.34.259h-2.51a.17.17 0 0 1-.17-.169zm1.34-4.149a.17.17 0 0 0 .17.169h.877c.251 0 .469-.041.654-.123s.33-.201.433-.356a.983.983 0 0 0 .155-.556c0-.314-.109-.554-.327-.72s-.53-.248-.935-.248h-.856a.17.17 0 0 0-.17.169V7.75zm0 3.129a.17.17 0 0 0 .17.169h.959c.45 0 .786-.09 1.01-.269s.335-.448.335-.807c0-.358-.111-.621-.333-.809s-.557-.282-1.007-.282h-.964a.17.17 0 0 0-.17.169v1.829h-.001zM68.574 11.899V9.427a.17.17 0 0 0-.212-.164c-.225.054-.445.1-.662.136a5.45 5.45 0 0 1-.91.072c-.557 0-1.033-.091-1.43-.274s-.701-.469-.914-.858c-.213-.389-.319-.896-.319-1.521V5.066a.17.17 0 0 1 .17-.169h.999a.17.17 0 0 1 .17.169v1.562c0 .601.132 1.024.394 1.27s.645.369 1.146.369a6.147 6.147 0 0 0 1.432-.155.17.17 0 0 0 .134-.166v-2.88a.17.17 0 0 1 .17-.169h1a.17.17 0 0 1 .17.169v6.833a.17.17 0 0 1-.17.169h-1a.17.17 0 0 1-.17-.169h.001zM70.998 11.838l2.637-6.833a.17.17 0 0 1 .158-.108h1.262a.17.17 0 0 1 .158.107l2.691 6.833a.168.168 0 0 1-.158.23h-1.143a.17.17 0 0 1-.159-.11l-.53-1.404a.171.171 0 0 0-.159-.11h-2.664a.168.168 0 0 0-.159.111l-.512 1.401a.168.168 0 0 1-.159.111h-1.102a.17.17 0 0 1-.159-.229zm2.547-2.526h1.738a.169.169 0 0 0 .158-.23l-.883-2.266a.17.17 0 0 0-.318.002l-.855 2.266c-.042.11.04.228.159.228zM78.99 11.899V5.066a.17.17 0 0 1 .17-.169h1a.17.17 0 0 1 .17.169v2.448a.17.17 0 0 0 .169.169h2.938a.17.17 0 0 0 .17-.169V5.066a.17.17 0 0 1 .17-.169h1a.17.17 0 0 1 .17.169v6.833a.17.17 0 0 1-.17.169h-1a.17.17 0 0 1-.17-.169V9.072a.17.17 0 0 0-.17-.169h-2.938a.17.17 0 0 0-.169.169v2.827a.17.17 0 0 1-.17.169h-1a.17.17 0 0 1-.17-.169zM86.766 11.899V5.066a.17.17 0 0 1 .17-.169h1a.17.17 0 0 1 .17.169v2.448a.17.17 0 0 0 .17.169h2.938a.17.17 0 0 0 .17-.169V5.066a.17.17 0 0 1 .17-.169h.999a.17.17 0 0 1 .17.169v6.833a.17.17 0 0 1-.17.169h-.999a.17.17 0 0 1-.17-.169V9.072a.17.17 0 0 0-.17-.169h-2.938a.17.17 0 0 0-.17.169v2.827a.17.17 0 0 1-.17.169h-1a.17.17 0 0 1-.17-.169zM94.159 11.802l1.785-2.527a.17.17 0 0 0-.092-.259c-.44-.132-.791-.344-1.053-.636-.307-.341-.461-.779-.461-1.311 0-.454.107-.843.322-1.168s.519-.573.912-.745.856-.259 1.389-.259h2.52a.17.17 0 0 1 .17.169v6.833a.17.17 0 0 1-.17.169h-1a.17.17 0 0 1-.17-.169V9.43a.17.17 0 0 0-.17-.169h-.611a.171.171 0 0 0-.141.074l-1.816 2.659a.17.17 0 0 1-.141.074h-1.134a.169.169 0 0 1-.139-.266zM96.99 8.17h1.149a.17.17 0 0 0 .17-.169V6.182a.17.17 0 0 0-.17-.169h-1.093c-.426 0-.759.088-1 .264s-.36.439-.36.791c0 .352.11.627.329.817s.545.284.974.284zM47.337 21.776v-2.303a.245.245 0 0 0-.301-.237 9.22 9.22 0 0 1-.573.115 5.45 5.45 0 0 1-.91.072c-.556 0-1.033-.091-1.43-.274s-.702-.469-.915-.858c-.213-.389-.319-.896-.319-1.521v-1.677c0-.134.11-.244.245-.244h.849c.135 0 .245.109.245.244v1.487c0 .601.132 1.025.394 1.27s.645.369 1.147.369a6.147 6.147 0 0 0 1.373-.142.244.244 0 0 0 .194-.239v-2.745c0-.134.11-.244.245-.244h.849c.135 0 .245.109.245.244v6.683c0 .134-.11.244-.245.244h-.849a.245.245 0 0 1-.245-.244zM50.496 21.776v-6.683c0-.134.11-.244.245-.244h4.307c.135 0 .245.109.245.244v.68c0 .134-.11.244-.245.244H52.08a.245.245 0 0 0-.245.244v1.249c0 .134.11.244.245.244h2.468c.135 0 .245.109.245.244v.604c0 .134-.11.244-.245.244H52.08a.245.245 0 0 0-.245.244v1.51c0 .134.11.244.245.244h3.004c.135 0 .245.109.245.244v.691c0 .134-.11.244-.245.244h-4.343a.245.245 0 0 1-.245-.244zM56.886 21.776v-6.683c0-.134.11-.244.245-.244h2.46c.519 0 .979.09 1.381.269s.717.438.946.776c.228.338.343.745.343 1.219s-.105.89-.317 1.224c-.211.335-.518.59-.92.766s-.89.264-1.464.264h-1.09a.245.245 0 0 0-.245.244v2.166c0 .134-.11.244-.245.244h-.849a.245.245 0 0 1-.245-.244zm1.34-3.786c0 .134.11.244.245.244h1.084c.43 0 .764-.089 1.005-.266s.361-.454.361-.83c0-.375-.123-.658-.369-.847s-.574-.284-.987-.284H58.47a.245.245 0 0 0-.245.244v1.74zM63.498 21.776v-6.683c0-.134.11-.244.245-.244h4.307c.135 0 .246.109.246.244v.68c0 .134-.11.244-.246.244h-2.967a.245.245 0 0 0-.246.244v1.249c0 .134.11.244.246.244h2.468c.135 0 .245.109.245.244v.604c0 .134-.11.244-.245.244h-2.468a.245.245 0 0 0-.246.244v1.51c0 .134.11.244.246.244h3.003c.135 0 .246.109.246.244v.691c0 .134-.11.244-.246.244h-4.344a.245.245 0 0 1-.245-.244zM71.955 22.173c-.556 0-1.063-.07-1.52-.21a3.956 3.956 0 0 1-1.02-.471.244.244 0 0 1-.078-.327l.36-.619a.248.248 0 0 1 .357-.075c.2.138.425.252.678.342.348.125.713.187 1.095.187.329 0 .615-.046.855-.138s.427-.22.559-.384a.882.882 0 0 0 .198-.574c0-.341-.116-.6-.35-.776s-.596-.264-1.087-.264H70.82a.245.245 0 0 1-.246-.244v-.563c0-.134.11-.244.246-.244h1.079c.274 0 .511-.039.708-.118s.349-.19.456-.335c.106-.145.159-.32.159-.525s-.052-.37-.157-.507c-.105-.137-.261-.24-.469-.31s-.461-.105-.76-.105a2.9 2.9 0 0 0-.966.164 2.465 2.465 0 0 0-.596.3.248.248 0 0 1-.347-.075l-.36-.565a.243.243 0 0 1 .059-.326c.275-.208.595-.373.958-.495.443-.149.918-.223 1.423-.223s.984.076 1.365.228c.381.152.674.37.879.653s.306.623.306 1.019c0 .219-.05.431-.15.638a2 2 0 0 1-.56.701.24.24 0 0 0 .035.396c.223.123.414.282.574.477.249.304.371.686.368 1.147 0 .417-.12.792-.358 1.127s-.573.6-1.005.797c-.432.196-.934.294-1.508.294h-.001zM50.568 25.046v6.552a.31.31 0 0 1-.312.31h-.679a.312.312 0 0 1-.312-.311l.013-3.493c.001-.314-.416-.43-.579-.16l-1.407 2.333a.312.312 0 0 1-.267.15h-.592a.312.312 0 0 1-.265-.147l-1.491-2.412c-.165-.267-.578-.15-.577.163l.014 3.566a.31.31 0 0 1-.312.311H43.2a.311.311 0 0 1-.312-.31v-6.552a.31.31 0 0 1 .312-.31h.807c.109 0 .209.056.266.148l2.245 3.656c.123.2.416.197.535-.005l2.146-3.646a.311.311 0 0 1 .269-.153h.788c.172 0 .312.139.312.31zM52.387 31.597v-6.552c0-.171.14-.31.312-.31h.717c.172 0 .312.139.312.31v6.552c0 .171-.14.31-.312.31h-.717a.311.311 0 0 1-.312-.31zM55.546 31.597v-6.552a.31.31 0 0 1 .312-.31h2.394c.519 0 .979.09 1.381.269s.717.438.946.776c.229.338.343.744.343 1.219s-.106.889-.317 1.224c-.211.335-.518.59-.92.766s-.89.264-1.464.264h-1.023a.31.31 0 0 0-.311.31v2.034c0 .171-.14.31-.312.31h-.717a.31.31 0 0 1-.312-.31zm1.34-3.785c0 .171.14.31.312.31h1.018c.429 0 .764-.089 1.005-.266s.361-.454.361-.83-.123-.658-.368-.848c-.246-.19-.574-.284-.987-.284h-1.028a.311.311 0 0 0-.312.31v1.608zM67.694 31.907h-.925a.31.31 0 0 1-.246-.12l-2.287-2.926a.314.314 0 0 0-.246-.12h-.18a.311.311 0 0 0-.312.31v2.547c0 .171-.14.31-.312.31h-.717a.311.311 0 0 1-.312-.31v-6.552c0-.171.14-.31.312-.31h.717c.172 0 .312.139.312.31v2.167c0 .171.14.31.312.31h.196a.313.313 0 0 0 .248-.122l1.955-2.543a.313.313 0 0 1 .248-.122h.871a.31.31 0 0 1 .247.499l-2.111 2.714a.308.308 0 0 0 .003.383l2.472 3.073a.31.31 0 0 1-.243.503v-.001zM74.768 24.736a.31.31 0 0 1 .278.449l-1.931 3.797c-.247.488-.498.91-.752 1.264a5.115 5.115 0 0 1-.797.895c-.276.24-.571.432-.885.576a4.331 4.331 0 0 1-.76.261.313.313 0 0 1-.363-.184l-.269-.651a.31.31 0 0 1 .204-.415c.284-.085.544-.194.781-.328.329-.184.624-.432.887-.742.054-.064.107-.13.159-.2a.313.313 0 0 0 .024-.335l-2.163-3.929a.31.31 0 0 1 .273-.458h.915a.31.31 0 0 1 .275.166l1.274 2.416c.119.225.445.22.556-.009l1.166-2.398a.312.312 0 0 1 .281-.175h.85zM76.155 31.597v-6.552c0-.171.14-.31.312-.31h2.27c.704 0 1.272.153 1.703.459.413.293.628.719.646 1.279.008.251-.045.504-.164.726a1.824 1.824 0 0 1-.391.499l-.07.061a.311.311 0 0 0 .026.501c.184.116.346.263.487.439.254.317.381.705.381 1.163 0 .403-.102.758-.306 1.065s-.496.547-.873.72c-.378.172-.825.259-1.34.259h-2.369a.311.311 0 0 1-.312-.31zm1.34-4.149c0 .171.14.31.312.31h.734c.251 0 .469-.041.655-.123s.33-.201.433-.356a.98.98 0 0 0 .155-.556c0-.314-.109-.554-.327-.72s-.53-.248-.935-.248h-.714a.31.31 0 0 0-.312.31v1.383zm0 3.13c0 .171.14.31.312.31h.817c.451 0 .787-.09 1.01-.269s.335-.448.335-.807-.111-.621-.333-.809c-.221-.188-.558-.282-1.007-.282h-.822a.31.31 0 0 0-.312.31v1.548h-.001zM82.109 31.486l2.529-6.552a.311.311 0 0 1 .291-.199h1.068c.128 0 .243.078.29.197l2.58 6.552a.31.31 0 0 1-.29.422h-.838a.312.312 0 0 1-.292-.201l-.462-1.222a.312.312 0 0 0-.292-.201h-2.467a.313.313 0 0 0-.293.204l-.444 1.216a.311.311 0 0 1-.293.204h-.797a.31.31 0 0 1-.291-.42zm2.679-2.335h1.327a.31.31 0 0 0 .291-.421l-.675-1.731a.312.312 0 0 0-.582.003l-.653 1.731a.31.31 0 0 0 .292.418h.001zM90.028 31.597v-6.552c0-.171.14-.31.312-.31h.717c.172 0 .312.139.312.31v2.167c0 .171.14.31.312.31h2.655a.311.311 0 0 0 .312-.31v-2.167a.31.31 0 0 1 .311-.31h.717a.31.31 0 0 1 .312.31v6.552a.31.31 0 0 1-.312.31h-.717a.31.31 0 0 1-.311-.31v-2.546c0-.171-.14-.31-.312-.31h-2.655a.311.311 0 0 0-.312.31v2.546c0 .171-.14.31-.312.31h-.717a.311.311 0 0 1-.312-.31zM97.805 31.597v-6.552c0-.171.14-.31.312-.31h.717c.172 0 .312.139.312.31v2.167c0 .171.139.31.312.31h2.654a.31.31 0 0 0 .312-.31v-2.167c0-.171.14-.31.312-.31h.717c.172 0 .312.139.312.31v6.552c0 .171-.14.31-.312.31h-.717a.311.311 0 0 1-.312-.31v-2.546a.31.31 0 0 0-.312-.31h-2.654a.31.31 0 0 0-.312.31v2.546c0 .171-.14.31-.312.31h-.717a.311.311 0 0 1-.312-.31zM105.353 31.419l1.519-2.151a.307.307 0 0 0-.141-.466 2.186 2.186 0 0 1-.895-.583c-.307-.341-.461-.779-.461-1.311 0-.454.107-.843.322-1.168s.519-.573.912-.745.856-.259 1.389-.259h2.379c.172 0 .312.139.312.31v6.552c0 .171-.14.31-.312.31h-.717a.311.311 0 0 1-.312-.31V29.41c0-.171-.14-.31-.312-.31h-.394a.314.314 0 0 0-.258.136l-1.732 2.535a.312.312 0 0 1-.258.136h-.787a.309.309 0 0 1-.254-.487zm2.676-3.41h1.008a.311.311 0 0 0 .312-.31v-1.537c0-.171-.14-.31-.312-.31h-.951c-.426 0-.759.088-1 .264s-.36.439-.36.791.11.627.329.817c.22.189.545.284.974.284z" style="fill:var(--color4, #101010)"/>
      <path fill="#00a2de" d="M37.36 9.254v5.754a.717.717 0 0 1-.35.615l-10.858 6.476a2.43 2.43 0 0 1-2.489-.001l-1.007-.6a7.2 7.2 0 0 0-3.976-1.193 7.18 7.18 0 0 0-3.975 1.192l-1.007.6a2.435 2.435 0 0 1-2.49 0L.351 15.622a.717.717 0 0 1-.35-.615V9.253a.721.721 0 0 1 1.092-.615l14.52 8.659c.024.015.05.028.076.04.911.416 1.924.647 2.991.647s2.083-.232 2.994-.648a.788.788 0 0 0 .076-.04l14.518-8.658a.722.722 0 0 1 1.093.615z" style="fill:var(--color1, #00a2de)"/>
      <path fill="#fed165" d="M18.68 14.287c3.97 0 7.188-3.198 7.188-7.143S22.65.001 18.68.001c-3.97 0-7.188 3.198-7.188 7.143s3.218 7.143 7.188 7.143z" style="fill:var(--color2, #fed165)"/>
      <path fill="#38b077" d="M18.68 31.972V32H0v-6.369h12.301c3.523 0 6.379 2.839 6.379 6.341z" style="fill:var(--color3, #38b077)"/>
      <path fill="#38b077" d="M37.36 25.631V32H18.679v-.028c0-3.502 2.856-6.341 6.38-6.341H37.36z" style="fill:var(--color3, #38b077)"/>
    </symbol>
     <symbol id="logo-with-text-white" viewBox="0 0 111 32">
      <path fill="#fff" d="M42.889 11.899V5.066a.17.17 0 0 1 .17-.169h1a.17.17 0 0 1 .17.169v2.448a.17.17 0 0 0 .17.169h2.937a.17.17 0 0 0 .17-.169V5.066a.17.17 0 0 1 .17-.169h1a.17.17 0 0 1 .17.169v6.833a.17.17 0 0 1-.17.169h-1a.17.17 0 0 1-.17-.169V9.072a.17.17 0 0 0-.17-.169h-2.937a.17.17 0 0 0-.17.169v2.827a.17.17 0 0 1-.17.169h-1a.17.17 0 0 1-.17-.169zM49.93 11.838l2.637-6.832a.17.17 0 0 1 .159-.108h1.262a.17.17 0 0 1 .158.107l2.691 6.833a.168.168 0 0 1-.158.23h-1.143a.17.17 0 0 1-.159-.11l-.53-1.404a.171.171 0 0 0-.159-.11h-2.664a.17.17 0 0 0-.16.111l-.511 1.401a.169.169 0 0 1-.16.111h-1.102a.169.169 0 0 1-.159-.229v-.001zm2.548-2.526h1.738a.169.169 0 0 0 .158-.23l-.883-2.266a.17.17 0 0 0-.317.002l-.855 2.266c-.042.11.04.228.16.228zM57.922 11.899V5.066a.17.17 0 0 1 .17-.169h2.412c.705 0 1.272.153 1.703.458.44.312.656.776.647 1.391a1.26 1.26 0 0 1-.11.502 1.852 1.852 0 0 1-.673.79.168.168 0 0 0 .017.291c.253.128.471.305.653.533.254.317.381.705.381 1.163 0 .403-.102.758-.306 1.065s-.496.547-.874.72c-.378.172-.825.259-1.34.259h-2.51a.17.17 0 0 1-.17-.169zm1.34-4.149a.17.17 0 0 0 .17.169h.877c.251 0 .469-.041.654-.123s.33-.201.433-.356a.983.983 0 0 0 .155-.556c0-.314-.109-.554-.327-.72s-.53-.248-.935-.248h-.856a.17.17 0 0 0-.17.169V7.75zm0 3.129a.17.17 0 0 0 .17.169h.959c.45 0 .786-.09 1.01-.269s.335-.448.335-.807c0-.358-.111-.621-.333-.809s-.557-.282-1.007-.282h-.964a.17.17 0 0 0-.17.169v1.829h-.001zM68.574 11.899V9.427a.17.17 0 0 0-.212-.164c-.225.054-.445.1-.662.136a5.45 5.45 0 0 1-.91.072c-.557 0-1.033-.091-1.43-.274s-.701-.469-.914-.858c-.213-.389-.319-.896-.319-1.521V5.066a.17.17 0 0 1 .17-.169h.999a.17.17 0 0 1 .17.169v1.562c0 .601.132 1.024.394 1.27s.645.369 1.146.369a6.147 6.147 0 0 0 1.432-.155.17.17 0 0 0 .134-.166v-2.88a.17.17 0 0 1 .17-.169h1a.17.17 0 0 1 .17.169v6.833a.17.17 0 0 1-.17.169h-1a.17.17 0 0 1-.17-.169h.001zM70.998 11.838l2.637-6.833a.17.17 0 0 1 .158-.108h1.262a.17.17 0 0 1 .158.107l2.691 6.833a.168.168 0 0 1-.158.23h-1.143a.17.17 0 0 1-.159-.11l-.53-1.404a.171.171 0 0 0-.159-.11h-2.664a.168.168 0 0 0-.159.111l-.512 1.401a.168.168 0 0 1-.159.111h-1.102a.17.17 0 0 1-.159-.229zm2.547-2.526h1.738a.169.169 0 0 0 .158-.23l-.883-2.266a.17.17 0 0 0-.318.002l-.855 2.266c-.042.11.04.228.159.228zM78.99 11.899V5.066a.17.17 0 0 1 .17-.169h1a.17.17 0 0 1 .17.169v2.448a.17.17 0 0 0 .169.169h2.938a.17.17 0 0 0 .17-.169V5.066a.17.17 0 0 1 .17-.169h1a.17.17 0 0 1 .17.169v6.833a.17.17 0 0 1-.17.169h-1a.17.17 0 0 1-.17-.169V9.072a.17.17 0 0 0-.17-.169h-2.938a.17.17 0 0 0-.169.169v2.827a.17.17 0 0 1-.17.169h-1a.17.17 0 0 1-.17-.169zM86.766 11.899V5.066a.17.17 0 0 1 .17-.169h1a.17.17 0 0 1 .17.169v2.448a.17.17 0 0 0 .17.169h2.938a.17.17 0 0 0 .17-.169V5.066a.17.17 0 0 1 .17-.169h.999a.17.17 0 0 1 .17.169v6.833a.17.17 0 0 1-.17.169h-.999a.17.17 0 0 1-.17-.169V9.072a.17.17 0 0 0-.17-.169h-2.938a.17.17 0 0 0-.17.169v2.827a.17.17 0 0 1-.17.169h-1a.17.17 0 0 1-.17-.169zM94.159 11.802l1.785-2.527a.17.17 0 0 0-.092-.259c-.44-.132-.791-.344-1.053-.636-.307-.341-.461-.779-.461-1.311 0-.454.107-.843.322-1.168s.519-.573.912-.745.856-.259 1.389-.259h2.52a.17.17 0 0 1 .17.169v6.833a.17.17 0 0 1-.17.169h-1a.17.17 0 0 1-.17-.169V9.43a.17.17 0 0 0-.17-.169h-.611a.171.171 0 0 0-.141.074l-1.816 2.659a.17.17 0 0 1-.141.074h-1.134a.169.169 0 0 1-.139-.266zM96.99 8.17h1.149a.17.17 0 0 0 .17-.169V6.182a.17.17 0 0 0-.17-.169h-1.093c-.426 0-.759.088-1 .264s-.36.439-.36.791c0 .352.11.627.329.817s.545.284.974.284zM47.337 21.776v-2.303a.245.245 0 0 0-.301-.237 9.22 9.22 0 0 1-.573.115 5.45 5.45 0 0 1-.91.072c-.556 0-1.033-.091-1.43-.274s-.702-.469-.915-.858c-.213-.389-.319-.896-.319-1.521v-1.677c0-.134.11-.244.245-.244h.849c.135 0 .245.109.245.244v1.487c0 .601.132 1.025.394 1.27s.645.369 1.147.369a6.147 6.147 0 0 0 1.373-.142.244.244 0 0 0 .194-.239v-2.745c0-.134.11-.244.245-.244h.849c.135 0 .245.109.245.244v6.683c0 .134-.11.244-.245.244h-.849a.245.245 0 0 1-.245-.244zM50.496 21.776v-6.683c0-.134.11-.244.245-.244h4.307c.135 0 .245.109.245.244v.68c0 .134-.11.244-.245.244H52.08a.245.245 0 0 0-.245.244v1.249c0 .134.11.244.245.244h2.468c.135 0 .245.109.245.244v.604c0 .134-.11.244-.245.244H52.08a.245.245 0 0 0-.245.244v1.51c0 .134.11.244.245.244h3.004c.135 0 .245.109.245.244v.691c0 .134-.11.244-.245.244h-4.343a.245.245 0 0 1-.245-.244zM56.886 21.776v-6.683c0-.134.11-.244.245-.244h2.46c.519 0 .979.09 1.381.269s.717.438.946.776c.228.338.343.745.343 1.219s-.105.89-.317 1.224c-.211.335-.518.59-.92.766s-.89.264-1.464.264h-1.09a.245.245 0 0 0-.245.244v2.166c0 .134-.11.244-.245.244h-.849a.245.245 0 0 1-.245-.244zm1.34-3.786c0 .134.11.244.245.244h1.084c.43 0 .764-.089 1.005-.266s.361-.454.361-.83c0-.375-.123-.658-.369-.847s-.574-.284-.987-.284H58.47a.245.245 0 0 0-.245.244v1.74zM63.498 21.776v-6.683c0-.134.11-.244.245-.244h4.307c.135 0 .246.109.246.244v.68c0 .134-.11.244-.246.244h-2.967a.245.245 0 0 0-.246.244v1.249c0 .134.11.244.246.244h2.468c.135 0 .245.109.245.244v.604c0 .134-.11.244-.245.244h-2.468a.245.245 0 0 0-.246.244v1.51c0 .134.11.244.246.244h3.003c.135 0 .246.109.246.244v.691c0 .134-.11.244-.246.244h-4.344a.245.245 0 0 1-.245-.244zM71.955 22.173c-.556 0-1.063-.07-1.52-.21a3.956 3.956 0 0 1-1.02-.471.244.244 0 0 1-.078-.327l.36-.619a.248.248 0 0 1 .357-.075c.2.138.425.252.678.342.348.125.713.187 1.095.187.329 0 .615-.046.855-.138s.427-.22.559-.384a.882.882 0 0 0 .198-.574c0-.341-.116-.6-.35-.776s-.596-.264-1.087-.264H70.82a.245.245 0 0 1-.246-.244v-.563c0-.134.11-.244.246-.244h1.079c.274 0 .511-.039.708-.118s.349-.19.456-.335c.106-.145.159-.32.159-.525s-.052-.37-.157-.507c-.105-.137-.261-.24-.469-.31s-.461-.105-.76-.105a2.9 2.9 0 0 0-.966.164 2.465 2.465 0 0 0-.596.3.248.248 0 0 1-.347-.075l-.36-.565a.243.243 0 0 1 .059-.326c.275-.208.595-.373.958-.495.443-.149.918-.223 1.423-.223s.984.076 1.365.228c.381.152.674.37.879.653s.306.623.306 1.019c0 .219-.05.431-.15.638a2 2 0 0 1-.56.701.24.24 0 0 0 .035.396c.223.123.414.282.574.477.249.304.371.686.368 1.147 0 .417-.12.792-.358 1.127s-.573.6-1.005.797c-.432.196-.934.294-1.508.294h-.001zM50.568 25.046v6.552a.31.31 0 0 1-.312.31h-.679a.312.312 0 0 1-.312-.311l.013-3.493c.001-.314-.416-.43-.579-.16l-1.407 2.333a.312.312 0 0 1-.267.15h-.592a.312.312 0 0 1-.265-.147l-1.491-2.412c-.165-.267-.578-.15-.577.163l.014 3.566a.31.31 0 0 1-.312.311H43.2a.311.311 0 0 1-.312-.31v-6.552a.31.31 0 0 1 .312-.31h.807c.109 0 .209.056.266.148l2.245 3.656c.123.2.416.197.535-.005l2.146-3.646a.311.311 0 0 1 .269-.153h.788c.172 0 .312.139.312.31zM52.387 31.597v-6.552c0-.171.14-.31.312-.31h.717c.172 0 .312.139.312.31v6.552c0 .171-.14.31-.312.31h-.717a.311.311 0 0 1-.312-.31zM55.546 31.597v-6.552a.31.31 0 0 1 .312-.31h2.394c.519 0 .979.09 1.381.269s.717.438.946.776c.229.338.343.744.343 1.219s-.106.889-.317 1.224c-.211.335-.518.59-.92.766s-.89.264-1.464.264h-1.023a.31.31 0 0 0-.311.31v2.034c0 .171-.14.31-.312.31h-.717a.31.31 0 0 1-.312-.31zm1.34-3.785c0 .171.14.31.312.31h1.018c.429 0 .764-.089 1.005-.266s.361-.454.361-.83-.123-.658-.368-.848c-.246-.19-.574-.284-.987-.284h-1.028a.311.311 0 0 0-.312.31v1.608zM67.694 31.907h-.925a.31.31 0 0 1-.246-.12l-2.287-2.926a.314.314 0 0 0-.246-.12h-.18a.311.311 0 0 0-.312.31v2.547c0 .171-.14.31-.312.31h-.717a.311.311 0 0 1-.312-.31v-6.552c0-.171.14-.31.312-.31h.717c.172 0 .312.139.312.31v2.167c0 .171.14.31.312.31h.196a.313.313 0 0 0 .248-.122l1.955-2.543a.313.313 0 0 1 .248-.122h.871a.31.31 0 0 1 .247.499l-2.111 2.714a.308.308 0 0 0 .003.383l2.472 3.073a.31.31 0 0 1-.243.503v-.001zM74.768 24.736a.31.31 0 0 1 .278.449l-1.931 3.797c-.247.488-.498.91-.752 1.264a5.115 5.115 0 0 1-.797.895c-.276.24-.571.432-.885.576a4.331 4.331 0 0 1-.76.261.313.313 0 0 1-.363-.184l-.269-.651a.31.31 0 0 1 .204-.415c.284-.085.544-.194.781-.328.329-.184.624-.432.887-.742.054-.064.107-.13.159-.2a.313.313 0 0 0 .024-.335l-2.163-3.929a.31.31 0 0 1 .273-.458h.915a.31.31 0 0 1 .275.166l1.274 2.416c.119.225.445.22.556-.009l1.166-2.398a.312.312 0 0 1 .281-.175h.85zM76.155 31.597v-6.552c0-.171.14-.31.312-.31h2.27c.704 0 1.272.153 1.703.459.413.293.628.719.646 1.279.008.251-.045.504-.164.726a1.824 1.824 0 0 1-.391.499l-.07.061a.311.311 0 0 0 .026.501c.184.116.346.263.487.439.254.317.381.705.381 1.163 0 .403-.102.758-.306 1.065s-.496.547-.873.72c-.378.172-.825.259-1.34.259h-2.369a.311.311 0 0 1-.312-.31zm1.34-4.149c0 .171.14.31.312.31h.734c.251 0 .469-.041.655-.123s.33-.201.433-.356a.98.98 0 0 0 .155-.556c0-.314-.109-.554-.327-.72s-.53-.248-.935-.248h-.714a.31.31 0 0 0-.312.31v1.383zm0 3.13c0 .171.14.31.312.31h.817c.451 0 .787-.09 1.01-.269s.335-.448.335-.807-.111-.621-.333-.809c-.221-.188-.558-.282-1.007-.282h-.822a.31.31 0 0 0-.312.31v1.548h-.001zM82.109 31.486l2.529-6.552a.311.311 0 0 1 .291-.199h1.068c.128 0 .243.078.29.197l2.58 6.552a.31.31 0 0 1-.29.422h-.838a.312.312 0 0 1-.292-.201l-.462-1.222a.312.312 0 0 0-.292-.201h-2.467a.313.313 0 0 0-.293.204l-.444 1.216a.311.311 0 0 1-.293.204h-.797a.31.31 0 0 1-.291-.42zm2.679-2.335h1.327a.31.31 0 0 0 .291-.421l-.675-1.731a.312.312 0 0 0-.582.003l-.653 1.731a.31.31 0 0 0 .292.418h.001zM90.028 31.597v-6.552c0-.171.14-.31.312-.31h.717c.172 0 .312.139.312.31v2.167c0 .171.14.31.312.31h2.655a.311.311 0 0 0 .312-.31v-2.167a.31.31 0 0 1 .311-.31h.717a.31.31 0 0 1 .312.31v6.552a.31.31 0 0 1-.312.31h-.717a.31.31 0 0 1-.311-.31v-2.546c0-.171-.14-.31-.312-.31h-2.655a.311.311 0 0 0-.312.31v2.546c0 .171-.14.31-.312.31h-.717a.311.311 0 0 1-.312-.31zM97.805 31.597v-6.552c0-.171.14-.31.312-.31h.717c.172 0 .312.139.312.31v2.167c0 .171.139.31.312.31h2.654a.31.31 0 0 0 .312-.31v-2.167c0-.171.14-.31.312-.31h.717c.172 0 .312.139.312.31v6.552c0 .171-.14.31-.312.31h-.717a.311.311 0 0 1-.312-.31v-2.546a.31.31 0 0 0-.312-.31h-2.654a.31.31 0 0 0-.312.31v2.546c0 .171-.14.31-.312.31h-.717a.311.311 0 0 1-.312-.31zM105.353 31.419l1.519-2.151a.307.307 0 0 0-.141-.466 2.186 2.186 0 0 1-.895-.583c-.307-.341-.461-.779-.461-1.311 0-.454.107-.843.322-1.168s.519-.573.912-.745.856-.259 1.389-.259h2.379c.172 0 .312.139.312.31v6.552c0 .171-.14.31-.312.31h-.717a.311.311 0 0 1-.312-.31V29.41c0-.171-.14-.31-.312-.31h-.394a.314.314 0 0 0-.258.136l-1.732 2.535a.312.312 0 0 1-.258.136h-.787a.309.309 0 0 1-.254-.487zm2.676-3.41h1.008a.311.311 0 0 0 .312-.31v-1.537c0-.171-.14-.31-.312-.31h-.951c-.426 0-.759.088-1 .264s-.36.439-.36.791.11.627.329.817c.22.189.545.284.974.284z" style="fill: #fff)"/>
      <path fill="#00a2de" d="M37.36 9.254v5.754a.717.717 0 0 1-.35.615l-10.858 6.476a2.43 2.43 0 0 1-2.489-.001l-1.007-.6a7.2 7.2 0 0 0-3.976-1.193 7.18 7.18 0 0 0-3.975 1.192l-1.007.6a2.435 2.435 0 0 1-2.49 0L.351 15.622a.717.717 0 0 1-.35-.615V9.253a.721.721 0 0 1 1.092-.615l14.52 8.659c.024.015.05.028.076.04.911.416 1.924.647 2.991.647s2.083-.232 2.994-.648a.788.788 0 0 0 .076-.04l14.518-8.658a.722.722 0 0 1 1.093.615z" style="fill:var(--color1, #00a2de)"/>
      <path fill="#fed165" d="M18.68 14.287c3.97 0 7.188-3.198 7.188-7.143S22.65.001 18.68.001c-3.97 0-7.188 3.198-7.188 7.143s3.218 7.143 7.188 7.143z" style="fill:var(--color2, #fed165)"/>
      <path fill="#38b077" d="M18.68 31.972V32H0v-6.369h12.301c3.523 0 6.379 2.839 6.379 6.341z" style="fill:var(--color3, #38b077)"/>
      <path fill="#38b077" d="M37.36 25.631V32H18.679v-.028c0-3.502 2.856-6.341 6.38-6.341H37.36z" style="fill:var(--color3, #38b077)"/>
    </symbol>
    <symbol id="footer-facebook" viewBox="0 0 32 32">
      <path fill="#1877f2" d="M32 16c0-8.836-7.163-16-16-16S0 7.163 0 16c0 7.986 5.851 14.605 13.5 15.806V20.625H9.437V16H13.5v-3.525c0-4.01 2.389-6.225 6.043-6.225 1.751 0 3.582.313 3.582.313v3.938h-2.018c-1.988 0-2.607 1.233-2.607 2.499v3.001h4.437l-.709 4.625H18.5v11.181c7.649-1.2 13.5-7.819 13.5-15.806z" style="fill:var(--color5, #1877f2)"/>
      <path fill="#fff" d="M22.228 20.625 22.937 16H18.5v-3.001c0-1.265.62-2.499 2.607-2.499h2.018V6.562s-1.831-.313-3.582-.313c-3.655 0-6.043 2.215-6.043 6.225v3.525H9.437v4.625H13.5v11.181c.827.13 1.663.195 2.5.194s1.673-.065 2.5-.194V20.624h3.728z" style="fill:var(--color6, #fff)"/>
    </symbol>
    <symbol id="question-minus" viewBox="0 0 128 32">
      <path stroke-linecap="round" stroke-linejoin="round" stroke-width="21.333" d="M10.667 16h106.667"/>
    </symbol>
    <symbol id="question-plus" viewBox="0 0 30 32">
      <path stroke-linecap="round" stroke-linejoin="round" stroke-width="4.923" d="M2.462 16h24.615M14.769 28.308V3.693"/>
    </symbol>
    <symbol id="review-left" viewBox="0 0 19 32">
      <path fill="#fff" d="M18.466.704c.47.451.734 1.063.734 1.701s-.264 1.25-.734 1.701L6.053 16.014l12.413 11.908c.457.454.71 1.061.704 1.692s-.269 1.234-.734 1.68-1.094.699-1.751.704a2.565 2.565 0 0 1-1.764-.675L.735 17.714c-.47-.451-.734-1.063-.734-1.701s.264-1.25.734-1.701L14.921.703c.47-.451 1.108-.704 1.773-.704s1.303.253 1.773.704z" style="fill:var(--color6, #fff)"/>
    </symbol>
    <symbol id="review-right" viewBox="0 0 19 32">
      <path fill="#fff" d="M.734.704C.264 1.155 0 1.767 0 2.405s.264 1.25.734 1.701l12.413 11.908L.734 27.922c-.457.454-.71 1.061-.704 1.692s.269 1.234.734 1.68 1.094.699 1.751.704a2.563 2.563 0 0 0 1.764-.675l14.186-13.609c.47-.451.734-1.063.734-1.701s-.264-1.25-.734-1.701L4.279.703c-.47-.451-1.108-.704-1.773-.704S1.203.252.733.703z" style="fill:var(--color6, #fff)"/>
    </symbol>
    <symbol id="two-yellow-stars" viewBox="0 0 35 32">
      <path fill="#fed165" d="M6.473.04c1.237-.562 5.676 5.036 5.676 5.036s6.221-3.268 7.13-2.237c.908 1.031-2.906 7.027-2.906 7.027s4.95 5.095 4.269 6.301c-.681 1.206-7.425-.656-7.425-.656s-3.168 6.418-4.484 6.126c-1.317-.293-1.692-7.484-1.692-7.484S.138 12.982.002 11.647c-.136-1.335 6.38-3.971 6.38-3.971S5.235.66 6.473.04zM27.343 17.635c.738.037 1.485 3.849 1.485 3.849s3.821-.026 4.002.699c.181.725-3.158 2.669-3.158 2.669s1.119 3.696.489 4.109c-.63.413-3.423-2.17-3.423-2.17s-3.132 2.31-3.695 1.84c-.563-.47 1.051-4.037 1.051-4.037s-3.042-2.288-2.774-2.967c.267-.679 4.073-.325 4.073-.325s1.197-3.675 1.95-3.666z" style="fill:var(--color2, #fed165)"/>
    </symbol>
    <symbol id="yellow-star" viewBox="0 0 31 32">
      <path fill="#fed165" d="M12.712.374c1.964-.432 6.92 8.673 6.92 8.673s9.995-2.787 11.04-1.085c1.046 1.702-6.178 8.997-6.178 8.997s5.841 8.546 4.514 10.038C27.681 28.489 18.33 23.95 18.33 23.95s-6.393 8.07-8.238 7.283c-1.846-.787-.421-10.954-.421-10.954S-.102 16.661.065 14.755c.167-1.907 10.42-3.725 10.42-3.725S10.732.887 12.712.374z" style="fill:var(--color2, #fed165)"/>
    </symbol>
     <symbol id="about-school" viewBox="0 0 49 32">
      <path fill="#38b077" d="M34.977 2.698a.186.186 0 1 0 0 .372v-.372zm-2.419 15.721zm-29.116-.652zm8.186 11.256-1.833-1.12-.054 2.148 1.887-1.027zm-.835-.207a.186.186 0 1 0-.019.371l.019-.372zm-1.711.182a.186.186 0 0 0 .066-.366l-.066.366zm-1.52-.789c-.096-.035-.203.014-.239.111s.014.203.111.239l.128-.349zm-1.66-.41a.186.186 0 1 0 .204-.312l-.203.312zm-1.028-1.373a.187.187 0 0 0-.28.246l.279-.246zm-1.232-1.187a.186.186 0 0 0 .334-.164l-.334.164zm-.21-1.703a.186.186 0 1 0-.362.086l.362-.086zm-.606-1.604a.186.186 0 1 0 .371-.023l-.371.023zm.386-1.676c.008-.102-.069-.192-.172-.199s-.192.069-.199.172l.371.028zm-.143-1.712a.186.186 0 1 0 .365.071l-.365-.072zm.844-1.572a.186.186 0 1 0-.346-.136l.346.137zm.515-1.794c-.057.085-.035.201.051.258s.201.035.258-.051l-.309-.208zm1.479-1.125c.077-.068.085-.185.018-.262s-.185-.085-.263-.018l.245.28zm1.318-1.311a.187.187 0 0 0 .163.335l-.163-.334zm1.842-.261a.186.186 0 0 0-.087-.361l.087.362zm1.748-.64c-.102.008-.179.097-.172.199s.097.179.199.172l-.027-.371zm1.832.351a.186.186 0 1 0 .016-.372l-.017.372zm1.852-.207a.186.186 0 1 0-.049.369l.049-.369zm1.744.669a.186.186 0 1 0 .073-.365l-.073.365zm1.866.043a.186.186 0 1 0-.091.361l.091-.361zm1.661.845c.098.029.202-.027.231-.125s-.027-.202-.125-.231l-.106.357zm1.858.197c-.098-.032-.203.02-.235.118s.02.203.118.235l.118-.353zm1.601.952a.186.186 0 0 0 .127-.349l-.127.35zm1.844.297a.186.186 0 1 0-.135.347l.135-.347zm1.557 1.024a.186.186 0 0 0 .142-.344l-.141.344zm1.83.366c-.094-.041-.204.003-.244.098s.003.204.098.244l.147-.342zm1.527 1.074a.186.186 0 1 0 .152-.34l-.151.34zm1.818.414a.186.186 0 1 0-.155.339l.155-.338zm1.513 1.087c.095.039.204-.007.243-.102s-.007-.204-.102-.242l-.141.345zm1.799.233a.186.186 0 0 0-.103.358l.103-.358zm1.654.743c.102.015.196-.055.212-.156s-.055-.196-.156-.212l-.055.368zm1.808-.242a.186.186 0 1 0 .004.372l-.004-.372zm1.802.189a.186.186 0 1 0-.073-.365l.073.365zm1.589-.881a.187.187 0 0 0 .148.342l-.148-.341zm1.727-.566a.185.185 0 1 0-.221-.299l.221.299zm1.047-1.483a.186.186 0 1 0 .283.241l-.284-.241zm1.298-1.269a.187.187 0 0 0-.33-.172l.33.172zm.297-1.793a.187.187 0 0 0 .36.096l-.36-.095zm.632-1.703a.186.186 0 0 0-.372-.016l.372.016zm-.49-1.749a.186.186 0 0 0 .366-.066l-.366.066zm-.153-1.81a.186.186 0 1 0-.343.145l.343-.145zm-1.195-1.37a.186.186 0 1 0 .303-.217l-.302.217zm-.905-1.571a.186.186 0 0 0-.251.275l.251-.275zm-1.645-.769c.087.054.202.026.256-.061s.026-.202-.061-.256l-.195.317zM41.16 3.78a.187.187 0 0 0-.141.345l.141-.345zm-1.81-.202a.186.186 0 0 0 .092-.36l-.092.361zm-1.669-.703a.186.186 0 1 0-.051.369l.051-.369zm-1.805.213a.186.186 0 0 0 .016-.372l-.016.372zM9.148 28.632a9.437 9.437 0 0 1-1.586-.423l-.128.349a9.87 9.87 0 0 0 1.648.44l.066-.366zm-3.043-1.145a6.052 6.052 0 0 1-1.231-1.06l-.279.246c.364.413.796.793 1.306 1.126l.203-.312zm-2.129-2.412a7.374 7.374 0 0 1-.545-1.539l-.362.086c.13.546.315 1.092.573 1.617l.334-.164zm-.779-3.166a12.201 12.201 0 0 1 .015-1.653l-.371-.028a12.608 12.608 0 0 0-.015 1.703l.371-.023zm.237-3.293a10.58 10.58 0 0 1 .172-.743l.011-.04.003-.01.001-.002-.178-.053-.178-.053v.001l-.001.003-.003.011-.012.043-.043.164c-.036.142-.084.349-.135.606l.365.072zm.186-.795c.088-.296.186-.579.293-.849l-.346-.137c-.111.28-.212.573-.303.879l.357.106zm1.117-2.435a6.772 6.772 0 0 1 1.17-1.333l-.245-.28c-.46.401-.873.869-1.235 1.406l.309.208zm2.651-2.31a8.252 8.252 0 0 1 1.679-.595l-.087-.362a8.53 8.53 0 0 0-1.756.622l.163.334zm3.454-.864a15.182 15.182 0 0 1 1.805-.021l.017-.372a15.945 15.945 0 0 0-1.849.021l.027.371zm3.609.142c.582.077 1.18.177 1.792.3l.073-.365a27.963 27.963 0 0 0-1.816-.304l-.049.369zm3.566.704c.574.146 1.158.307 1.753.484l.106-.357a45.124 45.124 0 0 0-1.767-.488l-.091.361zm3.494 1.034c.566.189 1.139.389 1.718.599l.127-.35a66.389 66.389 0 0 0-1.728-.603l-.118.353zm3.427 1.243c.56.218 1.124.444 1.693.678l.141-.344c-.57-.234-1.137-.461-1.699-.68l-.135.347zm3.375 1.385c.555.238 1.113.483 1.674.733l.151-.34c-.562-.25-1.122-.495-1.679-.735l-.147.342zm3.337 1.484.83.383.157-.337-.832-.384-.155.338zm.83.383c.283.132.563.253.839.366l.141-.345c-.271-.11-.545-.23-.822-.359l-.157.337zm2.535.957c.604.173 1.19.301 1.756.385l.055-.368a13.348 13.348 0 0 1-1.708-.375l-.103.358zm3.568.515a9.76 9.76 0 0 0 1.798-.183l-.073-.365a9.448 9.448 0 0 1-1.73.176l.004.372zm3.535-.722a8.005 8.005 0 0 0 1.578-.907l-.221-.299a7.659 7.659 0 0 1-1.505.865l.148.341zm2.909-2.15a8.056 8.056 0 0 0 1.015-1.511l-.33-.172c-.266.512-.59.996-.968 1.441l.284.241zm1.671-3.207c.156-.586.248-1.19.273-1.798l-.372-.016a7.956 7.956 0 0 1-.261 1.718l.36.095zm.15-3.614a8.203 8.203 0 0 0-.52-1.744l-.343.145c.23.542.394 1.1.496 1.665l.366-.066zm-1.412-3.331a8.668 8.668 0 0 0-1.207-1.353l-.251.275a8.31 8.31 0 0 1 1.156 1.295l.302-.217zm-2.659-2.44a11.154 11.154 0 0 0-1.617-.815l-.141.345c.567.231 1.088.496 1.564.787l.195-.317zm-3.335-1.378a15.719 15.719 0 0 0-1.762-.342l-.051.369c.607.084 1.18.196 1.72.334l.092-.361zm-3.55-.5a21.078 21.078 0 0 0-.915-.019v.372c.306 0 .606.006.899.019l.016-.372z" style="fill:var(--color1, #38b077)"/>
      <path fill="#fed165" d="M19.163 28.93a3.07 3.07 0 1 1-6.14 0 3.07 3.07 0 0 1 6.14 0z" style="fill:var(--color2, #fed165)"/>
    </symbol>
     <symbol id="water-wave" viewBox="0 0 134 32">
      <path fill="none" stroke="#e5f6fc" stroke-linecap="round" stroke-linejoin="round" stroke-width="18.605" d="M-13.023 11.75c9.12 8.261 32.606 19.827 53.586 0 9.454 6.961 33.393 16.707 53.52 0 8.742 7.358 31.658 17.659 53.386 0 11.033 8.261 37.317 18.174 54.721-1.652" style="stroke:var(--color1, #e5f6fc)"/>
    </symbol>
     <symbol id="yellow-cirlce" viewBox="0 0 32 32">
      <path fill="#fed165" d="M32 16c0 8.837-7.163 16-16 16S0 24.837 0 16 7.163 0 16 0s16 7.163 16 16z" style="fill:var(--color1, #fed165)"/>
    </symbol>
  </defs>
</svg>
