<svg aria-hidden="true" style="position: absolute; width: 0; height: 0; overflow: hidden;" version="1.1" xmlns="http://www.w3.org/2000/svg" xmlns:xlink="http://www.w3.org/1999/xlink">
<defs>
<symbol id="logo" viewBox="0 0 39 32">
<path fill="#00a2de" style="fill: var(--color1, #00a2de)" d="M38.933 9.254v5.754c0 0.252-0.137 0.485-0.36 0.615l-11.16 6.476c-0.393 0.228-0.835 0.342-1.278 0.342s-0.886-0.114-1.28-0.343l-1.035-0.6c-0.193-0.124-0.392-0.24-0.596-0.347-1.039-0.539-2.228-0.846-3.49-0.846s-2.445 0.305-3.483 0.843c-0.207 0.107-0.408 0.223-0.602 0.349l-1.035 0.6c-0.788 0.457-1.772 0.456-2.559 0l-11.16-6.475c-0.223-0.13-0.36-0.363-0.36-0.615v-5.754c0-0.557 0.628-0.901 1.123-0.615l14.924 8.659c0.025 0.015 0.051 0.028 0.078 0.040 0.937 0.416 1.978 0.647 3.074 0.647s2.141-0.232 3.077-0.648c0.027-0.012 0.053-0.025 0.078-0.040l14.922-8.658c0.494-0.287 1.123 0.058 1.123 0.615h0z"></path>
<path fill="#fed165" style="fill: var(--color2, #fed165)" d="M19.733 14.287c4.080 0 7.388-3.198 7.388-7.143s-3.308-7.143-7.388-7.143c-4.080 0-7.388 3.198-7.388 7.143s3.308 7.143 7.388 7.143z"></path>
<path fill="#38b077" style="fill: var(--color3, #38b077)" d="M19.733 31.972v0.028h-19.199v-6.369h12.643c3.622 0 6.556 2.839 6.556 6.341h0z"></path>
<path fill="#38b077" style="fill: var(--color3, #38b077)" d="M38.933 25.631v6.369h-19.201v-0.028c0-3.502 2.936-6.341 6.558-6.341h12.643z"></path>
</symbol>
<symbol id="logo-with-text" viewBox="0 0 111 32">
<path fill="#101010" style="fill: var(--color4, #101010)" d="M42.889 11.899v-6.833c0-0.093 0.076-0.169 0.17-0.169h1c0.094 0 0.17 0.076 0.17 0.169v2.448c0 0.093 0.076 0.169 0.17 0.169h2.937c0.094 0 0.17-0.076 0.17-0.169v-2.448c0-0.093 0.076-0.169 0.17-0.169h1c0.094 0 0.17 0.076 0.17 0.169v6.833c0 0.093-0.076 0.169-0.17 0.169h-1c-0.094 0-0.17-0.076-0.17-0.169v-2.827c0-0.093-0.076-0.169-0.17-0.169h-2.937c-0.094 0-0.17 0.076-0.17 0.169v2.827c0 0.093-0.076 0.169-0.17 0.169h-1c-0.094 0-0.17-0.076-0.17-0.169z"></path>
<path fill="#101010" style="fill: var(--color4, #101010)" d="M49.93 11.838l2.637-6.832c0.025-0.065 0.089-0.108 0.159-0.108h1.262c0.070 0 0.133 0.043 0.158 0.107l2.691 6.833c0.044 0.111-0.038 0.23-0.158 0.23h-1.143c-0.071 0-0.134-0.044-0.159-0.11l-0.53-1.404c-0.025-0.066-0.089-0.11-0.159-0.11h-2.664c-0.071 0-0.135 0.044-0.16 0.111l-0.511 1.401c-0.024 0.067-0.088 0.111-0.16 0.111h-1.102c-0.119 0-0.202-0.119-0.159-0.229l0-0.001zM52.478 9.312h1.738c0.119 0 0.201-0.119 0.158-0.23l-0.883-2.266c-0.056-0.145-0.263-0.144-0.317 0.002l-0.855 2.266c-0.042 0.11 0.040 0.228 0.16 0.228z"></path>
<path fill="#101010" style="fill: var(--color4, #101010)" d="M57.922 11.899v-6.833c0-0.093 0.076-0.169 0.17-0.169h2.412c0.705 0 1.272 0.153 1.703 0.458 0.44 0.312 0.656 0.776 0.647 1.391-0.003 0.172-0.038 0.345-0.11 0.502-0.108 0.237-0.257 0.441-0.446 0.612-0.073 0.066-0.149 0.125-0.227 0.178-0.109 0.073-0.1 0.232 0.017 0.291 0.253 0.128 0.471 0.305 0.653 0.533 0.254 0.317 0.381 0.705 0.381 1.163 0 0.403-0.102 0.758-0.306 1.065s-0.496 0.547-0.874 0.72c-0.378 0.172-0.825 0.259-1.34 0.259h-2.51c-0.094 0-0.17-0.076-0.17-0.169v-0zM59.262 7.75c0 0.093 0.076 0.169 0.17 0.169h0.877c0.251 0 0.469-0.041 0.654-0.123s0.33-0.201 0.433-0.356c0.103-0.155 0.155-0.341 0.155-0.556 0-0.314-0.109-0.554-0.327-0.72s-0.53-0.248-0.935-0.248h-0.856c-0.094 0-0.17 0.076-0.17 0.169v1.665zM59.262 10.879c0 0.093 0.076 0.169 0.17 0.169h0.959c0.45 0 0.786-0.090 1.010-0.269s0.335-0.448 0.335-0.807c0-0.358-0.111-0.621-0.333-0.809s-0.557-0.282-1.007-0.282h-0.964c-0.094 0-0.17 0.076-0.17 0.169v1.829h-0.001z"></path>
<path fill="#101010" style="fill: var(--color4, #101010)" d="M68.574 11.899v-2.472c0-0.11-0.104-0.19-0.212-0.164-0.225 0.054-0.445 0.1-0.662 0.136-0.283 0.048-0.587 0.072-0.91 0.072-0.557 0-1.033-0.091-1.43-0.274s-0.701-0.469-0.914-0.858c-0.213-0.389-0.319-0.896-0.319-1.521v-1.752c0-0.093 0.076-0.169 0.17-0.169h0.999c0.094 0 0.17 0.076 0.17 0.169v1.562c0 0.601 0.132 1.024 0.394 1.27s0.645 0.369 1.146 0.369c0.316 0 0.596-0.017 0.84-0.051 0.198-0.028 0.396-0.062 0.592-0.104 0.078-0.017 0.134-0.086 0.134-0.166v-2.88c0-0.093 0.076-0.169 0.17-0.169h1c0.094 0 0.17 0.076 0.17 0.169v6.833c0 0.093-0.076 0.169-0.17 0.169h-1c-0.094 0-0.17-0.076-0.17-0.169h0.001z"></path>
<path fill="#101010" style="fill: var(--color4, #101010)" d="M70.998 11.838l2.637-6.833c0.025-0.065 0.088-0.108 0.158-0.108h1.262c0.070 0 0.133 0.043 0.158 0.107l2.691 6.833c0.044 0.111-0.038 0.23-0.158 0.23h-1.143c-0.071 0-0.134-0.044-0.159-0.11l-0.53-1.404c-0.025-0.066-0.089-0.11-0.159-0.11h-2.664c-0.071 0-0.135 0.044-0.159 0.111l-0.512 1.401c-0.024 0.067-0.088 0.111-0.159 0.111h-1.102c-0.119 0-0.201-0.119-0.159-0.229v-0zM73.545 9.312h1.738c0.119 0 0.201-0.119 0.158-0.23l-0.883-2.266c-0.057-0.145-0.263-0.144-0.318 0.002l-0.855 2.266c-0.042 0.11 0.040 0.228 0.159 0.228z"></path>
<path fill="#101010" style="fill: var(--color4, #101010)" d="M78.99 11.899v-6.833c0-0.093 0.076-0.169 0.17-0.169h1c0.093 0 0.17 0.076 0.17 0.169v2.448c0 0.093 0.076 0.169 0.169 0.169h2.938c0.094 0 0.17-0.076 0.17-0.169v-2.448c0-0.093 0.076-0.169 0.17-0.169h1c0.094 0 0.17 0.076 0.17 0.169v6.833c0 0.093-0.076 0.169-0.17 0.169h-1c-0.094 0-0.17-0.076-0.17-0.169v-2.827c0-0.093-0.076-0.169-0.17-0.169h-2.938c-0.093 0-0.169 0.076-0.169 0.169v2.827c0 0.093-0.077 0.169-0.17 0.169h-1c-0.094 0-0.17-0.076-0.17-0.169z"></path>
<path fill="#101010" style="fill: var(--color4, #101010)" d="M86.766 11.899v-6.833c0-0.093 0.077-0.169 0.17-0.169h1c0.094 0 0.17 0.076 0.17 0.169v2.448c0 0.093 0.076 0.169 0.17 0.169h2.938c0.094 0 0.17-0.076 0.17-0.169v-2.448c0-0.093 0.076-0.169 0.17-0.169h0.999c0.094 0 0.17 0.076 0.17 0.169v6.833c0 0.093-0.076 0.169-0.17 0.169h-0.999c-0.094 0-0.17-0.076-0.17-0.169v-2.827c0-0.093-0.076-0.169-0.17-0.169h-2.938c-0.094 0-0.17 0.076-0.17 0.169v2.827c0 0.093-0.076 0.169-0.17 0.169h-1c-0.093 0-0.17-0.076-0.17-0.169z"></path>
<path fill="#101010" style="fill: var(--color4, #101010)" d="M94.159 11.802l1.785-2.527c0.067-0.095 0.019-0.225-0.092-0.259-0.44-0.132-0.791-0.344-1.053-0.636-0.307-0.341-0.461-0.779-0.461-1.311 0-0.454 0.107-0.843 0.322-1.168s0.519-0.573 0.912-0.745 0.856-0.259 1.389-0.259h2.52c0.094 0 0.17 0.076 0.17 0.169v6.833c0 0.093-0.076 0.169-0.17 0.169h-1c-0.094 0-0.17-0.076-0.17-0.169v-2.469c0-0.093-0.076-0.169-0.17-0.169h-0.611c-0.057 0-0.109 0.028-0.141 0.074l-1.816 2.659c-0.031 0.046-0.084 0.074-0.141 0.074h-1.134c-0.138 0-0.218-0.154-0.139-0.266v-0zM96.99 8.17h1.149c0.094 0 0.17-0.076 0.17-0.169v-1.819c0-0.093-0.076-0.169-0.17-0.169h-1.093c-0.426 0-0.759 0.088-1 0.264s-0.36 0.439-0.36 0.791c0 0.352 0.11 0.627 0.329 0.817s0.545 0.284 0.974 0.284v0z"></path>
<path fill="#101010" style="fill: var(--color4, #101010)" d="M47.337 21.776v-2.303c0-0.157-0.147-0.272-0.301-0.237-0.195 0.045-0.385 0.084-0.573 0.115-0.283 0.048-0.587 0.072-0.91 0.072-0.556 0-1.033-0.091-1.43-0.274s-0.702-0.469-0.915-0.858c-0.213-0.389-0.319-0.896-0.319-1.521v-1.677c0-0.134 0.11-0.244 0.245-0.244h0.849c0.135 0 0.245 0.109 0.245 0.244v1.487c0 0.601 0.132 1.025 0.394 1.27s0.645 0.369 1.147 0.369c0.316 0 0.596-0.017 0.84-0.051 0.178-0.025 0.356-0.055 0.533-0.091 0.113-0.023 0.194-0.124 0.194-0.239v-2.745c0-0.134 0.11-0.244 0.245-0.244h0.849c0.135 0 0.245 0.109 0.245 0.244v6.683c0 0.134-0.11 0.244-0.245 0.244h-0.849c-0.135 0-0.245-0.109-0.245-0.244l-0 0z"></path>
<path fill="#101010" style="fill: var(--color4, #101010)" d="M50.496 21.776v-6.683c0-0.134 0.11-0.244 0.245-0.244h4.307c0.135 0 0.245 0.109 0.245 0.244v0.68c0 0.134-0.11 0.244-0.245 0.244h-2.968c-0.135 0-0.245 0.109-0.245 0.244v1.249c0 0.134 0.11 0.244 0.245 0.244h2.468c0.135 0 0.245 0.109 0.245 0.244v0.604c0 0.134-0.11 0.244-0.245 0.244h-2.468c-0.135 0-0.245 0.109-0.245 0.244v1.51c0 0.134 0.11 0.244 0.245 0.244h3.004c0.135 0 0.245 0.109 0.245 0.244v0.691c0 0.134-0.11 0.244-0.245 0.244h-4.343c-0.135 0-0.245-0.109-0.245-0.244h-0z"></path>
<path fill="#101010" style="fill: var(--color4, #101010)" d="M56.886 21.776v-6.683c0-0.134 0.11-0.244 0.245-0.244h2.46c0.519 0 0.979 0.090 1.381 0.269s0.717 0.438 0.946 0.776c0.228 0.338 0.343 0.745 0.343 1.219s-0.105 0.89-0.317 1.224c-0.211 0.335-0.518 0.59-0.92 0.766s-0.89 0.264-1.464 0.264h-1.090c-0.135 0-0.245 0.109-0.245 0.244v2.166c0 0.134-0.11 0.244-0.245 0.244h-0.849c-0.135 0-0.245-0.109-0.245-0.244zM58.226 17.99c0 0.134 0.11 0.244 0.245 0.244h1.084c0.43 0 0.764-0.089 1.005-0.266s0.361-0.454 0.361-0.83c0-0.375-0.123-0.658-0.369-0.847s-0.574-0.284-0.987-0.284h-1.095c-0.135 0-0.245 0.109-0.245 0.244v1.74z"></path>
<path fill="#101010" style="fill: var(--color4, #101010)" d="M63.498 21.776v-6.683c0-0.134 0.11-0.244 0.245-0.244h4.307c0.135 0 0.246 0.109 0.246 0.244v0.68c0 0.134-0.11 0.244-0.246 0.244h-2.967c-0.135 0-0.246 0.109-0.246 0.244v1.249c0 0.134 0.11 0.244 0.246 0.244h2.468c0.135 0 0.245 0.109 0.245 0.244v0.604c0 0.134-0.11 0.244-0.245 0.244h-2.468c-0.135 0-0.246 0.109-0.246 0.244v1.51c0 0.134 0.11 0.244 0.246 0.244h3.003c0.135 0 0.246 0.109 0.246 0.244v0.691c0 0.134-0.11 0.244-0.246 0.244h-4.344c-0.135 0-0.245-0.109-0.245-0.244z"></path>
<path fill="#101010" style="fill: var(--color4, #101010)" d="M71.955 22.173c-0.556 0-1.063-0.070-1.52-0.21-0.376-0.115-0.717-0.272-1.020-0.471-0.109-0.071-0.143-0.215-0.078-0.327l0.36-0.619c0.073-0.126 0.237-0.157 0.357-0.075 0.2 0.138 0.425 0.252 0.678 0.342 0.348 0.125 0.713 0.187 1.095 0.187 0.329 0 0.615-0.046 0.855-0.138s0.427-0.22 0.559-0.384c0.133-0.164 0.198-0.355 0.198-0.574 0-0.341-0.116-0.6-0.35-0.776s-0.596-0.264-1.087-0.264h-1.182c-0.135 0-0.246-0.109-0.246-0.244v-0.563c0-0.134 0.11-0.244 0.246-0.244h1.079c0.274 0 0.511-0.039 0.708-0.118s0.349-0.19 0.456-0.335c0.106-0.145 0.159-0.32 0.159-0.525s-0.052-0.37-0.157-0.507c-0.105-0.137-0.261-0.24-0.469-0.31s-0.461-0.105-0.76-0.105c-0.333 0-0.655 0.055-0.966 0.164-0.222 0.078-0.421 0.178-0.596 0.3-0.114 0.079-0.272 0.042-0.347-0.075l-0.36-0.565c-0.069-0.107-0.043-0.249 0.059-0.326 0.275-0.208 0.595-0.373 0.958-0.495 0.443-0.149 0.918-0.223 1.423-0.223s0.984 0.076 1.365 0.228c0.381 0.152 0.674 0.37 0.879 0.653s0.306 0.623 0.306 1.019c0 0.219-0.050 0.431-0.15 0.638s-0.231 0.391-0.394 0.553c-0.053 0.053-0.109 0.103-0.166 0.148-0.133 0.105-0.113 0.314 0.035 0.396 0.223 0.123 0.414 0.282 0.574 0.477 0.249 0.304 0.371 0.686 0.368 1.147 0 0.417-0.12 0.792-0.358 1.127s-0.573 0.6-1.005 0.797c-0.432 0.196-0.934 0.294-1.508 0.294l-0.001-0z"></path>
<path fill="#101010" style="fill: var(--color4, #101010)" d="M50.568 25.046v6.552c0 0.171-0.139 0.31-0.312 0.31h-0.679c-0.172 0-0.312-0.139-0.312-0.311l0.013-3.493c0.001-0.314-0.416-0.43-0.579-0.16l-1.407 2.333c-0.056 0.093-0.158 0.15-0.267 0.15h-0.592c-0.108 0-0.209-0.056-0.265-0.147l-1.491-2.412c-0.165-0.267-0.578-0.15-0.577 0.163l0.014 3.566c0.001 0.171-0.139 0.311-0.312 0.311h-0.602c-0.172 0-0.312-0.139-0.312-0.31v-6.552c0-0.171 0.139-0.31 0.312-0.31h0.807c0.109 0 0.209 0.056 0.266 0.148l2.245 3.656c0.123 0.2 0.416 0.197 0.535-0.005l2.146-3.646c0.056-0.095 0.158-0.153 0.269-0.153h0.788c0.172 0 0.312 0.139 0.312 0.31h0z"></path>
<path fill="#101010" style="fill: var(--color4, #101010)" d="M52.387 31.597v-6.552c0-0.171 0.14-0.31 0.312-0.31h0.717c0.172 0 0.312 0.139 0.312 0.31v6.552c0 0.171-0.14 0.31-0.312 0.31h-0.717c-0.172 0-0.312-0.139-0.312-0.31z"></path>
<path fill="#101010" style="fill: var(--color4, #101010)" d="M55.546 31.597v-6.552c0-0.171 0.139-0.31 0.312-0.31h2.394c0.519 0 0.979 0.090 1.381 0.269s0.717 0.438 0.946 0.776c0.229 0.338 0.343 0.744 0.343 1.219s-0.106 0.889-0.317 1.224c-0.211 0.335-0.518 0.59-0.92 0.766s-0.89 0.264-1.464 0.264h-1.023c-0.172 0-0.311 0.139-0.311 0.31v2.034c0 0.171-0.14 0.31-0.312 0.31h-0.717c-0.173 0-0.312-0.139-0.312-0.31v0zM56.886 27.812c0 0.171 0.14 0.31 0.312 0.31h1.018c0.429 0 0.764-0.089 1.005-0.266s0.361-0.454 0.361-0.83-0.123-0.658-0.368-0.848c-0.246-0.19-0.574-0.284-0.987-0.284h-1.028c-0.172 0-0.312 0.139-0.312 0.31v1.608z"></path>
<path fill="#101010" style="fill: var(--color4, #101010)" d="M67.694 31.907h-0.925c-0.097 0-0.187-0.044-0.246-0.12l-2.287-2.926c-0.059-0.075-0.15-0.12-0.246-0.12h-0.18c-0.172 0-0.312 0.139-0.312 0.31v2.547c0 0.171-0.14 0.31-0.312 0.31h-0.717c-0.172 0-0.312-0.139-0.312-0.31v-6.552c0-0.171 0.14-0.31 0.312-0.31h0.717c0.172 0 0.312 0.139 0.312 0.31v2.167c0 0.171 0.14 0.31 0.312 0.31h0.196c0.097 0 0.189-0.045 0.248-0.122l1.955-2.543c0.059-0.077 0.151-0.122 0.248-0.122h0.871c0.259 0 0.404 0.295 0.247 0.499l-2.111 2.714c-0.088 0.113-0.087 0.271 0.003 0.383l2.472 3.073c0.163 0.203 0.018 0.503-0.243 0.503v-0.001z"></path>
<path fill="#101010" style="fill: var(--color4, #101010)" d="M74.768 24.736c0.232 0 0.383 0.243 0.278 0.449l-1.931 3.797c-0.247 0.488-0.498 0.91-0.752 1.264-0.254 0.355-0.519 0.654-0.797 0.895-0.276 0.24-0.571 0.432-0.885 0.576-0.238 0.108-0.491 0.195-0.76 0.261-0.15 0.037-0.304-0.042-0.363-0.184l-0.269-0.651c-0.071-0.171 0.025-0.362 0.204-0.415 0.284-0.085 0.544-0.194 0.781-0.328 0.329-0.184 0.624-0.432 0.887-0.742 0.054-0.064 0.107-0.13 0.159-0.2 0.072-0.098 0.082-0.229 0.024-0.335l-2.163-3.929c-0.114-0.206 0.036-0.458 0.273-0.458h0.915c0.116 0 0.222 0.064 0.275 0.166l1.274 2.416c0.119 0.225 0.445 0.22 0.556-0.009l1.166-2.398c0.052-0.107 0.161-0.175 0.281-0.175l0.85 0z"></path>
<path fill="#101010" style="fill: var(--color4, #101010)" d="M76.155 31.597v-6.552c0-0.171 0.14-0.31 0.312-0.31h2.27c0.704 0 1.272 0.153 1.703 0.459 0.413 0.293 0.628 0.719 0.646 1.279 0.008 0.251-0.045 0.504-0.164 0.726-0.101 0.189-0.232 0.356-0.391 0.499-0.023 0.021-0.047 0.041-0.070 0.061-0.161 0.133-0.151 0.389 0.026 0.501 0.184 0.116 0.346 0.263 0.487 0.439 0.254 0.317 0.381 0.705 0.381 1.163 0 0.403-0.102 0.758-0.306 1.065s-0.496 0.547-0.873 0.72c-0.378 0.172-0.825 0.259-1.34 0.259h-2.369c-0.172 0-0.312-0.139-0.312-0.31v0zM77.495 27.448c0 0.171 0.14 0.31 0.312 0.31h0.734c0.251 0 0.469-0.041 0.655-0.123s0.33-0.201 0.433-0.356c0.103-0.155 0.155-0.34 0.155-0.556 0-0.314-0.109-0.554-0.327-0.72s-0.53-0.248-0.935-0.248h-0.714c-0.173 0-0.312 0.139-0.312 0.31v1.383zM77.495 30.578c0 0.171 0.14 0.31 0.312 0.31h0.817c0.451 0 0.787-0.090 1.010-0.269s0.335-0.448 0.335-0.807-0.111-0.621-0.333-0.809c-0.221-0.188-0.558-0.282-1.007-0.282h-0.822c-0.173 0-0.312 0.139-0.312 0.31v1.548l-0.001-0z"></path>
<path fill="#101010" style="fill: var(--color4, #101010)" d="M82.109 31.486l2.529-6.552c0.046-0.12 0.162-0.199 0.291-0.199h1.068c0.128 0 0.243 0.078 0.29 0.197l2.58 6.552c0.080 0.203-0.071 0.422-0.29 0.422h-0.838c-0.13 0-0.246-0.080-0.292-0.201l-0.462-1.222c-0.046-0.121-0.162-0.201-0.292-0.201h-2.467c-0.131 0-0.248 0.082-0.293 0.204l-0.444 1.216c-0.045 0.123-0.162 0.204-0.293 0.204h-0.797c-0.219 0-0.369-0.218-0.291-0.42v-0zM84.788 29.151h1.327c0.219 0 0.369-0.218 0.291-0.421l-0.675-1.731c-0.103-0.265-0.482-0.263-0.582 0.003l-0.653 1.731c-0.076 0.202 0.075 0.418 0.292 0.418h0.001z"></path>
<path fill="#101010" style="fill: var(--color4, #101010)" d="M90.028 31.597v-6.552c0-0.171 0.14-0.31 0.312-0.31h0.717c0.172 0 0.312 0.139 0.312 0.31v2.167c0 0.171 0.14 0.31 0.312 0.31h2.655c0.172 0 0.312-0.139 0.312-0.31v-2.167c0-0.171 0.139-0.31 0.311-0.31h0.717c0.173 0 0.312 0.139 0.312 0.31v6.552c0 0.171-0.139 0.31-0.312 0.31h-0.717c-0.172 0-0.311-0.139-0.311-0.31v-2.546c0-0.171-0.14-0.31-0.312-0.31h-2.655c-0.172 0-0.312 0.139-0.312 0.31v2.546c0 0.171-0.14 0.31-0.312 0.31h-0.717c-0.172 0-0.312-0.139-0.312-0.31z"></path>
<path fill="#101010" style="fill: var(--color4, #101010)" d="M97.805 31.597v-6.552c0-0.171 0.14-0.31 0.312-0.31h0.717c0.172 0 0.312 0.139 0.312 0.31v2.167c0 0.171 0.139 0.31 0.312 0.31h2.654c0.173 0 0.312-0.139 0.312-0.31v-2.167c0-0.171 0.14-0.31 0.312-0.31h0.717c0.172 0 0.312 0.139 0.312 0.31v6.552c0 0.171-0.14 0.31-0.312 0.31h-0.717c-0.172 0-0.312-0.139-0.312-0.31v-2.546c0-0.171-0.139-0.31-0.312-0.31h-2.654c-0.173 0-0.312 0.139-0.312 0.31v2.546c0 0.171-0.14 0.31-0.312 0.31h-0.717c-0.172 0-0.312-0.139-0.312-0.31z"></path>
<path fill="#101010" style="fill: var(--color4, #101010)" d="M105.353 31.419l1.519-2.151c0.116-0.164 0.049-0.397-0.141-0.466-0.366-0.133-0.665-0.328-0.895-0.583-0.307-0.341-0.461-0.779-0.461-1.311 0-0.454 0.107-0.843 0.322-1.168s0.519-0.573 0.912-0.745 0.856-0.259 1.389-0.259h2.379c0.172 0 0.312 0.139 0.312 0.31v6.552c0 0.171-0.14 0.31-0.312 0.31h-0.717c-0.172 0-0.312-0.139-0.312-0.31v-2.188c0-0.171-0.14-0.31-0.312-0.31h-0.394c-0.103 0-0.199 0.051-0.258 0.136l-1.732 2.535c-0.058 0.085-0.154 0.136-0.258 0.136h-0.787c-0.252 0-0.4-0.282-0.254-0.487v-0zM108.029 28.009h1.008c0.172 0 0.312-0.139 0.312-0.31v-1.537c0-0.171-0.14-0.31-0.312-0.31h-0.951c-0.426 0-0.759 0.088-1 0.264s-0.36 0.439-0.36 0.791 0.11 0.627 0.329 0.817c0.22 0.189 0.545 0.284 0.974 0.284v0z"></path>
<path fill="#00a2de" style="fill: var(--color1, #00a2de)" d="M37.36 9.254v5.754c0 0.252-0.133 0.485-0.35 0.615l-10.858 6.476c-0.383 0.228-0.813 0.342-1.244 0.342s-0.862-0.114-1.245-0.343l-1.007-0.6c-0.188-0.124-0.381-0.24-0.58-0.347-1.011-0.539-2.168-0.846-3.396-0.846s-2.379 0.305-3.389 0.843c-0.201 0.107-0.397 0.223-0.586 0.349l-1.007 0.6c-0.767 0.457-1.724 0.456-2.49 0l-10.857-6.475c-0.217-0.13-0.35-0.363-0.35-0.615v-5.754c0-0.557 0.611-0.901 1.092-0.615l14.52 8.659c0.024 0.015 0.050 0.028 0.076 0.040 0.911 0.416 1.924 0.647 2.991 0.647s2.083-0.232 2.994-0.648c0.026-0.012 0.051-0.025 0.076-0.040l14.518-8.658c0.481-0.287 1.093 0.058 1.093 0.615h0z"></path>
<path fill="#fed165" style="fill: var(--color2, #fed165)" d="M18.68 14.287c3.97 0 7.188-3.198 7.188-7.143s-3.218-7.143-7.188-7.143c-3.97 0-7.188 3.198-7.188 7.143s3.218 7.143 7.188 7.143z"></path>
<path fill="#38b077" style="fill: var(--color3, #38b077)" d="M18.68 31.972v0.028h-18.68v-6.369h12.301c3.523 0 6.379 2.839 6.379 6.341h0z"></path>
<path fill="#38b077" style="fill: var(--color3, #38b077)" d="M37.36 25.631v6.369h-18.681v-0.028c0-3.502 2.856-6.341 6.38-6.341h12.301z"></path>
</symbol>
<symbol id="footer-facebook" viewBox="0 0 32 32">
<path fill="#1877f2" style="fill: var(--color5, #1877f2)" d="M32 16c0-8.836-7.163-16-16-16s-16 7.163-16 16c0 7.986 5.851 14.605 13.5 15.806v-11.181h-4.063v-4.625h4.063v-3.525c0-4.010 2.389-6.225 6.043-6.225 1.751 0 3.582 0.313 3.582 0.313v3.938h-2.018c-1.988 0-2.607 1.233-2.607 2.499v3.001h4.437l-0.709 4.625h-3.728v11.181c7.649-1.2 13.5-7.819 13.5-15.806z"></path>
<path fill="#fff" style="fill: var(--color6, #fff)" d="M22.228 20.625l0.709-4.625h-4.437v-3.001c0-1.265 0.62-2.499 2.607-2.499h2.018v-3.938c0 0-1.831-0.313-3.582-0.313-3.655 0-6.043 2.215-6.043 6.225v3.525h-4.063v4.625h4.063v11.181c0.827 0.13 1.663 0.195 2.5 0.194s1.673-0.065 2.5-0.194v-11.181h3.728z"></path>
</symbol>
<symbol id="question-minus" viewBox="0 0 128 32">
<path stroke-linejoin="round" stroke-linecap="round" stroke-miterlimit="4" stroke-width="21.3333" d="M10.667 16h106.667"></path>
</symbol>
<symbol id="question-plus" viewBox="0 0 30 32">
<path stroke-linejoin="round" stroke-linecap="round" stroke-miterlimit="4" stroke-width="4.9231" d="M2.462 16h24.615M14.769 28.308v-24.615"></path>
</symbol>
<symbol id="review-left" viewBox="0 0 19 32">
<path fill="#fff" style="fill: var(--color6, #fff)" d="M18.466 0.704c0.47 0.451 0.734 1.063 0.734 1.701s-0.264 1.25-0.734 1.701l-12.413 11.908 12.413 11.908c0.457 0.454 0.71 1.061 0.704 1.692s-0.269 1.234-0.734 1.68-1.094 0.699-1.751 0.704c-0.657 0.006-1.291-0.237-1.764-0.675l-14.186-13.609c-0.47-0.451-0.734-1.063-0.734-1.701s0.264-1.25 0.734-1.701l14.186-13.609c0.47-0.451 1.108-0.704 1.773-0.704s1.303 0.253 1.773 0.704z"></path>
</symbol>
<symbol id="review-right" viewBox="0 0 19 32">
<path fill="#fff" style="fill: var(--color6, #fff)" d="M0.734 0.704c-0.47 0.451-0.734 1.063-0.734 1.701s0.264 1.25 0.734 1.701l12.413 11.908-12.413 11.908c-0.457 0.454-0.71 1.061-0.704 1.692s0.269 1.234 0.734 1.68 1.094 0.699 1.751 0.704c0.658 0.006 1.291-0.237 1.764-0.675l14.186-13.609c0.47-0.451 0.734-1.063 0.734-1.701s-0.264-1.25-0.734-1.701l-14.186-13.609c-0.47-0.451-1.108-0.704-1.773-0.704s-1.303 0.253-1.773 0.704z"></path>
</symbol>
<symbol id="two-yellow-stars" viewBox="0 0 35 32">
<path fill="#fed165" style="fill: var(--color2, #fed165)" d="M6.473 0.040c1.237-0.562 5.676 5.036 5.676 5.036s6.221-3.268 7.13-2.237c0.908 1.031-2.906 7.027-2.906 7.027s4.95 5.095 4.269 6.301c-0.681 1.206-7.425-0.656-7.425-0.656s-3.168 6.418-4.484 6.126c-1.317-0.293-1.692-7.484-1.692-7.484s-6.903-1.171-7.039-2.506c-0.136-1.335 6.38-3.971 6.38-3.971s-1.147-7.016 0.091-7.636z"></path>
<path fill="#fed165" style="fill: var(--color2, #fed165)" d="M27.343 17.635c0.738 0.037 1.485 3.849 1.485 3.849s3.821-0.026 4.002 0.699c0.181 0.725-3.158 2.669-3.158 2.669s1.119 3.696 0.489 4.109c-0.63 0.413-3.423-2.17-3.423-2.17s-3.132 2.31-3.695 1.84c-0.563-0.47 1.051-4.037 1.051-4.037s-3.042-2.288-2.774-2.967c0.267-0.679 4.073-0.325 4.073-0.325s1.197-3.675 1.95-3.666z"></path>
</symbol>
<symbol id="yellow-star" viewBox="0 0 31 32">
<path fill="#fed165" style="fill: var(--color2, #fed165)" d="M12.712 0.374c1.964-0.432 6.92 8.673 6.92 8.673s9.995-2.787 11.040-1.085c1.046 1.702-6.178 8.997-6.178 8.997s5.841 8.546 4.514 10.038c-1.327 1.492-10.678-3.047-10.678-3.047s-6.393 8.070-8.238 7.283c-1.846-0.787-0.421-10.954-0.421-10.954s-9.773-3.618-9.606-5.524c0.167-1.907 10.42-3.725 10.42-3.725s0.247-10.143 2.227-10.656z"></path>
</symbol>
</defs>
</svg>
