<svg xmlns="http://www.w3.org/2000/svg" aria-hidden="true" style="position:absolute;width:0;height:0;overflow:hidden">
  <defs>
    <symbol id="about-school-desktop" viewBox="0 0 50 32">
      <path fill="#38b077" d="M38.491.046c-.05 0-.091.041-.091.091s.041.091.091.091V.045zm-4.662 15.268zm-33.28-.868-.083-.039-.003.006-.002.007.088.027zm6.582 11.565-.795-.695-.204 1.036.999-.341zm-.921-.28c-.049-.012-.099.018-.111.067s.018.099.067.111l.043-.178zm-1.875-.452a.091.091 0 1 0 .076-.166l-.077.166zm-1.531-1.16c-.039-.032-.097-.026-.129.013s-.026.097.013.129l.116-.142zm-1.428-1.285a.091.091 0 1 0 .151-.103l-.151.103zm-.692-1.793c-.017-.048-.069-.073-.116-.056s-.073.069-.056.116l.173-.06zm-.599-1.829c.006.05.052.086.102.08s.086-.052.08-.102l-.182.022zm.117-1.923c.002-.05-.037-.093-.087-.095s-.093.037-.095.087l.183.008zm.04-1.926c-.009.05.023.097.073.107s.097-.023.107-.073l-.18-.034zm.81-1.664c.026-.043.012-.099-.032-.125s-.099-.012-.125.031l.157.094zm.935-1.544c-.035.037-.033.095.004.129s.095.033.129-.003l-.133-.126zm1.495-1.007c.042-.028.054-.084.027-.126s-.084-.054-.127-.027l.1.153zm1.519-.97c-.047.018-.071.071-.053.118s.071.071.118.053l-.065-.171zm1.777-.314c.05-.01.082-.058.072-.108s-.058-.082-.107-.072l.036.179zm1.756-.415c-.05.004-.088.047-.085.098s.047.088.098.085l-.013-.182zm1.802.142c.05.001.092-.039.093-.089s-.039-.092-.089-.093l-.004.183zm1.808-.08c-.05-.004-.095.033-.099.083s.033.095.083.099l.016-.182zm1.762.39a.091.091 0 1 0 .025-.181l-.026.181zm1.804.111c-.05-.009-.097.024-.107.073s.024.097.073.106l.033-.18zm1.726.534c.049.011.098-.021.109-.07s-.021-.098-.07-.109l-.039.179zm1.797.226c-.049-.012-.099.018-.111.067s.018.099.067.11l.043-.178zm1.693.621a.091.091 0 1 0 .047-.177l-.047.177zm1.783.299c-.049-.014-.099.015-.113.063s.015.099.063.113l.05-.176zm1.679.677c.048.014.099-.013.114-.062s-.013-.099-.062-.114l-.052.175zm1.774.347a.091.091 0 0 0-.054.174l.054-.175zm1.659.712c.048.015.1-.011.115-.059s-.011-.1-.059-.115l-.055.174zm1.767.378c-.048-.016-.1.011-.115.059s.011.1.058.115l.057-.174zm1.65.736a.092.092 0 0 0 .058-.174l-.058.174zm1.764.396c-.048-.016-.1.01-.116.057s.01.1.057.116l.058-.173zm1.684.746c.048.014.099-.013.114-.061s-.013-.099-.061-.114l-.052.175zm1.808.276c-.049-.011-.098.021-.109.07s.021.098.07.109l.038-.179zm1.763.48c.05.006.096-.03.102-.08s-.03-.096-.08-.102l-.022.182zm1.82-.065a.092.092 0 0 0-.001.183l.002-.183zm1.838.082c.05-.006.086-.052.08-.102s-.052-.086-.102-.08l.022.181zm1.745-.532c-.049.014-.077.064-.063.113s.064.077.113.063l-.049-.176zm1.771-.472c.045-.022.064-.077.042-.122s-.077-.064-.122-.042l.08.165zm1.453-1.106c-.04.031-.048.088-.017.128s.088.048.128.017l-.111-.145zm1.44-1.124c.032-.039.027-.096-.012-.129s-.096-.027-.129.012l.14.117zm.84-1.622c-.022.045-.004.1.042.122s.1.004.122-.042l-.164-.081zm.767-1.659c.01-.049-.021-.098-.071-.108s-.098.021-.108.071l.179.038zm-.036-1.826a.092.092 0 0 0 .183-.009l-.183.009zm-.144-1.82c-.015-.048-.067-.075-.115-.059s-.075.067-.06.115l.174-.055zm-.929-1.573c.027.043.083.056.126.029s.056-.083.029-.126l-.155.097zm-.997-1.531a.091.091 0 0 0-.128.13l.129-.13zm-1.536-.996c.042.027.099.015.126-.027s.015-.099-.027-.126l-.099.153zm-1.517-1.009c-.046-.02-.1.002-.12.048s.002.1.048.12l.072-.168zm-1.79-.419a.091.091 0 1 0 .047-.177l-.047.177zM41.24.232a.091.091 0 1 0-.025.181l.026-.181zm-1.827.016c.05.002.093-.037.095-.087s-.037-.093-.087-.095l-.008.183zM6.345 25.763l-.135-.032-.043.178.137.032.041-.178zm-1.934-.65a7.47 7.47 0 0 1-1.607-.994l-.116.142a7.698 7.698 0 0 0 1.647 1.018l.077-.166zm-2.884-2.382a7.087 7.087 0 0 1-.843-1.691l-.173.06c.206.595.487 1.182.865 1.734l.151-.103zM.267 19.19a11.579 11.579 0 0 1-.065-1.902l-.183-.008c-.027.598-.016 1.254.066 1.932l.182-.022zm.155-3.793c.054-.289.108-.521.148-.68.02-.08.037-.141.048-.182l.013-.047a.035.035 0 0 0 .003-.012l.001-.003v-.001l-.088-.027-.088-.027v.001l-.001.003-.004.013-.014.049a11.588 11.588 0 0 0-.199.878l.18.034zm.209-.912c.131-.275.271-.537.42-.786l-.157-.094a9.783 9.783 0 0 0-.429.801l.165.079zm1.489-2.204a7.469 7.469 0 0 1 1.361-1.133l-.1-.153c-.508.33-.973.716-1.394 1.161l.133.126zm2.946-1.932a10.567 10.567 0 0 1 1.711-.485l-.036-.179c-.615.122-1.195.286-1.741.493l.065.171zm3.481-.718a19.363 19.363 0 0 1 1.789-.041l.004-.183c-.626-.013-1.228 0-1.806.041l.013.182zm3.581.062c.575.052 1.167.121 1.778.209l.026-.181a35.176 35.176 0 0 0-1.787-.21l-.016.182zm3.549.499a55.94 55.94 0 0 1 1.759.354l.039-.179a56.31 56.31 0 0 0-1.765-.355l-.033.18zm3.512.758c.568.138 1.147.286 1.737.443l.047-.177a81.278 81.278 0 0 0-1.741-.443l-.043.178zm3.47.918c.567.16 1.143.328 1.728.502l.052-.175c-.586-.174-1.163-.342-1.731-.502l-.05.176zm3.449 1.023c.563.174 1.134.353 1.713.537l.055-.174c-.579-.184-1.151-.364-1.714-.538l-.054.175zm3.423 1.089c.562.183 1.131.371 1.707.562l.058-.174a304.77 304.77 0 0 0-1.708-.562l-.057.174zm3.412 1.132.856.289.059-.173-.856-.289-.058.173zm.856.289c.299.101.595.195.887.283l.052-.175c-.29-.087-.583-.18-.88-.281l-.059.173zm2.657.738c.62.133 1.221.232 1.801.301l.022-.182a19.653 19.653 0 0 1-1.785-.298l-.038.179zm3.619.419c.642.006 1.255-.029 1.839-.101l-.022-.181c-.576.07-1.181.105-1.816.099l-.002.183zm3.635-.457a10.4 10.4 0 0 0 1.721-.649l-.08-.165c-.521.252-1.085.467-1.691.637l.049.176zm3.285-1.608a8.238 8.238 0 0 0 1.329-1.27l-.14-.117a8.085 8.085 0 0 1-1.3 1.241l.111.145zm2.333-2.811a7.403 7.403 0 0 0 .602-1.74l-.179-.038a7.266 7.266 0 0 1-.587 1.697l.164.081zm.749-3.575a7.15 7.15 0 0 0-.326-1.811l-.174.055c.184.578.289 1.171.318 1.765l.183-.009zm-1.1-3.481a7.86 7.86 0 0 0-1.153-1.434l-.129.13c.443.438.818.909 1.126 1.401l.155-.097zm-2.589-2.584a10.614 10.614 0 0 0-1.616-.855l-.072.168c.58.247 1.109.529 1.589.84l.099-.153zM43.029.592a15.455 15.455 0 0 0-1.789-.36l-.026.181c.624.089 1.213.209 1.767.356l.047-.177zM39.421.066a21.69 21.69 0 0 0-.93-.02v.183c.314 0 .621.007.922.02l.008-.183z" style="fill:var(--color1, #38b077)"/>
      <path fill="#fed165" d="M19.566 26.56a5.44 5.44 0 1 1-10.881-.001 5.44 5.44 0 0 1 10.881.001z" style="fill:var(--color2, #fed165)"/>
    </symbol>
  </defs>
</svg>
