<svg aria-hidden="true" style="position: absolute; width: 0; height: 0; overflow: hidden;" version="1.1" xmlns="http://www.w3.org/2000/svg" xmlns:xlink="http://www.w3.org/1999/xlink">
<defs>
<symbol id="about-school-desktop" viewBox="0 0 61 32">
<path fill="#38b077" style="fill: var(--color1, #38b077)" d="M46.616 0.055c-0.061 0-0.111 0.050-0.111 0.111s0.050 0.111 0.111 0.111v-0.221zM40.969 18.547v0zM0.664 17.495l-0.1-0.048-0.004 0.008-0.002 0.008 0.106 0.032zM8.637 31.502l-0.963-0.842-0.248 1.254 1.21-0.413zM7.521 31.162c-0.059-0.015-0.119 0.022-0.134 0.081s0.022 0.119 0.081 0.134l0.053-0.215zM5.249 30.615c0.056 0.026 0.121 0.001 0.147-0.054s0.001-0.121-0.054-0.147l-0.093 0.201zM3.395 29.21c-0.047-0.039-0.117-0.032-0.156 0.016s-0.032 0.117 0.016 0.156l0.14-0.172zM1.667 27.654c0.034 0.050 0.103 0.063 0.154 0.029s0.063-0.103 0.029-0.154l-0.183 0.125zM0.828 25.482c-0.020-0.058-0.083-0.088-0.141-0.068s-0.088 0.083-0.068 0.141l0.209-0.072zM0.103 23.267c0.007 0.061 0.062 0.104 0.123 0.097s0.104-0.062 0.097-0.123l-0.22 0.026zM0.244 20.938c0.003-0.061-0.045-0.113-0.106-0.116s-0.113 0.044-0.116 0.106l0.221 0.010zM0.294 18.606c-0.011 0.060 0.028 0.118 0.088 0.129s0.118-0.028 0.129-0.088l-0.218-0.041zM1.274 16.59c0.031-0.052 0.014-0.12-0.038-0.152s-0.12-0.014-0.152 0.038l0.19 0.114zM2.407 14.721c-0.042 0.044-0.040 0.114 0.004 0.157s0.114 0.040 0.157-0.004l-0.161-0.152zM4.216 13.501c0.051-0.033 0.066-0.102 0.032-0.153s-0.102-0.066-0.153-0.032l0.121 0.186zM6.057 12.326c-0.057 0.022-0.086 0.086-0.064 0.143s0.086 0.086 0.143 0.064l-0.079-0.207zM8.208 11.946c0.060-0.012 0.099-0.070 0.087-0.13s-0.070-0.099-0.13-0.087l0.043 0.217zM10.336 11.444c-0.061 0.004-0.107 0.057-0.103 0.118s0.057 0.107 0.118 0.103l-0.016-0.221zM12.518 11.615c0.061 0.001 0.112-0.047 0.113-0.108s-0.047-0.112-0.108-0.113l-0.005 0.221zM14.708 11.518c-0.061-0.005-0.115 0.040-0.12 0.1s0.040 0.115 0.1 0.12l0.020-0.221zM16.841 11.991c0.060 0.009 0.117-0.033 0.125-0.094s-0.033-0.117-0.094-0.125l-0.031 0.219zM19.026 12.125c-0.060-0.011-0.118 0.029-0.129 0.089s0.029 0.118 0.089 0.129l0.040-0.218zM21.117 12.771c0.060 0.013 0.119-0.025 0.132-0.085s-0.025-0.119-0.085-0.132l-0.047 0.216zM23.292 13.046c-0.059-0.014-0.119 0.022-0.134 0.081s0.022 0.119 0.081 0.134l0.052-0.215zM25.343 13.797c0.059 0.016 0.12-0.020 0.135-0.079s-0.020-0.12-0.079-0.135l-0.057 0.214zM27.503 14.16c-0.059-0.017-0.12 0.018-0.137 0.076s0.018 0.12 0.076 0.137l0.060-0.213zM29.535 14.98c0.059 0.017 0.12-0.016 0.138-0.075s-0.016-0.12-0.075-0.138l-0.063 0.212zM31.684 15.4c-0.058-0.018-0.12 0.015-0.138 0.073s0.015 0.12 0.073 0.139l0.065-0.212zM33.693 16.263c0.058 0.019 0.121-0.014 0.139-0.072s-0.014-0.121-0.072-0.139l-0.067 0.211zM35.833 16.72c-0.058-0.019-0.121 0.013-0.139 0.071s0.013 0.121 0.071 0.14l0.069-0.211zM37.832 17.611c0.058 0.019 0.121-0.012 0.14-0.070s-0.012-0.121-0.070-0.14l-0.070 0.21zM39.967 18.092c-0.058-0.020-0.121 0.012-0.14 0.070s0.012 0.121 0.070 0.14l0.071-0.21zM42.007 18.994c0.059 0.017 0.12-0.016 0.138-0.074s-0.016-0.12-0.074-0.138l-0.063 0.212zM44.197 19.328c-0.060-0.013-0.119 0.025-0.131 0.085s0.025 0.119 0.085 0.131l0.046-0.217zM46.332 19.91c0.061 0.007 0.116-0.036 0.123-0.097s-0.036-0.116-0.097-0.123l-0.026 0.22zM48.536 19.831c-0.061-0.001-0.111 0.049-0.112 0.11s0.049 0.111 0.11 0.112l0.002-0.221zM50.762 19.931c0.061-0.007 0.104-0.063 0.097-0.123s-0.063-0.104-0.123-0.097l0.027 0.22zM52.876 19.287c-0.059 0.017-0.093 0.078-0.077 0.137s0.078 0.093 0.137 0.077l-0.060-0.213zM55.020 18.714c0.055-0.027 0.078-0.093 0.051-0.148s-0.093-0.078-0.148-0.051l0.097 0.199zM56.78 17.376c-0.049 0.037-0.058 0.107-0.021 0.155s0.107 0.058 0.155 0.021l-0.135-0.176zM58.524 16.014c0.039-0.047 0.033-0.117-0.014-0.156s-0.117-0.033-0.156 0.014l0.17 0.142zM59.542 14.050c-0.027 0.055-0.004 0.121 0.050 0.148s0.121 0.004 0.148-0.050l-0.199-0.098zM60.47 12.041c0.013-0.060-0.026-0.118-0.085-0.131s-0.119 0.026-0.131 0.085l0.217 0.046zM60.426 9.829c0.003 0.061 0.055 0.108 0.116 0.105s0.108-0.055 0.105-0.116l-0.221 0.011zM60.252 7.624c-0.019-0.058-0.081-0.091-0.139-0.072s-0.091 0.081-0.072 0.139l0.211-0.067zM59.127 5.72c0.032 0.052 0.101 0.068 0.153 0.035s0.068-0.101 0.035-0.153l-0.188 0.117zM57.919 3.866c-0.043-0.043-0.114-0.043-0.157 0.001s-0.043 0.114 0.001 0.157l0.156-0.157zM56.059 2.659c0.051 0.033 0.12 0.019 0.153-0.033s0.019-0.12-0.033-0.153l-0.12 0.186zM54.222 1.437c-0.056-0.024-0.121 0.002-0.145 0.058s0.002 0.121 0.058 0.145l0.087-0.204zM52.054 0.931c0.059 0.016 0.12-0.020 0.135-0.079s-0.020-0.12-0.079-0.135l-0.057 0.214zM49.945 0.281c-0.061-0.009-0.117 0.033-0.125 0.094s0.033 0.117 0.094 0.125l0.031-0.219zM47.733 0.301c0.061 0.003 0.113-0.045 0.115-0.106s-0.045-0.113-0.106-0.115l-0.010 0.221zM7.684 31.201c-0.055-0.013-0.109-0.026-0.163-0.039l-0.053 0.215c0.055 0.013 0.11 0.026 0.165 0.039l0.050-0.216zM5.342 30.414c-0.75-0.346-1.394-0.753-1.947-1.204l-0.14 0.172c0.568 0.463 1.228 0.88 1.994 1.233l0.093-0.201zM1.849 27.529c-0.445-0.651-0.777-1.343-1.021-2.047l-0.209 0.072c0.25 0.721 0.59 1.431 1.047 2.1l0.183-0.125zM0.323 23.241c-0.097-0.806-0.111-1.589-0.079-2.303l-0.221-0.010c-0.033 0.724-0.019 1.519 0.080 2.339l0.22-0.026zM0.511 18.647c0.066-0.35 0.131-0.631 0.179-0.824 0.024-0.096 0.044-0.171 0.058-0.221 0.007-0.025 0.012-0.044 0.016-0.057 0.002-0.006 0.003-0.011 0.004-0.014 0-0.001 0.001-0.003 0.001-0.003s0-0.001 0-0.001 0-0 0-0 0 0 0 0 0 0 0 0 0 0-0.106-0.032-0.106-0.032-0.106-0.032 0 0 0 0-0 0-0 0-0 0-0 0-0 0.001-0 0.001-0.001 0.002-0.001 0.004-0.003 0.009-0.004 0.015c-0.004 0.013-0.010 0.033-0.017 0.059-0.014 0.052-0.035 0.128-0.060 0.226-0.049 0.197-0.115 0.482-0.182 0.837l0.218 0.041zM0.764 17.542c0.159-0.333 0.329-0.65 0.509-0.952l-0.19-0.114c-0.184 0.308-0.357 0.631-0.519 0.971l0.2 0.095zM2.568 14.873c0.498-0.526 1.048-0.982 1.649-1.373l-0.121-0.186c-0.615 0.4-1.179 0.867-1.689 1.406l0.161 0.152zM6.136 12.533c0.648-0.247 1.339-0.442 2.073-0.587l-0.043-0.217c-0.745 0.148-1.448 0.346-2.108 0.598l0.079 0.207zM10.351 11.664c0.692-0.049 1.414-0.065 2.167-0.050l0.005-0.221c-0.758-0.016-1.487 0-2.187 0.050l0.016 0.221zM14.688 11.738c0.696 0.063 1.414 0.147 2.153 0.253l0.031-0.219c-0.743-0.106-1.464-0.191-2.165-0.254l-0.020 0.221zM18.986 12.343c0.694 0.128 1.404 0.271 2.131 0.428l0.047-0.216c-0.729-0.158-1.441-0.302-2.137-0.43l-0.040 0.218zM23.24 13.261c0.688 0.168 1.389 0.346 2.104 0.536l0.057-0.214c-0.716-0.19-1.419-0.369-2.108-0.537l-0.052 0.215zM27.442 14.373c0.687 0.194 1.384 0.397 2.093 0.607l0.063-0.212c-0.71-0.211-1.408-0.414-2.096-0.608l-0.060 0.213zM31.619 15.612c0.682 0.211 1.374 0.428 2.074 0.651l0.067-0.211c-0.701-0.223-1.394-0.441-2.076-0.652l-0.065 0.212zM35.764 16.93c0.681 0.222 1.37 0.449 2.068 0.681l0.070-0.21c-0.698-0.232-1.387-0.459-2.069-0.681l-0.069 0.211zM39.897 18.301c0.344 0.116 0.689 0.233 1.037 0.35l0.071-0.21c-0.348-0.118-0.693-0.234-1.037-0.35l-0.071 0.21zM40.933 18.652c0.363 0.123 0.72 0.237 1.074 0.342l0.063-0.212c-0.351-0.105-0.706-0.218-1.066-0.34l-0.071 0.21zM44.151 19.545c0.751 0.161 1.478 0.281 2.182 0.365l0.026-0.22c-0.696-0.082-1.417-0.202-2.161-0.361l-0.046 0.217zM48.534 20.053c0.778 0.007 1.52-0.035 2.227-0.122l-0.027-0.22c-0.697 0.085-1.43 0.127-2.199 0.12l-0.002 0.221zM52.935 19.5c0.746-0.21 1.441-0.474 2.084-0.786l-0.097-0.199c-0.631 0.306-1.313 0.566-2.047 0.772l0.060 0.213zM56.915 17.552c0.609-0.465 1.146-0.982 1.609-1.537l-0.17-0.142c-0.453 0.543-0.978 1.048-1.574 1.503l0.135 0.176zM59.74 14.147c0.333-0.677 0.577-1.385 0.729-2.107l-0.217-0.046c-0.148 0.704-0.386 1.394-0.711 2.055l0.199 0.098zM60.647 9.818c-0.036-0.738-0.167-1.475-0.395-2.194l-0.211 0.067c0.222 0.7 0.35 1.418 0.385 2.138l0.221-0.011zM59.315 5.603c-0.382-0.611-0.847-1.194-1.396-1.737l-0.156 0.157c0.537 0.531 0.991 1.101 1.364 1.697l0.188-0.117zM56.179 2.473c-0.592-0.384-1.244-0.732-1.957-1.036l-0.087 0.204c0.702 0.299 1.343 0.641 1.924 1.018l0.12-0.186zM52.111 0.717c-0.68-0.18-1.402-0.327-2.166-0.436l-0.031 0.219c0.756 0.108 1.469 0.253 2.141 0.431l0.057-0.214zM47.742 0.080c-0.367-0.016-0.743-0.024-1.126-0.024v0.221c0.38 0 0.753 0.008 1.117 0.024l0.010-0.221z"></path>
</symbol>
</defs>
</svg>
