<svg width="263" height="172" viewBox="0 0 263 172" fill="none" xmlns="http://www.w3.org/2000/svg">
<path d="M188 14.5002C187.447 14.5002 187 14.9479 187 15.5002C187 16.0525 187.447 16.5002 188 16.5002L188 14.5002ZM175 99.0002L174.578 99.9071L175 99.0002ZM18.4997 95.5002L17.5413 95.2145L17.5412 95.215L18.4997 95.5002ZM62.4999 156L52.6474 149.979L52.3587 161.522L62.4999 156ZM58.0099 154.888C57.4583 154.86 56.9883 155.284 56.96 155.835C56.9317 156.387 57.3559 156.857 57.9075 156.885L58.0099 154.888ZM48.816 155.865C49.3595 155.963 49.8796 155.602 49.9778 155.058C50.076 154.515 49.715 153.995 49.1715 153.896L48.816 155.865ZM40.6465 151.623C40.1279 151.433 39.5535 151.7 39.3635 152.218C39.1734 152.737 39.4398 153.311 39.9583 153.501L40.6465 151.623ZM31.7213 149.417C32.1838 149.719 32.8035 149.589 33.1053 149.126C33.4072 148.664 33.277 148.044 32.8145 147.742L31.7213 149.417ZM26.1999 142.042C25.8348 141.627 25.2029 141.587 24.7885 141.952C24.3742 142.318 24.3342 142.949 24.6994 143.364L26.1999 142.042ZM19.577 135.659C19.8201 136.155 20.4192 136.359 20.9151 136.116C21.411 135.873 21.6159 135.274 21.3728 134.778L19.577 135.659ZM18.4455 126.505C18.3178 125.967 17.7787 125.635 17.2414 125.763C16.7041 125.891 16.372 126.43 16.4997 126.967L18.4455 126.505ZM15.1874 117.883C15.2211 118.434 15.6953 118.854 16.2465 118.82C16.7978 118.786 17.2174 118.312 17.1837 117.761L15.1874 117.883ZM17.2649 108.878C17.3061 108.327 16.893 107.847 16.3422 107.806C15.7915 107.765 15.3116 108.178 15.2705 108.729L17.2649 108.878ZM16.4948 99.6731C16.3882 100.215 16.7411 100.741 17.283 100.847C17.8249 100.954 18.3506 100.601 18.4572 100.059L16.4948 99.6731ZM21.0305 91.2226C21.2334 90.7089 20.9816 90.128 20.4679 89.925C19.9543 89.7221 19.3734 89.974 19.1704 90.4876L21.0305 91.2226ZM23.8012 81.583C23.4929 82.0413 23.6145 82.6627 24.0728 82.9709C24.5311 83.2792 25.1524 83.1575 25.4607 82.6993L23.8012 81.583ZM31.7514 75.5331C32.1677 75.1702 32.2109 74.5385 31.848 74.1222C31.4851 73.7059 30.8534 73.6626 30.4371 74.0255L31.7514 75.5331ZM38.8318 68.4859C38.3354 68.7281 38.1294 69.3268 38.3716 69.8231C38.6138 70.3195 39.2125 70.5255 39.7089 70.2833L38.8318 68.4859ZM48.7362 67.0878C49.2732 66.9586 49.6038 66.4185 49.4746 65.8816C49.3454 65.3446 48.8053 65.014 48.2684 65.1432L48.7362 67.0878ZM58.1286 63.6464C57.5778 63.6871 57.1642 64.1665 57.2049 64.7173C57.2455 65.2681 57.725 65.6817 58.2758 65.641L58.1286 63.6464ZM67.9766 65.5295C68.5283 65.554 68.9955 65.1266 69.02 64.5749C69.0445 64.0231 68.6171 63.556 68.0653 63.5315L67.9766 65.5295ZM77.9347 64.4219C77.3872 64.3496 76.8847 64.7348 76.8123 65.2823C76.74 65.8299 77.1252 66.3324 77.6727 66.4047L77.9347 64.4219ZM87.3049 68.0162C87.8464 68.1244 88.3732 67.7731 88.4814 67.2315C88.5896 66.6899 88.2383 66.1632 87.6968 66.0549L87.3049 68.0162ZM97.3338 68.2484C96.7985 68.1127 96.2544 68.4366 96.1187 68.972C95.9829 69.5073 96.3069 70.0513 96.8422 70.1871L97.3338 68.2484ZM106.262 72.7874C106.791 72.9447 107.348 72.6431 107.505 72.1137C107.663 71.5842 107.361 71.0275 106.832 70.8702L106.262 72.7874ZM116.251 73.8446C115.727 73.67 115.161 73.9531 114.986 74.4771C114.812 75.001 115.095 75.5673 115.619 75.742L116.251 73.8446ZM124.855 78.9639C125.374 79.1525 125.948 78.8847 126.136 78.3657C126.325 77.8466 126.057 77.2729 125.538 77.0842L124.855 78.9639ZM134.765 80.5597C134.251 80.3595 133.671 80.6143 133.471 81.129C133.27 81.6437 133.525 82.2233 134.04 82.4236L134.765 80.5597ZM143.138 86.0656C143.649 86.2755 144.233 86.0316 144.443 85.5207C144.653 85.0099 144.409 84.4256 143.898 84.2157L143.138 86.0656ZM152.971 88.0301C152.464 87.8122 151.876 88.0469 151.658 88.5543C151.44 89.0618 151.675 89.6498 152.182 89.8678L152.971 88.0301ZM161.18 93.8052C161.684 94.0299 162.276 93.803 162.5 93.2985C162.725 92.794 162.498 92.2029 161.994 91.9782L161.18 93.8052ZM170.951 96.029C170.449 95.7987 169.855 96.0189 169.625 96.5209C169.395 97.0229 169.615 97.6165 170.117 97.8468L170.951 96.029ZM179.086 101.875C179.598 102.083 180.182 101.838 180.39 101.326C180.599 100.815 180.353 100.231 179.842 100.023L179.086 101.875ZM188.756 103.126C188.225 102.974 187.671 103.281 187.519 103.812C187.366 104.342 187.673 104.896 188.204 105.048L188.756 103.126ZM197.643 107.119C198.189 107.201 198.698 106.825 198.78 106.278C198.862 105.732 198.485 105.223 197.939 105.141L197.643 107.119ZM207.36 105.817C206.808 105.822 206.365 106.275 206.371 106.827C206.376 107.379 206.829 107.822 207.381 107.817L207.36 105.817ZM217.048 106.834C217.59 106.726 217.941 106.2 217.833 105.658C217.725 105.116 217.199 104.765 216.657 104.873L217.048 106.834ZM225.591 102.099C225.084 102.319 224.852 102.908 225.071 103.414C225.291 103.921 225.879 104.154 226.386 103.934L225.591 102.099ZM234.87 99.0577C235.314 98.7297 235.409 98.1036 235.08 97.6593C234.752 97.215 234.126 97.1207 233.682 97.4487L234.87 99.0577ZM240.497 91.0848C240.139 91.5056 240.19 92.1367 240.611 92.4945C241.032 92.8523 241.663 92.8013 242.021 92.3806L240.497 91.0848ZM247.475 84.2613C247.73 83.7712 247.539 83.1675 247.049 82.9128C246.559 82.6581 245.956 82.8488 245.701 83.3389L247.475 84.2613ZM249.07 74.6282C248.928 75.162 249.246 75.7096 249.78 75.8513C250.314 75.993 250.861 75.6752 251.003 75.1414L249.07 74.6282ZM252.471 65.4751C252.494 64.9233 252.065 64.4573 251.513 64.4342C250.961 64.4112 250.495 64.8399 250.472 65.3917L252.471 65.4751ZM249.838 56.0737C249.936 56.6173 250.456 56.9785 251 56.8806C251.543 56.7828 251.905 56.2628 251.807 55.7192L249.838 56.0737ZM249.014 46.3444C248.798 45.8359 248.211 45.5986 247.703 45.8142C247.194 46.0299 246.957 46.6169 247.173 47.1253L249.014 46.3444ZM242.591 38.9785C242.913 39.4272 243.538 39.5299 243.986 39.2079C244.435 38.8859 244.538 38.2611 244.216 37.8124L242.591 38.9785ZM237.726 30.538C237.318 30.166 236.685 30.1954 236.313 30.6036C235.941 31.0118 235.97 31.6443 236.379 32.0163L237.726 30.538ZM228.882 26.404C229.352 26.6928 229.968 26.5454 230.257 26.0746C230.546 25.6039 230.398 24.9881 229.928 24.6993L228.882 26.404ZM221.234 20.3197C220.722 20.1111 220.139 20.3565 219.93 20.8679C219.722 21.3793 219.967 21.9629 220.478 22.1716L221.234 20.3197ZM211.508 19.2309C212.043 19.3677 212.588 19.0449 212.724 18.5099C212.861 17.9748 212.538 17.4301 212.003 17.2932L211.508 19.2309ZM202.534 15.4528C201.987 15.3774 201.482 15.7598 201.407 16.3069C201.331 16.854 201.714 17.3586 202.261 17.4341L202.534 15.4528ZM192.833 16.6007C193.385 16.624 193.851 16.1956 193.875 15.6438C193.898 15.092 193.469 14.6258 192.918 14.6025L192.833 16.6007ZM49.1715 153.896C46.0395 153.331 43.207 152.562 40.6465 151.623L39.9583 153.501C42.635 154.482 45.5796 155.28 48.816 155.865L49.1715 153.896ZM32.8145 147.742C30.2221 146.05 28.0372 144.127 26.1999 142.042L24.6994 143.364C26.6549 145.583 28.9765 147.626 31.7213 149.417L32.8145 147.742ZM21.3728 134.778C20.0632 132.107 19.1138 129.317 18.4455 126.505L16.4997 126.967C17.1974 129.903 18.1934 132.837 19.577 135.659L21.3728 134.778ZM17.1837 117.761C16.9924 114.629 17.0603 111.617 17.2649 108.878L15.2705 108.729C15.0603 111.543 14.9897 114.646 15.1874 117.883L17.1837 117.761ZM18.4572 100.059C18.7222 98.7123 18.9742 97.6379 19.1591 96.9029C19.2516 96.5354 19.3273 96.253 19.3794 96.0639C19.4054 95.9694 19.4256 95.8982 19.439 95.8514C19.4457 95.828 19.4507 95.8107 19.4539 95.7997C19.4556 95.7942 19.4567 95.7902 19.4574 95.7878C19.4578 95.7866 19.458 95.7858 19.4581 95.7854C19.4582 95.7852 19.4582 95.7851 19.4582 95.7851C19.4582 95.7851 19.4582 95.7851 19.4582 95.7851C19.4582 95.7852 19.4582 95.7852 19.4582 95.7852C19.4582 95.7853 19.4581 95.7854 18.4997 95.5002C17.5412 95.215 17.5412 95.2151 17.5411 95.2152C17.5411 95.2152 17.5411 95.2153 17.5411 95.2154C17.541 95.2155 17.541 95.2157 17.5409 95.2159C17.5408 95.2163 17.5407 95.2168 17.5405 95.2174C17.5401 95.2186 17.5397 95.2201 17.5391 95.2221C17.5379 95.2261 17.5363 95.2316 17.5342 95.2387C17.5301 95.253 17.5241 95.2735 17.5165 95.3001C17.5012 95.3534 17.4792 95.4312 17.4512 95.5326C17.3954 95.7353 17.3159 96.0322 17.2196 96.4148C17.0271 97.1799 16.7672 98.2885 16.4948 99.6731L18.4572 100.059ZM19.458 95.7858C19.9328 94.1929 20.4576 92.6725 21.0305 91.2226L19.1704 90.4876C18.5753 91.9937 18.0319 93.5689 17.5413 95.2145L19.458 95.7858ZM25.4607 82.6993C27.309 79.9514 29.4125 77.5721 31.7514 75.5331L30.4371 74.0255C27.9632 76.1823 25.7445 78.6939 23.8012 81.583L25.4607 82.6993ZM39.7089 70.2833C42.5003 68.9211 45.5146 67.8629 48.7362 67.0878L48.2684 65.1432C44.9201 65.9488 41.7668 67.0536 38.8318 68.4859L39.7089 70.2833ZM58.2758 65.641C61.3731 65.4125 64.6105 65.38 67.9766 65.5295L68.0653 63.5315C64.6303 63.3789 61.3135 63.4114 58.1286 63.6464L58.2758 65.641ZM77.6727 66.4047C80.7991 66.8178 84.0125 67.3583 87.3049 68.0162L87.6968 66.0549C84.3659 65.3894 81.109 64.8414 77.9347 64.4219L77.6727 66.4047ZM96.8422 70.1871C99.9275 70.9694 103.069 71.8386 106.262 72.7874L106.832 70.8702C103.616 69.9145 100.447 69.038 97.3338 68.2484L96.8422 70.1871ZM115.619 75.742C118.661 76.756 121.741 77.8319 124.855 78.9639L125.538 77.0842C122.409 75.9466 119.312 74.8647 116.251 73.8446L115.619 75.742ZM134.04 82.4236C137.048 83.5943 140.082 84.81 143.138 86.0656L143.898 84.2157C140.832 82.9557 137.786 81.7353 134.765 80.5597L134.04 82.4236ZM152.182 89.8678C155.166 91.1494 158.167 92.4634 161.18 93.8052L161.994 91.9782C158.973 90.633 155.964 89.3154 152.971 88.0301L152.182 89.8678ZM170.117 97.8468C171.602 98.5281 173.089 99.2151 174.578 99.9071L175.421 98.0933C173.929 97.4 172.439 96.7117 170.951 96.029L170.117 97.8468ZM174.578 99.9071C176.099 100.614 177.602 101.269 179.086 101.875L179.842 100.023C178.387 99.4294 176.913 98.7868 175.421 98.0933L174.578 99.9071ZM188.204 105.048C191.452 105.98 194.6 106.664 197.643 107.119L197.939 105.141C194.986 104.699 191.923 104.034 188.756 103.126L188.204 105.048ZM207.381 107.817C210.769 107.781 213.994 107.443 217.048 106.834L216.657 104.873C213.729 105.456 210.628 105.783 207.36 105.817L207.381 107.817ZM226.386 103.934C229.465 102.6 232.298 100.957 234.87 99.0577L233.682 97.4487C231.231 99.2582 228.53 100.826 225.591 102.099L226.386 103.934ZM242.021 92.3806C244.153 89.874 245.976 87.146 247.475 84.2613L245.701 83.3389C244.269 86.0928 242.53 88.6951 240.497 91.0848L242.021 92.3806ZM251.003 75.1414C251.839 71.9916 252.334 68.7479 252.471 65.4751L250.472 65.3917C250.342 68.5187 249.869 71.6184 249.07 74.6282L251.003 75.1414ZM251.807 55.7192C251.234 52.5409 250.308 49.3959 249.014 46.3444L247.173 47.1253C248.408 50.0376 249.292 53.0394 249.838 56.0737L251.807 55.7192ZM244.216 37.8124C242.373 35.2442 240.213 32.8043 237.726 30.538L236.379 32.0163C238.763 34.1892 240.83 36.5246 242.591 38.9785L244.216 37.8124ZM229.928 24.6993C227.275 23.072 224.379 21.603 221.234 20.3197L220.478 22.1716C223.527 23.4153 226.325 24.8356 228.882 26.404L229.928 24.6993ZM212.003 17.2932C209.022 16.5307 205.867 15.9122 202.534 15.4528L202.261 17.4341C205.522 17.8836 208.603 18.488 211.508 19.2309L212.003 17.2932ZM192.918 14.6025C191.313 14.5347 189.674 14.5002 188 14.5002L188 16.5002C189.646 16.5002 191.257 16.5341 192.833 16.6007L192.918 14.6025Z" fill="#38B077"/>
<circle cx="86.5" cy="155.5" r="16.5" fill="#FED165"/>
</svg>
