<svg width="12" height="20" viewBox="0 0 12 20" fill="none" xmlns="http://www.w3.org/2000/svg">
<path d="M0.458879 0.44023C0.16506 0.722195 9.05392e-07 1.10457 8.87964e-07 1.50327C8.70537e-07 1.90197 0.16506 2.28434 0.458879 2.56631L8.21692 10.0091L0.458879 17.4518C0.173386 17.7354 0.0154125 18.1152 0.018984 18.5095C0.0225545 18.9037 0.187384 19.2808 0.47797 19.5596C0.768557 19.8384 1.16165 19.9965 1.57259 19.9999C1.98352 20.0034 2.37942 19.8518 2.67501 19.5779L11.5411 11.0721C11.8349 10.7902 12 10.4078 12 10.0091C12 9.61038 11.8349 9.228 11.5411 8.94604L2.67501 0.44023C2.38111 0.158351 1.98253 -4.37877e-07 1.56695 -4.56043e-07C1.15136 -4.74209e-07 0.752788 0.158351 0.458879 0.44023Z" fill="white"/>
</svg>
