<svg width="37" height="34" viewBox="0 0 37 34" fill="none" xmlns="http://www.w3.org/2000/svg">
<path fill-rule="evenodd" clip-rule="evenodd" d="M6.8778 0.0421539C8.1926 -0.555178 12.909 5.39326 12.909 5.39326C12.909 5.39326 19.5192 1.92126 20.4841 3.01637C21.4491 4.11148 17.3962 10.483 17.3962 10.483C17.3962 10.483 22.6554 15.8964 21.9316 17.1781C21.2079 18.4599 14.0429 16.4812 14.0429 16.4812C14.0429 16.4812 10.6774 23.3008 9.2782 22.9897C7.87897 22.6786 7.48092 15.0377 7.48092 15.0377C7.48092 15.0377 0.146987 13.7932 0.00223835 12.3746C-0.14251 10.9559 6.78128 8.15592 6.78128 8.15592C6.78128 8.15592 5.563 0.701708 6.8778 0.0421539Z" fill="#FED165"/>
<path fill-rule="evenodd" clip-rule="evenodd" d="M29.0519 18.7369C29.836 18.7765 30.6296 22.8269 30.6296 22.8269C30.6296 22.8269 34.689 22.7995 34.8818 23.5693C35.0746 24.3392 31.5268 26.4053 31.5268 26.4053C31.5268 26.4053 32.7161 30.3326 32.0466 30.7711C31.3771 31.2096 28.41 28.4657 28.41 28.4657C28.41 28.4657 25.0824 30.9198 24.4842 30.4203C23.886 29.9208 25.6007 26.1307 25.6007 26.1307C25.6007 26.1307 22.3688 23.6992 22.6529 22.9778C22.9371 22.2564 26.9803 22.632 26.9803 22.632C26.9803 22.632 28.2522 18.7273 29.0519 18.7369Z" fill="#FED165"/>
</svg>
