<svg width="27" height="28" viewBox="0 0 27 28" fill="none" xmlns="http://www.w3.org/2000/svg">
<path fill-rule="evenodd" clip-rule="evenodd" d="M11.1233 0.327482C12.8417 -0.0501529 17.1782 7.91605 17.1782 7.91605C17.1782 7.91605 25.9234 5.47732 26.8382 6.96674C27.753 8.45615 21.4327 14.839 21.4327 14.839C21.4327 14.839 26.5438 22.3169 25.3826 23.6226C24.2215 24.9282 16.0393 20.9569 16.0393 20.9569C16.0393 20.9569 10.4458 28.0182 8.83093 27.3293C7.21605 26.6405 8.46255 17.7444 8.46255 17.7444C8.46255 17.7444 -0.0889137 14.579 0.0572003 12.9106C0.203314 11.2421 9.17436 9.65157 9.17436 9.65157C9.17436 9.65157 9.39086 0.776795 11.1233 0.327482Z" fill="#FED165"/>
</svg>
